SplineFontDB: 3.2
FontName: Oscilloscope5
FullName: Oscilloscope 5
FamilyName: Oscilloscope
Weight: Book
Copyright: (c) 1997 marianfudge2@hotmail.com use this if you like
Version: Macromedia Fontographer 4.1 3/21/98
ItalicAngle: 0
UnderlinePosition: -143
UnderlineWidth: 20
Ascent: 800
Descent: 200
InvalidEm: 0
sfntRevision: 0x00010000
LayerCount: 2
Layer: 0 1 "Back" 1
Layer: 1 1 "Fore" 0
XUID: [1021 765 520456929 3180586]
StyleMap: 0x0040
FSType: 2
OS2Version: 1
OS2_WeightWidthSlopeOnly: 0
OS2_UseTypoMetrics: 0
CreationTime: 890512403
ModificationTime: 1716960065
PfmFamily: 81
TTFWeight: 400
TTFWidth: 5
LineGap: 0
VLineGap: 0
Panose: 0 0 4 0 0 0 0 0 0 0
OS2TypoAscent: 678
OS2TypoAOffset: 0
OS2TypoDescent: -13
OS2TypoDOffset: 0
OS2TypoLinegap: 0
OS2WinAscent: 678
OS2WinAOffset: 0
OS2WinDescent: 13
OS2WinDOffset: 0
HheadAscent: 800
HheadAOffset: 0
HheadDescent: -200
HheadDOffset: 0
OS2SubXSize: 700
OS2SubYSize: 650
OS2SubXOff: 0
OS2SubYOff: 143
OS2SupXSize: 700
OS2SupYSize: 650
OS2SupXOff: 0
OS2SupYOff: 453
OS2StrikeYSize: 50
OS2StrikeYPos: 259
OS2Vendor: 'MACR'
OS2CodePages: 00000001.00000000
OS2UnicodeRanges: 00000003.00000000.00000000.00000000
MarkAttachClasses: 1
DEI: 91125
TtTable: prep
NPUSHB
 17
 11
 11
 10
 10
 9
 9
 8
 8
 7
 7
 2
 2
 1
 1
 0
 0
 1
SCANTYPE
PUSHW_1
 511
SCANCTRL
RCVT
ROUND[Grey]
WCVTP
RCVT
ROUND[Grey]
WCVTP
RCVT
ROUND[Grey]
WCVTP
RCVT
ROUND[Grey]
WCVTP
RCVT
ROUND[Grey]
WCVTP
RCVT
ROUND[Grey]
WCVTP
RCVT
ROUND[Grey]
WCVTP
RCVT
ROUND[Grey]
WCVTP
PUSHB_4
 4
 3
 70
 0
CALL
PUSHB_4
 6
 5
 70
 0
CALL
PUSHB_2
 3
 3
RCVT
ROUND[Grey]
WCVTP
PUSHB_2
 5
 5
RCVT
ROUND[Grey]
WCVTP
EndTTInstrs
TtTable: fpgm
NPUSHB
 1
 0
FDEF
SROUND
RCVT
DUP
PUSHB_1
 3
CINDEX
RCVT
SWAP
SUB
ROUND[Grey]
RTG
SWAP
ROUND[Grey]
ADD
WCVTP
ENDF
EndTTInstrs
ShortTable: cvt  15
  -3
  380
  668
  30
  65
  31
  72
  18
  50
  152
  192
  111
  23133
  1
  3
EndShort
ShortTable: maxp 16
  1
  0
  83
  196
  50
  0
  0
  2
  8
  64
  10
  0
  64
  86
  0
  0
EndShort

StartChar: .notdef
Encoding: 65536 -1 0
Width: 525
Flags: W
LayerCount: 2
Fore
SplineSet
75 0 m 1,0,-1
 75 800 l 1,1,-1
 450 800 l 1,2,-1
 450 0 l 1,3,-1
 75 0 l 1,0,-1
137 63 m 1,4,-1
 387 63 l 1,5,-1
 387 738 l 1,6,-1
 137 738 l 1,7,-1
 137 63 l 1,4,-1
EndSplineSet
EndChar

StartChar: exclam
Encoding: 33 33 4
Width: 217
GlyphClass: 2
Flags: W
LayerCount: 2
Fore
SplineSet
76 587 m 1,0,-1
 76 658 l 1,1,-1
 141 658 l 1,2,-1
 141 587 l 1,3,-1
 76 587 l 1,0,-1
76 547 m 1,4,-1
 76 618 l 1,5,-1
 141 618 l 1,6,-1
 141 547 l 1,7,-1
 76 547 l 1,4,-1
76 507 m 1,8,-1
 76 578 l 1,9,-1
 141 578 l 1,10,-1
 141 507 l 1,11,-1
 76 507 l 1,8,-1
76 467 m 1,12,-1
 76 538 l 1,13,-1
 141 538 l 1,14,-1
 141 467 l 1,15,-1
 76 467 l 1,12,-1
106 587 m 1024,16,-1
76 427 m 1,17,-1
 76 498 l 1,18,-1
 141 498 l 1,19,-1
 141 427 l 1,20,-1
 76 427 l 1,17,-1
76 387 m 1,21,-1
 76 458 l 1,22,-1
 141 458 l 1,23,-1
 141 387 l 1,24,-1
 76 387 l 1,21,-1
76 347 m 1,25,-1
 76 418 l 1,26,-1
 141 418 l 1,27,-1
 141 347 l 1,28,-1
 76 347 l 1,25,-1
76 307 m 1,29,-1
 76 378 l 1,30,-1
 141 378 l 1,31,-1
 141 307 l 1,32,-1
 76 307 l 1,29,-1
76 267 m 1,33,-1
 76 338 l 1,34,-1
 141 338 l 1,35,-1
 141 267 l 1,36,-1
 76 267 l 1,33,-1
76 227 m 1,37,-1
 76 298 l 1,38,-1
 141 298 l 1,39,-1
 141 227 l 1,40,-1
 76 227 l 1,37,-1
76 258 m 1,41,-1
 141 258 l 1,42,-1
 76 258 l 1,41,-1
76 218 m 1,43,-1
 141 218 l 1,44,-1
 76 218 l 1,43,-1
141 27 m 1,45,-1
 76 27 l 1,46,-1
 141 27 l 1,45,-1
76 -13 m 1,47,-1
 76 58 l 1,48,-1
 141 58 l 1,49,-1
 141 -13 l 1,50,-1
 76 -13 l 1,47,-1
EndSplineSet
EndChar

StartChar: comma
Encoding: 44 44 5
Width: 214
GlyphClass: 2
Flags: W
LayerCount: 2
Fore
SplineSet
111 -13 m 5,0,-1
 111 61 l 5,1,-1
 111 -13 l 5,0,-1
76 107 m 5,2,-1
 76 178 l 5,3,-1
 141 178 l 5,4,-1
 141 107 l 5,5,-1
 76 107 l 5,2,-1
76 67 m 5,6,-1
 76 138 l 5,7,-1
 141 138 l 5,8,-1
 141 67 l 5,9,-1
 76 67 l 5,6,-1
76 27 m 5,10,-1
 76 98 l 5,11,-1
 141 98 l 5,12,-1
 141 27 l 5,13,-1
 76 27 l 5,10,-1
76 -13 m 5,14,-1
 76 58 l 5,15,-1
 141 58 l 5,16,-1
 141 -13 l 5,17,-1
 76 -13 l 5,14,-1
106 61 m 5,18,-1
 106 -13 l 5,19,-1
 106 61 l 5,18,-1
EndSplineSet
EndChar

StartChar: hyphen
Encoding: 45 45 6
Width: 776
GlyphClass: 2
Flags: W
LayerCount: 2
Fore
SplineSet
705 387 m 1,0,-1
 640 387 l 1,1,-1
 705 387 l 1,0,-1
705 347 m 1,2,-1
 640 347 l 1,3,-1
 705 347 l 1,2,-1
640 307 m 1,4,-1
 640 378 l 1,5,-1
 705 378 l 1,6,-1
 705 307 l 1,7,-1
 640 307 l 1,4,-1
375 307 m 1,8,-1
 375 381 l 1,9,-1
 670 381 l 1,10,-1
 670 307 l 1,11,-1
 375 307 l 1,8,-1
340 307 m 1,12,-1
 340 378 l 1,13,-1
 405 378 l 1,14,-1
 405 307 l 1,15,-1
 340 307 l 1,12,-1
75 307 m 1,16,-1
 75 381 l 1,17,-1
 370 381 l 1,18,-1
 370 307 l 1,19,-1
 75 307 l 1,16,-1
EndSplineSet
EndChar

StartChar: period
Encoding: 46 46 7
Width: 212
GlyphClass: 2
Flags: W
LayerCount: 2
Fore
SplineSet
110 -13 m 1,0,-1
 110 61 l 1,1,-1
 110 -13 l 1,0,-1
140 67 m 1,2,-1
 75 67 l 1,3,-1
 140 67 l 1,2,-1
140 27 m 1,4,-1
 75 27 l 1,5,-1
 140 27 l 1,4,-1
75 -13 m 1,6,-1
 75 58 l 1,7,-1
 140 58 l 1,8,-1
 140 -13 l 1,9,-1
 75 -13 l 1,6,-1
105 61 m 1,10,-1
 105 -13 l 1,11,-1
 105 61 l 1,10,-1
EndSplineSet
EndChar

StartChar: zero
Encoding: 48 48 8
Width: 815
GlyphClass: 2
Flags: W
LayerCount: 2
Fore
SplineSet
675 547 m 1,0,-1
 675 618 l 1,1,-1
 740 618 l 1,2,-1
 740 547 l 1,3,-1
 675 547 l 1,0,-1
675 507 m 1,4,-1
 675 578 l 1,5,-1
 740 578 l 1,6,-1
 740 507 l 1,7,-1
 675 507 l 1,4,-1
675 467 m 1,8,-1
 675 538 l 1,9,-1
 740 538 l 1,10,-1
 740 467 l 1,11,-1
 675 467 l 1,8,-1
410 587 m 1,12,-1
 410 661 l 1,13,-1
 705 661 l 1,14,-1
 705 587 l 1,15,-1
 410 587 l 1,12,-1
675 427 m 1,16,-1
 675 498 l 1,17,-1
 740 498 l 1,18,-1
 740 427 l 1,19,-1
 675 427 l 1,16,-1
675 387 m 1,20,-1
 675 458 l 1,21,-1
 740 458 l 1,22,-1
 740 387 l 1,23,-1
 675 387 l 1,20,-1
675 347 m 1,24,-1
 675 418 l 1,25,-1
 740 418 l 1,26,-1
 740 347 l 1,27,-1
 675 347 l 1,24,-1
675 307 m 1,28,-1
 675 378 l 1,29,-1
 740 378 l 1,30,-1
 740 307 l 1,31,-1
 675 307 l 1,28,-1
375 587 m 1,32,-1
 375 658 l 1,33,-1
 440 658 l 1,34,-1
 440 587 l 1,35,-1
 375 587 l 1,32,-1
675 267 m 1,36,-1
 675 338 l 1,37,-1
 740 338 l 1,38,-1
 740 267 l 1,39,-1
 675 267 l 1,36,-1
675 227 m 1,40,-1
 675 298 l 1,41,-1
 740 298 l 1,42,-1
 740 227 l 1,43,-1
 675 227 l 1,40,-1
675 187 m 1,44,-1
 675 258 l 1,45,-1
 740 258 l 1,46,-1
 740 187 l 1,47,-1
 675 187 l 1,44,-1
675 147 m 1,48,-1
 675 218 l 1,49,-1
 740 218 l 1,50,-1
 740 147 l 1,51,-1
 675 147 l 1,48,-1
110 587 m 1,52,-1
 110 661 l 1,53,-1
 405 661 l 1,54,-1
 405 587 l 1,55,-1
 110 587 l 1,52,-1
675 107 m 1,56,-1
 675 178 l 1,57,-1
 740 178 l 1,58,-1
 740 107 l 1,59,-1
 675 107 l 1,56,-1
675 67 m 1,60,-1
 675 138 l 1,61,-1
 740 138 l 1,62,-1
 740 67 l 1,63,-1
 675 67 l 1,60,-1
675 27 m 1,64,-1
 675 98 l 1,65,-1
 740 98 l 1,66,-1
 740 27 l 1,67,-1
 675 27 l 1,64,-1
75 547 m 1,68,-1
 75 618 l 1,69,-1
 140 618 l 1,70,-1
 140 547 l 1,71,-1
 75 547 l 1,68,-1
75 507 m 1,72,-1
 75 578 l 1,73,-1
 140 578 l 1,74,-1
 140 507 l 1,75,-1
 75 507 l 1,72,-1
75 467 m 1,76,-1
 75 538 l 1,77,-1
 140 538 l 1,78,-1
 140 467 l 1,79,-1
 75 467 l 1,76,-1
410 -13 m 1,80,-1
 410 61 l 1,81,-1
 705 61 l 1,82,-1
 705 -13 l 1,83,-1
 410 -13 l 1,80,-1
75 427 m 1,84,-1
 75 498 l 1,85,-1
 140 498 l 1,86,-1
 140 427 l 1,87,-1
 75 427 l 1,84,-1
75 387 m 1,88,-1
 75 458 l 1,89,-1
 140 458 l 1,90,-1
 140 387 l 1,91,-1
 75 387 l 1,88,-1
75 347 m 1,92,-1
 75 418 l 1,93,-1
 140 418 l 1,94,-1
 140 347 l 1,95,-1
 75 347 l 1,92,-1
75 307 m 1,96,-1
 75 378 l 1,97,-1
 140 378 l 1,98,-1
 140 307 l 1,99,-1
 75 307 l 1,96,-1
375 -13 m 1,100,-1
 375 58 l 1,101,-1
 440 58 l 1,102,-1
 440 -13 l 1,103,-1
 375 -13 l 1,100,-1
75 267 m 1,104,-1
 75 338 l 1,105,-1
 140 338 l 1,106,-1
 140 267 l 1,107,-1
 75 267 l 1,104,-1
75 227 m 1,108,-1
 75 298 l 1,109,-1
 140 298 l 1,110,-1
 140 227 l 1,111,-1
 75 227 l 1,108,-1
75 187 m 1,112,-1
 75 258 l 1,113,-1
 140 258 l 1,114,-1
 140 187 l 1,115,-1
 75 187 l 1,112,-1
75 147 m 1,116,-1
 75 218 l 1,117,-1
 140 218 l 1,118,-1
 140 147 l 1,119,-1
 75 147 l 1,116,-1
110 -13 m 1,120,-1
 110 61 l 1,121,-1
 405 61 l 1,122,-1
 405 -13 l 1,123,-1
 110 -13 l 1,120,-1
75 107 m 1,124,-1
 75 178 l 1,125,-1
 140 178 l 1,126,-1
 140 107 l 1,127,-1
 75 107 l 1,124,-1
75 67 m 1,128,-1
 75 138 l 1,129,-1
 140 138 l 1,130,-1
 140 67 l 1,131,-1
 75 67 l 1,128,-1
75 27 m 1,132,-1
 75 98 l 1,133,-1
 140 98 l 1,134,-1
 140 27 l 1,135,-1
 75 27 l 1,132,-1
EndSplineSet
EndChar

StartChar: one
Encoding: 49 49 9
Width: 803
GlyphClass: 2
Flags: W
LayerCount: 2
Fore
SplineSet
371 587 m 1,0,-1
 371 658 l 1,1,-1
 436 658 l 1,2,-1
 436 587 l 1,3,-1
 371 587 l 1,0,-1
371 547 m 1,4,-1
 371 618 l 1,5,-1
 436 618 l 1,6,-1
 436 547 l 1,7,-1
 371 547 l 1,4,-1
371 507 m 1,8,-1
 371 578 l 1,9,-1
 436 578 l 1,10,-1
 436 507 l 1,11,-1
 371 507 l 1,8,-1
371 467 m 1,12,-1
 371 538 l 1,13,-1
 436 538 l 1,14,-1
 436 467 l 1,15,-1
 371 467 l 1,12,-1
106 587 m 1,16,-1
 106 661 l 1,17,-1
 401 661 l 1,18,-1
 401 587 l 1,19,-1
 106 587 l 1,16,-1
371 427 m 1,20,-1
 371 498 l 1,21,-1
 436 498 l 1,22,-1
 436 427 l 1,23,-1
 371 427 l 1,20,-1
371 387 m 1,24,-1
 371 458 l 1,25,-1
 436 458 l 1,26,-1
 436 387 l 1,27,-1
 371 387 l 1,24,-1
371 347 m 1,28,-1
 371 418 l 1,29,-1
 436 418 l 1,30,-1
 436 347 l 1,31,-1
 371 347 l 1,28,-1
371 307 m 1,32,-1
 371 378 l 1,33,-1
 436 378 l 1,34,-1
 436 307 l 1,35,-1
 371 307 l 1,32,-1
71 587 m 1,36,-1
 71 658 l 1,37,-1
 136 658 l 1,38,-1
 136 587 l 1,39,-1
 71 587 l 1,36,-1
671 -13 m 1,40,-1
 671 58 l 1,41,-1
 736 58 l 1,42,-1
 736 -13 l 1,43,-1
 671 -13 l 1,40,-1
371 267 m 1,44,-1
 371 338 l 1,45,-1
 436 338 l 1,46,-1
 436 267 l 1,47,-1
 371 267 l 1,44,-1
371 227 m 1,48,-1
 371 298 l 1,49,-1
 436 298 l 1,50,-1
 436 227 l 1,51,-1
 371 227 l 1,48,-1
371 187 m 1,52,-1
 371 258 l 1,53,-1
 436 258 l 1,54,-1
 436 187 l 1,55,-1
 371 187 l 1,52,-1
371 147 m 1,56,-1
 371 218 l 1,57,-1
 436 218 l 1,58,-1
 436 147 l 1,59,-1
 371 147 l 1,56,-1
406 -13 m 1,60,-1
 406 61 l 1,61,-1
 701 61 l 1,62,-1
 701 -13 l 1,63,-1
 406 -13 l 1,60,-1
371 107 m 1,64,-1
 371 178 l 1,65,-1
 436 178 l 1,66,-1
 436 107 l 1,67,-1
 371 107 l 1,64,-1
371 67 m 1,68,-1
 371 138 l 1,69,-1
 436 138 l 1,70,-1
 436 67 l 1,71,-1
 371 67 l 1,68,-1
371 27 m 1,72,-1
 371 98 l 1,73,-1
 436 98 l 1,74,-1
 436 27 l 1,75,-1
 371 27 l 1,72,-1
371 -13 m 1,76,-1
 371 58 l 1,77,-1
 436 58 l 1,78,-1
 436 -13 l 1,79,-1
 371 -13 l 1,76,-1
106 -13 m 1,80,-1
 106 61 l 1,81,-1
 401 61 l 1,82,-1
 401 -13 l 1,83,-1
 106 -13 l 1,80,-1
71 -13 m 1,84,-1
 71 58 l 1,85,-1
 136 58 l 1,86,-1
 136 -13 l 1,87,-1
 71 -13 l 1,84,-1
EndSplineSet
EndChar

StartChar: two
Encoding: 50 50 10
Width: 815
GlyphClass: 2
Flags: W
LayerCount: 2
Fore
SplineSet
675 547 m 1,0,-1
 675 618 l 1,1,-1
 740 618 l 1,2,-1
 740 547 l 1,3,-1
 675 547 l 1,0,-1
675 507 m 1,4,-1
 675 578 l 1,5,-1
 740 578 l 1,6,-1
 740 507 l 1,7,-1
 675 507 l 1,4,-1
675 467 m 1,8,-1
 675 538 l 1,9,-1
 740 538 l 1,10,-1
 740 467 l 1,11,-1
 675 467 l 1,8,-1
410 587 m 1,12,-1
 410 661 l 1,13,-1
 705 661 l 1,14,-1
 705 587 l 1,15,-1
 410 587 l 1,12,-1
675 427 m 1,16,-1
 675 498 l 1,17,-1
 740 498 l 1,18,-1
 740 427 l 1,19,-1
 675 427 l 1,16,-1
675 387 m 1,20,-1
 675 458 l 1,21,-1
 740 458 l 1,22,-1
 740 387 l 1,23,-1
 675 387 l 1,20,-1
675 347 m 1,24,-1
 675 418 l 1,25,-1
 740 418 l 1,26,-1
 740 347 l 1,27,-1
 675 347 l 1,24,-1
675 307 m 1,28,-1
 675 378 l 1,29,-1
 740 378 l 1,30,-1
 740 307 l 1,31,-1
 675 307 l 1,28,-1
375 587 m 1,32,-1
 375 658 l 1,33,-1
 440 658 l 1,34,-1
 440 587 l 1,35,-1
 375 587 l 1,32,-1
410 307 m 1,36,-1
 410 381 l 1,37,-1
 705 381 l 1,38,-1
 705 307 l 1,39,-1
 410 307 l 1,36,-1
110 587 m 1,40,-1
 110 661 l 1,41,-1
 405 661 l 1,42,-1
 405 587 l 1,43,-1
 110 587 l 1,40,-1
375 307 m 1,44,-1
 375 378 l 1,45,-1
 440 378 l 1,46,-1
 440 307 l 1,47,-1
 375 307 l 1,44,-1
75 587 m 1,48,-1
 75 658 l 1,49,-1
 140 658 l 1,50,-1
 140 587 l 1,51,-1
 75 587 l 1,48,-1
675 -13 m 1,52,-1
 675 58 l 1,53,-1
 740 58 l 1,54,-1
 740 -13 l 1,55,-1
 675 -13 l 1,52,-1
110 307 m 1,56,-1
 110 381 l 1,57,-1
 405 381 l 1,58,-1
 405 307 l 1,59,-1
 110 307 l 1,56,-1
410 -13 m 1,60,-1
 410 61 l 1,61,-1
 705 61 l 1,62,-1
 705 -13 l 1,63,-1
 410 -13 l 1,60,-1
375 -13 m 1,64,-1
 375 58 l 1,65,-1
 440 58 l 1,66,-1
 440 -13 l 1,67,-1
 375 -13 l 1,64,-1
75 267 m 1,68,-1
 75 338 l 1,69,-1
 140 338 l 1,70,-1
 140 267 l 1,71,-1
 75 267 l 1,68,-1
75 227 m 1,72,-1
 75 298 l 1,73,-1
 140 298 l 1,74,-1
 140 227 l 1,75,-1
 75 227 l 1,72,-1
75 187 m 1,76,-1
 75 258 l 1,77,-1
 140 258 l 1,78,-1
 140 187 l 1,79,-1
 75 187 l 1,76,-1
75 147 m 1,80,-1
 75 218 l 1,81,-1
 140 218 l 1,82,-1
 140 147 l 1,83,-1
 75 147 l 1,80,-1
110 -13 m 1,84,-1
 110 61 l 1,85,-1
 405 61 l 1,86,-1
 405 -13 l 1,87,-1
 110 -13 l 1,84,-1
75 107 m 1,88,-1
 75 178 l 1,89,-1
 140 178 l 1,90,-1
 140 107 l 1,91,-1
 75 107 l 1,88,-1
75 67 m 1,92,-1
 75 138 l 1,93,-1
 140 138 l 1,94,-1
 140 67 l 1,95,-1
 75 67 l 1,92,-1
75 27 m 1,96,-1
 75 98 l 1,97,-1
 140 98 l 1,98,-1
 140 27 l 1,99,-1
 75 27 l 1,96,-1
75 -13 m 1,100,-1
 75 58 l 1,101,-1
 140 58 l 1,102,-1
 140 -13 l 1,103,-1
 75 -13 l 1,100,-1
EndSplineSet
EndChar

StartChar: three
Encoding: 51 51 11
Width: 811
GlyphClass: 2
Flags: W
LayerCount: 2
Fore
SplineSet
671 547 m 1,0,-1
 671 618 l 1,1,-1
 736 618 l 1,2,-1
 736 547 l 1,3,-1
 671 547 l 1,0,-1
671 507 m 1,4,-1
 671 578 l 1,5,-1
 736 578 l 1,6,-1
 736 507 l 1,7,-1
 671 507 l 1,4,-1
671 467 m 1,8,-1
 671 538 l 1,9,-1
 736 538 l 1,10,-1
 736 467 l 1,11,-1
 671 467 l 1,8,-1
406 587 m 1,12,-1
 406 661 l 1,13,-1
 701 661 l 1,14,-1
 701 587 l 1,15,-1
 406 587 l 1,12,-1
671 427 m 1,16,-1
 671 498 l 1,17,-1
 736 498 l 1,18,-1
 736 427 l 1,19,-1
 671 427 l 1,16,-1
671 387 m 1,20,-1
 671 458 l 1,21,-1
 736 458 l 1,22,-1
 736 387 l 1,23,-1
 671 387 l 1,20,-1
671 347 m 1,24,-1
 671 418 l 1,25,-1
 736 418 l 1,26,-1
 736 347 l 1,27,-1
 671 347 l 1,24,-1
671 307 m 1,28,-1
 671 378 l 1,29,-1
 736 378 l 1,30,-1
 736 307 l 1,31,-1
 671 307 l 1,28,-1
371 587 m 1,32,-1
 371 658 l 1,33,-1
 436 658 l 1,34,-1
 436 587 l 1,35,-1
 371 587 l 1,32,-1
671 267 m 1,36,-1
 671 338 l 1,37,-1
 736 338 l 1,38,-1
 736 267 l 1,39,-1
 671 267 l 1,36,-1
671 227 m 1,40,-1
 671 298 l 1,41,-1
 736 298 l 1,42,-1
 736 227 l 1,43,-1
 671 227 l 1,40,-1
671 187 m 1,44,-1
 671 258 l 1,45,-1
 736 258 l 1,46,-1
 736 187 l 1,47,-1
 671 187 l 1,44,-1
406 307 m 1,48,-1
 406 381 l 1,49,-1
 701 381 l 1,50,-1
 701 307 l 1,51,-1
 406 307 l 1,48,-1
671 147 m 1,52,-1
 671 218 l 1,53,-1
 736 218 l 1,54,-1
 736 147 l 1,55,-1
 671 147 l 1,52,-1
106 587 m 1,56,-1
 106 661 l 1,57,-1
 401 661 l 1,58,-1
 401 587 l 1,59,-1
 106 587 l 1,56,-1
671 107 m 1,60,-1
 671 178 l 1,61,-1
 736 178 l 1,62,-1
 736 107 l 1,63,-1
 671 107 l 1,60,-1
671 67 m 1,64,-1
 671 138 l 1,65,-1
 736 138 l 1,66,-1
 736 67 l 1,67,-1
 671 67 l 1,64,-1
671 27 m 1,68,-1
 671 98 l 1,69,-1
 736 98 l 1,70,-1
 736 27 l 1,71,-1
 671 27 l 1,68,-1
371 307 m 1,72,-1
 371 378 l 1,73,-1
 436 378 l 1,74,-1
 436 307 l 1,75,-1
 371 307 l 1,72,-1
71 587 m 1,76,-1
 71 658 l 1,77,-1
 136 658 l 1,78,-1
 136 587 l 1,79,-1
 71 587 l 1,76,-1
106 307 m 1,80,-1
 106 381 l 1,81,-1
 401 381 l 1,82,-1
 401 307 l 1,83,-1
 106 307 l 1,80,-1
406 -13 m 1,84,-1
 406 61 l 1,85,-1
 701 61 l 1,86,-1
 701 -13 l 1,87,-1
 406 -13 l 1,84,-1
371 -13 m 1,88,-1
 371 58 l 1,89,-1
 436 58 l 1,90,-1
 436 -13 l 1,91,-1
 371 -13 l 1,88,-1
106 -13 m 1,92,-1
 106 61 l 1,93,-1
 401 61 l 1,94,-1
 401 -13 l 1,95,-1
 106 -13 l 1,92,-1
71 -13 m 1,96,-1
 71 58 l 1,97,-1
 136 58 l 1,98,-1
 136 -13 l 1,99,-1
 71 -13 l 1,96,-1
EndSplineSet
EndChar

StartChar: four
Encoding: 52 52 12
Width: 811
GlyphClass: 2
Flags: W
LayerCount: 2
Fore
SplineSet
671 587 m 1,0,-1
 671 658 l 1,1,-1
 736 658 l 1,2,-1
 736 587 l 1,3,-1
 671 587 l 1,0,-1
671 547 m 1,4,-1
 671 618 l 1,5,-1
 736 618 l 1,6,-1
 736 547 l 1,7,-1
 671 547 l 1,4,-1
671 507 m 1,8,-1
 671 578 l 1,9,-1
 736 578 l 1,10,-1
 736 507 l 1,11,-1
 671 507 l 1,8,-1
671 467 m 1,12,-1
 671 538 l 1,13,-1
 736 538 l 1,14,-1
 736 467 l 1,15,-1
 671 467 l 1,12,-1
671 427 m 1,16,-1
 671 498 l 1,17,-1
 736 498 l 1,18,-1
 736 427 l 1,19,-1
 671 427 l 1,16,-1
671 387 m 1,20,-1
 671 458 l 1,21,-1
 736 458 l 1,22,-1
 736 387 l 1,23,-1
 671 387 l 1,20,-1
671 347 m 1,24,-1
 671 418 l 1,25,-1
 736 418 l 1,26,-1
 736 347 l 1,27,-1
 671 347 l 1,24,-1
671 307 m 1,28,-1
 671 378 l 1,29,-1
 736 378 l 1,30,-1
 736 307 l 1,31,-1
 671 307 l 1,28,-1
671 267 m 1,32,-1
 671 338 l 1,33,-1
 736 338 l 1,34,-1
 736 267 l 1,35,-1
 671 267 l 1,32,-1
671 227 m 1,36,-1
 671 298 l 1,37,-1
 736 298 l 1,38,-1
 736 227 l 1,39,-1
 671 227 l 1,36,-1
671 187 m 1,40,-1
 671 258 l 1,41,-1
 736 258 l 1,42,-1
 736 187 l 1,43,-1
 671 187 l 1,40,-1
406 307 m 1,44,-1
 406 381 l 1,45,-1
 701 381 l 1,46,-1
 701 307 l 1,47,-1
 406 307 l 1,44,-1
671 147 m 1,48,-1
 671 218 l 1,49,-1
 736 218 l 1,50,-1
 736 147 l 1,51,-1
 671 147 l 1,48,-1
671 107 m 1,52,-1
 671 178 l 1,53,-1
 736 178 l 1,54,-1
 736 107 l 1,55,-1
 671 107 l 1,52,-1
671 67 m 1,56,-1
 671 138 l 1,57,-1
 736 138 l 1,58,-1
 736 67 l 1,59,-1
 671 67 l 1,56,-1
671 27 m 1,60,-1
 671 98 l 1,61,-1
 736 98 l 1,62,-1
 736 27 l 1,63,-1
 671 27 l 1,60,-1
371 307 m 1,64,-1
 371 378 l 1,65,-1
 436 378 l 1,66,-1
 436 307 l 1,67,-1
 371 307 l 1,64,-1
71 587 m 1,68,-1
 71 658 l 1,69,-1
 136 658 l 1,70,-1
 136 587 l 1,71,-1
 71 587 l 1,68,-1
671 -13 m 1,72,-1
 671 58 l 1,73,-1
 736 58 l 1,74,-1
 736 -13 l 1,75,-1
 671 -13 l 1,72,-1
71 547 m 1,76,-1
 71 618 l 1,77,-1
 136 618 l 1,78,-1
 136 547 l 1,79,-1
 71 547 l 1,76,-1
71 507 m 1,80,-1
 71 578 l 1,81,-1
 136 578 l 1,82,-1
 136 507 l 1,83,-1
 71 507 l 1,80,-1
71 467 m 1,84,-1
 71 538 l 1,85,-1
 136 538 l 1,86,-1
 136 467 l 1,87,-1
 71 467 l 1,84,-1
106 307 m 1,88,-1
 106 381 l 1,89,-1
 401 381 l 1,90,-1
 401 307 l 1,91,-1
 106 307 l 1,88,-1
71 427 m 1,92,-1
 71 498 l 1,93,-1
 136 498 l 1,94,-1
 136 427 l 1,95,-1
 71 427 l 1,92,-1
71 387 m 1,96,-1
 71 458 l 1,97,-1
 136 458 l 1,98,-1
 136 387 l 1,99,-1
 71 387 l 1,96,-1
71 347 m 1,100,-1
 71 418 l 1,101,-1
 136 418 l 1,102,-1
 136 347 l 1,103,-1
 71 347 l 1,100,-1
71 307 m 1,104,-1
 71 378 l 1,105,-1
 136 378 l 1,106,-1
 136 307 l 1,107,-1
 71 307 l 1,104,-1
EndSplineSet
EndChar

StartChar: five
Encoding: 53 53 13
Width: 815
GlyphClass: 2
Flags: W
LayerCount: 2
Fore
SplineSet
675 587 m 1,0,-1
 675 658 l 1,1,-1
 740 658 l 1,2,-1
 740 587 l 1,3,-1
 675 587 l 1,0,-1
410 587 m 1,4,-1
 410 661 l 1,5,-1
 705 661 l 1,6,-1
 705 587 l 1,7,-1
 410 587 l 1,4,-1
693 609 m 1,8,-1
 693 584 l 1,9,-1
 423 584 l 1,10,-1
 423 609 l 1,11,-1
 693 609 l 1,8,-1
375 587 m 1,12,-1
 375 658 l 1,13,-1
 440 658 l 1,14,-1
 440 587 l 1,15,-1
 375 587 l 1,12,-1
675 267 m 1,16,-1
 675 338 l 1,17,-1
 740 338 l 1,18,-1
 740 267 l 1,19,-1
 675 267 l 1,16,-1
675 227 m 1,20,-1
 675 298 l 1,21,-1
 740 298 l 1,22,-1
 740 227 l 1,23,-1
 675 227 l 1,20,-1
675 187 m 1,24,-1
 675 258 l 1,25,-1
 740 258 l 1,26,-1
 740 187 l 1,27,-1
 675 187 l 1,24,-1
410 307 m 1,28,-1
 410 381 l 1,29,-1
 705 381 l 1,30,-1
 705 307 l 1,31,-1
 410 307 l 1,28,-1
675 147 m 1,32,-1
 675 218 l 1,33,-1
 740 218 l 1,34,-1
 740 147 l 1,35,-1
 675 147 l 1,32,-1
110 587 m 1,36,-1
 110 661 l 1,37,-1
 405 661 l 1,38,-1
 405 587 l 1,39,-1
 110 587 l 1,36,-1
393 609 m 1,40,-1
 393 584 l 1,41,-1
 123 584 l 1,42,-1
 123 609 l 1,43,-1
 393 609 l 1,40,-1
675 107 m 1,44,-1
 675 178 l 1,45,-1
 740 178 l 1,46,-1
 740 107 l 1,47,-1
 675 107 l 1,44,-1
675 67 m 1,48,-1
 675 138 l 1,49,-1
 740 138 l 1,50,-1
 740 67 l 1,51,-1
 675 67 l 1,48,-1
675 27 m 1,52,-1
 675 98 l 1,53,-1
 740 98 l 1,54,-1
 740 27 l 1,55,-1
 675 27 l 1,52,-1
375 307 m 1,56,-1
 375 378 l 1,57,-1
 440 378 l 1,58,-1
 440 307 l 1,59,-1
 375 307 l 1,56,-1
75 587 m 1,60,-1
 75 658 l 1,61,-1
 140 658 l 1,62,-1
 140 587 l 1,63,-1
 75 587 l 1,60,-1
675 -13 m 1,64,-1
 675 58 l 1,65,-1
 740 58 l 1,66,-1
 740 -13 l 1,67,-1
 675 -13 l 1,64,-1
75 547 m 1,68,-1
 75 618 l 1,69,-1
 140 618 l 1,70,-1
 140 547 l 1,71,-1
 75 547 l 1,68,-1
75 507 m 1,72,-1
 75 578 l 1,73,-1
 140 578 l 1,74,-1
 140 507 l 1,75,-1
 75 507 l 1,72,-1
75 467 m 1,76,-1
 75 538 l 1,77,-1
 140 538 l 1,78,-1
 140 467 l 1,79,-1
 75 467 l 1,76,-1
110 307 m 1,80,-1
 110 381 l 1,81,-1
 405 381 l 1,82,-1
 405 307 l 1,83,-1
 110 307 l 1,80,-1
410 -13 m 1,84,-1
 410 61 l 1,85,-1
 705 61 l 1,86,-1
 705 -13 l 1,87,-1
 410 -13 l 1,84,-1
75 427 m 1,88,-1
 75 498 l 1,89,-1
 140 498 l 1,90,-1
 140 427 l 1,91,-1
 75 427 l 1,88,-1
75 387 m 1,92,-1
 75 458 l 1,93,-1
 140 458 l 1,94,-1
 140 387 l 1,95,-1
 75 387 l 1,92,-1
75 347 m 1,96,-1
 75 418 l 1,97,-1
 140 418 l 1,98,-1
 140 347 l 1,99,-1
 75 347 l 1,96,-1
75 307 m 1,100,-1
 75 378 l 1,101,-1
 140 378 l 1,102,-1
 140 307 l 1,103,-1
 75 307 l 1,100,-1
375 -13 m 1,104,-1
 375 58 l 1,105,-1
 440 58 l 1,106,-1
 440 -13 l 1,107,-1
 375 -13 l 1,104,-1
110 -13 m 1,108,-1
 110 61 l 1,109,-1
 405 61 l 1,110,-1
 405 -13 l 1,111,-1
 110 -13 l 1,108,-1
75 -13 m 1,112,-1
 75 58 l 1,113,-1
 140 58 l 1,114,-1
 140 -13 l 1,115,-1
 75 -13 l 1,112,-1
EndSplineSet
EndChar

StartChar: six
Encoding: 54 54 14
Width: 815
GlyphClass: 2
Flags: W
LayerCount: 2
Fore
SplineSet
675 587 m 1,0,-1
 675 658 l 1,1,-1
 740 658 l 1,2,-1
 740 587 l 1,3,-1
 675 587 l 1,0,-1
410 587 m 1,4,-1
 410 661 l 1,5,-1
 705 661 l 1,6,-1
 705 587 l 1,7,-1
 410 587 l 1,4,-1
375 587 m 1,8,-1
 375 658 l 1,9,-1
 440 658 l 1,10,-1
 440 587 l 1,11,-1
 375 587 l 1,8,-1
675 267 m 1,12,-1
 675 338 l 1,13,-1
 740 338 l 1,14,-1
 740 267 l 1,15,-1
 675 267 l 1,12,-1
675 227 m 1,16,-1
 675 298 l 1,17,-1
 740 298 l 1,18,-1
 740 227 l 1,19,-1
 675 227 l 1,16,-1
675 187 m 1,20,-1
 675 258 l 1,21,-1
 740 258 l 1,22,-1
 740 187 l 1,23,-1
 675 187 l 1,20,-1
410 307 m 1,24,-1
 410 381 l 1,25,-1
 705 381 l 1,26,-1
 705 307 l 1,27,-1
 410 307 l 1,24,-1
675 147 m 1,28,-1
 675 218 l 1,29,-1
 740 218 l 1,30,-1
 740 147 l 1,31,-1
 675 147 l 1,28,-1
110 587 m 1,32,-1
 110 661 l 1,33,-1
 405 661 l 1,34,-1
 405 587 l 1,35,-1
 110 587 l 1,32,-1
675 107 m 1,36,-1
 675 178 l 1,37,-1
 740 178 l 1,38,-1
 740 107 l 1,39,-1
 675 107 l 1,36,-1
675 67 m 1,40,-1
 675 138 l 1,41,-1
 740 138 l 1,42,-1
 740 67 l 1,43,-1
 675 67 l 1,40,-1
675 27 m 1,44,-1
 675 98 l 1,45,-1
 740 98 l 1,46,-1
 740 27 l 1,47,-1
 675 27 l 1,44,-1
375 307 m 1,48,-1
 375 378 l 1,49,-1
 440 378 l 1,50,-1
 440 307 l 1,51,-1
 375 307 l 1,48,-1
75 547 m 1,52,-1
 75 618 l 1,53,-1
 140 618 l 1,54,-1
 140 547 l 1,55,-1
 75 547 l 1,52,-1
75 507 m 1,56,-1
 75 578 l 1,57,-1
 140 578 l 1,58,-1
 140 507 l 1,59,-1
 75 507 l 1,56,-1
75 467 m 1,60,-1
 75 538 l 1,61,-1
 140 538 l 1,62,-1
 140 467 l 1,63,-1
 75 467 l 1,60,-1
110 307 m 1,64,-1
 110 381 l 1,65,-1
 405 381 l 1,66,-1
 405 307 l 1,67,-1
 110 307 l 1,64,-1
410 -13 m 1,68,-1
 410 61 l 1,69,-1
 705 61 l 1,70,-1
 705 -13 l 1,71,-1
 410 -13 l 1,68,-1
75 427 m 1,72,-1
 75 498 l 1,73,-1
 140 498 l 1,74,-1
 140 427 l 1,75,-1
 75 427 l 1,72,-1
75 387 m 1,76,-1
 75 458 l 1,77,-1
 140 458 l 1,78,-1
 140 387 l 1,79,-1
 75 387 l 1,76,-1
75 347 m 1,80,-1
 75 418 l 1,81,-1
 140 418 l 1,82,-1
 140 347 l 1,83,-1
 75 347 l 1,80,-1
75 307 m 1,84,-1
 75 378 l 1,85,-1
 140 378 l 1,86,-1
 140 307 l 1,87,-1
 75 307 l 1,84,-1
375 -13 m 1,88,-1
 375 58 l 1,89,-1
 440 58 l 1,90,-1
 440 -13 l 1,91,-1
 375 -13 l 1,88,-1
75 267 m 1,92,-1
 75 338 l 1,93,-1
 140 338 l 1,94,-1
 140 267 l 1,95,-1
 75 267 l 1,92,-1
75 227 m 1,96,-1
 75 298 l 1,97,-1
 140 298 l 1,98,-1
 140 227 l 1,99,-1
 75 227 l 1,96,-1
75 187 m 1,100,-1
 75 258 l 1,101,-1
 140 258 l 1,102,-1
 140 187 l 1,103,-1
 75 187 l 1,100,-1
75 147 m 1,104,-1
 75 218 l 1,105,-1
 140 218 l 1,106,-1
 140 147 l 1,107,-1
 75 147 l 1,104,-1
110 -13 m 1,108,-1
 110 61 l 1,109,-1
 405 61 l 1,110,-1
 405 -13 l 1,111,-1
 110 -13 l 1,108,-1
75 107 m 1,112,-1
 75 178 l 1,113,-1
 140 178 l 1,114,-1
 140 107 l 1,115,-1
 75 107 l 1,112,-1
75 67 m 1,116,-1
 75 138 l 1,117,-1
 140 138 l 1,118,-1
 140 67 l 1,119,-1
 75 67 l 1,116,-1
75 27 m 1,120,-1
 75 98 l 1,121,-1
 140 98 l 1,122,-1
 140 27 l 1,123,-1
 75 27 l 1,120,-1
75 -13 m 1,124,-1
 75 58 l 1,125,-1
 140 58 l 1,126,-1
 140 -13 l 1,127,-1
 75 -13 l 1,124,-1
EndSplineSet
EndChar

StartChar: seven
Encoding: 55 55 15
Width: 805
GlyphClass: 2
Flags: W
LayerCount: 2
Fore
SplineSet
665 587 m 1,0,-1
 665 658 l 1,1,-1
 730 658 l 1,2,-1
 730 587 l 1,3,-1
 665 587 l 1,0,-1
665 547 m 1,4,-1
 665 618 l 1,5,-1
 730 618 l 1,6,-1
 730 547 l 1,7,-1
 665 547 l 1,4,-1
665 507 m 1,8,-1
 665 578 l 1,9,-1
 730 578 l 1,10,-1
 730 507 l 1,11,-1
 665 507 l 1,8,-1
665 467 m 1,12,-1
 665 538 l 1,13,-1
 730 538 l 1,14,-1
 730 467 l 1,15,-1
 665 467 l 1,12,-1
400 587 m 1,16,-1
 400 661 l 1,17,-1
 695 661 l 1,18,-1
 695 587 l 1,19,-1
 400 587 l 1,16,-1
665 427 m 1,20,-1
 665 498 l 1,21,-1
 730 498 l 1,22,-1
 730 427 l 1,23,-1
 665 427 l 1,20,-1
665 387 m 1,24,-1
 665 458 l 1,25,-1
 730 458 l 1,26,-1
 730 387 l 1,27,-1
 665 387 l 1,24,-1
665 347 m 1,28,-1
 665 418 l 1,29,-1
 730 418 l 1,30,-1
 730 347 l 1,31,-1
 665 347 l 1,28,-1
665 307 m 1,32,-1
 665 378 l 1,33,-1
 730 378 l 1,34,-1
 730 307 l 1,35,-1
 665 307 l 1,32,-1
365 587 m 1,36,-1
 365 658 l 1,37,-1
 430 658 l 1,38,-1
 430 587 l 1,39,-1
 365 587 l 1,36,-1
665 267 m 1,40,-1
 665 338 l 1,41,-1
 730 338 l 1,42,-1
 730 267 l 1,43,-1
 665 267 l 1,40,-1
665 227 m 1,44,-1
 665 298 l 1,45,-1
 730 298 l 1,46,-1
 730 227 l 1,47,-1
 665 227 l 1,44,-1
665 187 m 1,48,-1
 665 258 l 1,49,-1
 730 258 l 1,50,-1
 730 187 l 1,51,-1
 665 187 l 1,48,-1
665 147 m 1,52,-1
 665 218 l 1,53,-1
 730 218 l 1,54,-1
 730 147 l 1,55,-1
 665 147 l 1,52,-1
100 587 m 1,56,-1
 100 661 l 1,57,-1
 395 661 l 1,58,-1
 395 587 l 1,59,-1
 100 587 l 1,56,-1
665 107 m 1,60,-1
 665 178 l 1,61,-1
 730 178 l 1,62,-1
 730 107 l 1,63,-1
 665 107 l 1,60,-1
665 67 m 1,64,-1
 665 138 l 1,65,-1
 730 138 l 1,66,-1
 730 67 l 1,67,-1
 665 67 l 1,64,-1
665 27 m 1,68,-1
 665 98 l 1,69,-1
 730 98 l 1,70,-1
 730 27 l 1,71,-1
 665 27 l 1,68,-1
65 587 m 1,72,-1
 65 658 l 1,73,-1
 130 658 l 1,74,-1
 130 587 l 1,75,-1
 65 587 l 1,72,-1
665 -13 m 1,76,-1
 665 58 l 1,77,-1
 730 58 l 1,78,-1
 730 -13 l 1,79,-1
 665 -13 l 1,76,-1
EndSplineSet
EndChar

StartChar: eight
Encoding: 56 56 16
Width: 815
GlyphClass: 2
Flags: W
LayerCount: 2
Fore
SplineSet
675 547 m 1,0,-1
 675 618 l 1,1,-1
 740 618 l 1,2,-1
 740 547 l 1,3,-1
 675 547 l 1,0,-1
675 507 m 1,4,-1
 675 578 l 1,5,-1
 740 578 l 1,6,-1
 740 507 l 1,7,-1
 675 507 l 1,4,-1
675 467 m 1,8,-1
 675 538 l 1,9,-1
 740 538 l 1,10,-1
 740 467 l 1,11,-1
 675 467 l 1,8,-1
410 587 m 1,12,-1
 410 661 l 1,13,-1
 705 661 l 1,14,-1
 705 587 l 1,15,-1
 410 587 l 1,12,-1
675 427 m 1,16,-1
 675 498 l 1,17,-1
 740 498 l 1,18,-1
 740 427 l 1,19,-1
 675 427 l 1,16,-1
675 387 m 1,20,-1
 675 458 l 1,21,-1
 740 458 l 1,22,-1
 740 387 l 1,23,-1
 675 387 l 1,20,-1
675 347 m 1,24,-1
 675 418 l 1,25,-1
 740 418 l 1,26,-1
 740 347 l 1,27,-1
 675 347 l 1,24,-1
675 307 m 1,28,-1
 675 378 l 1,29,-1
 740 378 l 1,30,-1
 740 307 l 1,31,-1
 675 307 l 1,28,-1
375 587 m 1,32,-1
 375 658 l 1,33,-1
 440 658 l 1,34,-1
 440 587 l 1,35,-1
 375 587 l 1,32,-1
675 267 m 1,36,-1
 675 338 l 1,37,-1
 740 338 l 1,38,-1
 740 267 l 1,39,-1
 675 267 l 1,36,-1
675 227 m 1,40,-1
 675 298 l 1,41,-1
 740 298 l 1,42,-1
 740 227 l 1,43,-1
 675 227 l 1,40,-1
675 187 m 1,44,-1
 675 258 l 1,45,-1
 740 258 l 1,46,-1
 740 187 l 1,47,-1
 675 187 l 1,44,-1
410 307 m 1,48,-1
 410 381 l 1,49,-1
 705 381 l 1,50,-1
 705 307 l 1,51,-1
 410 307 l 1,48,-1
675 147 m 1,52,-1
 675 218 l 1,53,-1
 740 218 l 1,54,-1
 740 147 l 1,55,-1
 675 147 l 1,52,-1
110 587 m 1,56,-1
 110 661 l 1,57,-1
 405 661 l 1,58,-1
 405 587 l 1,59,-1
 110 587 l 1,56,-1
675 107 m 1,60,-1
 675 178 l 1,61,-1
 740 178 l 1,62,-1
 740 107 l 1,63,-1
 675 107 l 1,60,-1
675 67 m 1,64,-1
 675 138 l 1,65,-1
 740 138 l 1,66,-1
 740 67 l 1,67,-1
 675 67 l 1,64,-1
675 27 m 1,68,-1
 675 98 l 1,69,-1
 740 98 l 1,70,-1
 740 27 l 1,71,-1
 675 27 l 1,68,-1
375 307 m 1,72,-1
 375 378 l 1,73,-1
 440 378 l 1,74,-1
 440 307 l 1,75,-1
 375 307 l 1,72,-1
75 547 m 1,76,-1
 75 618 l 1,77,-1
 140 618 l 1,78,-1
 140 547 l 1,79,-1
 75 547 l 1,76,-1
75 507 m 1,80,-1
 75 578 l 1,81,-1
 140 578 l 1,82,-1
 140 507 l 1,83,-1
 75 507 l 1,80,-1
75 467 m 1,84,-1
 75 538 l 1,85,-1
 140 538 l 1,86,-1
 140 467 l 1,87,-1
 75 467 l 1,84,-1
110 307 m 1,88,-1
 110 381 l 1,89,-1
 405 381 l 1,90,-1
 405 307 l 1,91,-1
 110 307 l 1,88,-1
410 -13 m 1,92,-1
 410 61 l 1,93,-1
 705 61 l 1,94,-1
 705 -13 l 1,95,-1
 410 -13 l 1,92,-1
75 427 m 1,96,-1
 75 498 l 1,97,-1
 140 498 l 1,98,-1
 140 427 l 1,99,-1
 75 427 l 1,96,-1
75 387 m 1,100,-1
 75 458 l 1,101,-1
 140 458 l 1,102,-1
 140 387 l 1,103,-1
 75 387 l 1,100,-1
75 347 m 1,104,-1
 75 418 l 1,105,-1
 140 418 l 1,106,-1
 140 347 l 1,107,-1
 75 347 l 1,104,-1
75 307 m 1,108,-1
 75 378 l 1,109,-1
 140 378 l 1,110,-1
 140 307 l 1,111,-1
 75 307 l 1,108,-1
375 -13 m 1,112,-1
 375 58 l 1,113,-1
 440 58 l 1,114,-1
 440 -13 l 1,115,-1
 375 -13 l 1,112,-1
75 267 m 1,116,-1
 75 338 l 1,117,-1
 140 338 l 1,118,-1
 140 267 l 1,119,-1
 75 267 l 1,116,-1
75 227 m 1,120,-1
 75 298 l 1,121,-1
 140 298 l 1,122,-1
 140 227 l 1,123,-1
 75 227 l 1,120,-1
75 187 m 1,124,-1
 75 258 l 1,125,-1
 140 258 l 1,126,-1
 140 187 l 1,127,-1
 75 187 l 1,124,-1
75 147 m 1,128,-1
 75 218 l 1,129,-1
 140 218 l 1,130,-1
 140 147 l 1,131,-1
 75 147 l 1,128,-1
110 -13 m 1,132,-1
 110 61 l 1,133,-1
 405 61 l 1,134,-1
 405 -13 l 1,135,-1
 110 -13 l 1,132,-1
75 107 m 1,136,-1
 75 178 l 1,137,-1
 140 178 l 1,138,-1
 140 107 l 1,139,-1
 75 107 l 1,136,-1
75 67 m 1,140,-1
 75 138 l 1,141,-1
 140 138 l 1,142,-1
 140 67 l 1,143,-1
 75 67 l 1,140,-1
75 27 m 1,144,-1
 75 98 l 1,145,-1
 140 98 l 1,146,-1
 140 27 l 1,147,-1
 75 27 l 1,144,-1
EndSplineSet
EndChar

StartChar: nine
Encoding: 57 57 17
Width: 815
GlyphClass: 2
Flags: W
LayerCount: 2
Fore
SplineSet
675 547 m 1,0,-1
 675 618 l 1,1,-1
 740 618 l 1,2,-1
 740 547 l 1,3,-1
 675 547 l 1,0,-1
675 507 m 1,4,-1
 675 578 l 1,5,-1
 740 578 l 1,6,-1
 740 507 l 1,7,-1
 675 507 l 1,4,-1
675 467 m 1,8,-1
 675 538 l 1,9,-1
 740 538 l 1,10,-1
 740 467 l 1,11,-1
 675 467 l 1,8,-1
410 587 m 1,12,-1
 410 661 l 1,13,-1
 705 661 l 1,14,-1
 705 587 l 1,15,-1
 410 587 l 1,12,-1
675 427 m 1,16,-1
 675 498 l 1,17,-1
 740 498 l 1,18,-1
 740 427 l 1,19,-1
 675 427 l 1,16,-1
675 387 m 1,20,-1
 675 458 l 1,21,-1
 740 458 l 1,22,-1
 740 387 l 1,23,-1
 675 387 l 1,20,-1
675 347 m 1,24,-1
 675 418 l 1,25,-1
 740 418 l 1,26,-1
 740 347 l 1,27,-1
 675 347 l 1,24,-1
675 307 m 1,28,-1
 675 378 l 1,29,-1
 740 378 l 1,30,-1
 740 307 l 1,31,-1
 675 307 l 1,28,-1
375 587 m 1,32,-1
 375 658 l 1,33,-1
 440 658 l 1,34,-1
 440 587 l 1,35,-1
 375 587 l 1,32,-1
675 267 m 1,36,-1
 675 338 l 1,37,-1
 740 338 l 1,38,-1
 740 267 l 1,39,-1
 675 267 l 1,36,-1
675 227 m 1,40,-1
 675 298 l 1,41,-1
 740 298 l 1,42,-1
 740 227 l 1,43,-1
 675 227 l 1,40,-1
675 187 m 1,44,-1
 675 258 l 1,45,-1
 740 258 l 1,46,-1
 740 187 l 1,47,-1
 675 187 l 1,44,-1
410 307 m 1,48,-1
 410 381 l 1,49,-1
 705 381 l 1,50,-1
 705 307 l 1,51,-1
 410 307 l 1,48,-1
675 147 m 1,52,-1
 675 218 l 1,53,-1
 740 218 l 1,54,-1
 740 147 l 1,55,-1
 675 147 l 1,52,-1
110 587 m 1,56,-1
 110 661 l 1,57,-1
 405 661 l 1,58,-1
 405 587 l 1,59,-1
 110 587 l 1,56,-1
675 107 m 1,60,-1
 675 178 l 1,61,-1
 740 178 l 1,62,-1
 740 107 l 1,63,-1
 675 107 l 1,60,-1
675 67 m 1,64,-1
 675 138 l 1,65,-1
 740 138 l 1,66,-1
 740 67 l 1,67,-1
 675 67 l 1,64,-1
675 27 m 1,68,-1
 675 98 l 1,69,-1
 740 98 l 1,70,-1
 740 27 l 1,71,-1
 675 27 l 1,68,-1
375 307 m 1,72,-1
 375 378 l 1,73,-1
 440 378 l 1,74,-1
 440 307 l 1,75,-1
 375 307 l 1,72,-1
675 -13 m 1,76,-1
 675 58 l 1,77,-1
 740 58 l 1,78,-1
 740 -13 l 1,79,-1
 675 -13 l 1,76,-1
75 547 m 1,80,-1
 75 618 l 1,81,-1
 140 618 l 1,82,-1
 140 547 l 1,83,-1
 75 547 l 1,80,-1
75 507 m 1,84,-1
 75 578 l 1,85,-1
 140 578 l 1,86,-1
 140 507 l 1,87,-1
 75 507 l 1,84,-1
75 467 m 1,88,-1
 75 538 l 1,89,-1
 140 538 l 1,90,-1
 140 467 l 1,91,-1
 75 467 l 1,88,-1
110 307 m 1,92,-1
 110 381 l 1,93,-1
 405 381 l 1,94,-1
 405 307 l 1,95,-1
 110 307 l 1,92,-1
410 -13 m 1,96,-1
 410 61 l 1,97,-1
 705 61 l 1,98,-1
 705 -13 l 1,99,-1
 410 -13 l 1,96,-1
75 427 m 1,100,-1
 75 498 l 1,101,-1
 140 498 l 1,102,-1
 140 427 l 1,103,-1
 75 427 l 1,100,-1
75 387 m 1,104,-1
 75 458 l 1,105,-1
 140 458 l 1,106,-1
 140 387 l 1,107,-1
 75 387 l 1,104,-1
75 347 m 1,108,-1
 75 418 l 1,109,-1
 140 418 l 1,110,-1
 140 347 l 1,111,-1
 75 347 l 1,108,-1
75 307 m 1,112,-1
 75 378 l 1,113,-1
 140 378 l 1,114,-1
 140 307 l 1,115,-1
 75 307 l 1,112,-1
375 -13 m 1,116,-1
 375 58 l 1,117,-1
 440 58 l 1,118,-1
 440 -13 l 1,119,-1
 375 -13 l 1,116,-1
110 -13 m 1,120,-1
 110 61 l 1,121,-1
 405 61 l 1,122,-1
 405 -13 l 1,123,-1
 110 -13 l 1,120,-1
75 27 m 1,124,-1
 75 98 l 1,125,-1
 140 98 l 1,126,-1
 140 27 l 1,127,-1
 75 27 l 1,124,-1
75 -13 m 1,128,-1
 75 58 l 1,129,-1
 140 58 l 1,130,-1
 140 -13 l 1,131,-1
 75 -13 l 1,128,-1
EndSplineSet
EndChar

StartChar: colon
Encoding: 58 58 18
Width: 211
GlyphClass: 2
Flags: W
LayerCount: 2
Fore
SplineSet
110 417 m 5,0,-1
 110 491 l 5,1,-1
 110 417 l 5,0,-1
75 107 m 5,2,-1
 75 178 l 5,3,-1
 140 178 l 5,4,-1
 140 107 l 5,5,-1
 75 107 l 5,2,-1
140 138 m 1029,6,-1
140 457 m 5,7,-1
 75 457 l 1029,8,-1
75 417 m 5,9,-1
 75 488 l 5,10,-1
 140 488 l 5,11,-1
 140 417 l 5,12,-1
 75 417 l 5,9,-1
105 491 m 5,13,-1
 105 417 l 5,14,-1
 105 491 l 5,13,-1
EndSplineSet
EndChar

StartChar: semicolon
Encoding: 59 59 19
Width: 216
GlyphClass: 2
Flags: W
LayerCount: 2
Fore
SplineSet
111 -13 m 5,0,-1
 111 61 l 5,1,-1
 111 -13 l 5,0,-1
76 107 m 5,2,-1
 76 178 l 5,3,-1
 141 178 l 5,4,-1
 141 107 l 5,5,-1
 76 107 l 5,2,-1
76 67 m 5,6,-1
 76 138 l 5,7,-1
 141 138 l 5,8,-1
 141 67 l 5,9,-1
 76 67 l 5,6,-1
76 27 m 5,10,-1
 76 98 l 5,11,-1
 141 98 l 5,12,-1
 141 27 l 5,13,-1
 76 27 l 5,10,-1
76 -13 m 5,14,-1
 76 58 l 5,15,-1
 141 58 l 5,16,-1
 141 -13 l 5,17,-1
 76 -13 l 5,14,-1
106 61 m 5,18,-1
 106 -13 l 5,19,-1
 106 61 l 5,18,-1
111 417 m 1,20,-1
 111 491 l 1,21,-1
 111 417 l 1,20,-1
76 107 m 1,22,-1
 76 178 l 1,23,-1
 141 178 l 1,24,-1
 141 107 l 1,25,-1
 76 107 l 1,22,-1
141 138 m 1025,26,-1
141 457 m 1,27,-1
 76 457 l 1025,28,-1
76 417 m 1,29,-1
 76 488 l 1,30,-1
 141 488 l 1,31,-1
 141 417 l 1,32,-1
 76 417 l 1,29,-1
106 491 m 1,33,-1
 106 417 l 1,34,-1
 106 491 l 1,33,-1
EndSplineSet
EndChar

StartChar: A
Encoding: 65 65 25
Width: 815
GlyphClass: 2
Flags: W
LayerCount: 2
Fore
SplineSet
675 587 m 1,0,-1
 675 658 l 1,1,-1
 740 658 l 1,2,-1
 740 587 l 1,3,-1
 675 587 l 1,0,-1
675 547 m 1,4,-1
 675 618 l 1,5,-1
 740 618 l 1,6,-1
 740 547 l 1,7,-1
 675 547 l 1,4,-1
675 507 m 1,8,-1
 675 578 l 1,9,-1
 740 578 l 1,10,-1
 740 507 l 1,11,-1
 675 507 l 1,8,-1
675 467 m 1,12,-1
 675 538 l 1,13,-1
 740 538 l 1,14,-1
 740 467 l 1,15,-1
 675 467 l 1,12,-1
410 587 m 1,16,-1
 410 661 l 1,17,-1
 705 661 l 1,18,-1
 705 587 l 1,19,-1
 410 587 l 1,16,-1
675 427 m 1,20,-1
 675 498 l 1,21,-1
 740 498 l 1,22,-1
 740 427 l 1,23,-1
 675 427 l 1,20,-1
675 387 m 1,24,-1
 675 458 l 1,25,-1
 740 458 l 1,26,-1
 740 387 l 1,27,-1
 675 387 l 1,24,-1
675 347 m 1,28,-1
 675 418 l 1,29,-1
 740 418 l 1,30,-1
 740 347 l 1,31,-1
 675 347 l 1,28,-1
675 307 m 1,32,-1
 675 378 l 1,33,-1
 740 378 l 1,34,-1
 740 307 l 1,35,-1
 675 307 l 1,32,-1
375 587 m 1,36,-1
 375 658 l 1,37,-1
 440 658 l 1,38,-1
 440 587 l 1,39,-1
 375 587 l 1,36,-1
675 267 m 1,40,-1
 675 338 l 1,41,-1
 740 338 l 1,42,-1
 740 267 l 1,43,-1
 675 267 l 1,40,-1
675 227 m 1,44,-1
 675 298 l 1,45,-1
 740 298 l 1,46,-1
 740 227 l 1,47,-1
 675 227 l 1,44,-1
675 187 m 1,48,-1
 675 258 l 1,49,-1
 740 258 l 1,50,-1
 740 187 l 1,51,-1
 675 187 l 1,48,-1
410 307 m 1,52,-1
 410 381 l 1,53,-1
 705 381 l 1,54,-1
 705 307 l 1,55,-1
 410 307 l 1,52,-1
675 147 m 1,56,-1
 675 218 l 1,57,-1
 740 218 l 1,58,-1
 740 147 l 1,59,-1
 675 147 l 1,56,-1
110 587 m 1,60,-1
 110 661 l 1,61,-1
 405 661 l 1,62,-1
 405 587 l 1,63,-1
 110 587 l 1,60,-1
675 107 m 1,64,-1
 675 178 l 1,65,-1
 740 178 l 1,66,-1
 740 107 l 1,67,-1
 675 107 l 1,64,-1
675 67 m 1,68,-1
 675 138 l 1,69,-1
 740 138 l 1,70,-1
 740 67 l 1,71,-1
 675 67 l 1,68,-1
675 27 m 1,72,-1
 675 98 l 1,73,-1
 740 98 l 1,74,-1
 740 27 l 1,75,-1
 675 27 l 1,72,-1
375 307 m 1,76,-1
 375 378 l 1,77,-1
 440 378 l 1,78,-1
 440 307 l 1,79,-1
 375 307 l 1,76,-1
75 587 m 1,80,-1
 75 658 l 1,81,-1
 140 658 l 1,82,-1
 140 587 l 1,83,-1
 75 587 l 1,80,-1
675 -13 m 1,84,-1
 675 58 l 1,85,-1
 740 58 l 1,86,-1
 740 -13 l 1,87,-1
 675 -13 l 1,84,-1
75 547 m 1,88,-1
 75 618 l 1,89,-1
 140 618 l 1,90,-1
 140 547 l 1,91,-1
 75 547 l 1,88,-1
75 507 m 1,92,-1
 75 578 l 1,93,-1
 140 578 l 1,94,-1
 140 507 l 1,95,-1
 75 507 l 1,92,-1
75 467 m 1,96,-1
 75 538 l 1,97,-1
 140 538 l 1,98,-1
 140 467 l 1,99,-1
 75 467 l 1,96,-1
110 307 m 1,100,-1
 110 381 l 1,101,-1
 405 381 l 1,102,-1
 405 307 l 1,103,-1
 110 307 l 1,100,-1
75 427 m 1,104,-1
 75 498 l 1,105,-1
 140 498 l 1,106,-1
 140 427 l 1,107,-1
 75 427 l 1,104,-1
75 387 m 1,108,-1
 75 458 l 1,109,-1
 140 458 l 1,110,-1
 140 387 l 1,111,-1
 75 387 l 1,108,-1
75 347 m 1,112,-1
 75 418 l 1,113,-1
 140 418 l 1,114,-1
 140 347 l 1,115,-1
 75 347 l 1,112,-1
75 307 m 1,116,-1
 75 378 l 1,117,-1
 140 378 l 1,118,-1
 140 307 l 1,119,-1
 75 307 l 1,116,-1
75 267 m 1,120,-1
 75 338 l 1,121,-1
 140 338 l 1,122,-1
 140 267 l 1,123,-1
 75 267 l 1,120,-1
75 227 m 1,124,-1
 75 298 l 1,125,-1
 140 298 l 1,126,-1
 140 227 l 1,127,-1
 75 227 l 1,124,-1
75 187 m 1,128,-1
 75 258 l 1,129,-1
 140 258 l 1,130,-1
 140 187 l 1,131,-1
 75 187 l 1,128,-1
75 147 m 1,132,-1
 75 218 l 1,133,-1
 140 218 l 1,134,-1
 140 147 l 1,135,-1
 75 147 l 1,132,-1
75 107 m 1,136,-1
 75 178 l 1,137,-1
 140 178 l 1,138,-1
 140 107 l 1,139,-1
 75 107 l 1,136,-1
75 67 m 1,140,-1
 75 138 l 1,141,-1
 140 138 l 1,142,-1
 140 67 l 1,143,-1
 75 67 l 1,140,-1
75 27 m 1,144,-1
 75 98 l 1,145,-1
 140 98 l 1,146,-1
 140 27 l 1,147,-1
 75 27 l 1,144,-1
75 -13 m 1,148,-1
 75 58 l 1,149,-1
 140 58 l 1,150,-1
 140 -13 l 1,151,-1
 75 -13 l 1,148,-1
EndSplineSet
EndChar

StartChar: B
Encoding: 66 66 26
Width: 815
GlyphClass: 2
Flags: W
LayerCount: 2
Fore
SplineSet
675 547 m 1,0,-1
 675 618 l 1,1,-1
 740 618 l 1,2,-1
 740 547 l 1,3,-1
 675 547 l 1,0,-1
675 507 m 1,4,-1
 675 578 l 1,5,-1
 740 578 l 1,6,-1
 740 507 l 1,7,-1
 675 507 l 1,4,-1
675 467 m 1,8,-1
 675 538 l 1,9,-1
 740 538 l 1,10,-1
 740 467 l 1,11,-1
 675 467 l 1,8,-1
410 587 m 1,12,-1
 410 661 l 1,13,-1
 705 661 l 1,14,-1
 705 587 l 1,15,-1
 410 587 l 1,12,-1
675 427 m 1,16,-1
 675 498 l 1,17,-1
 740 498 l 1,18,-1
 740 427 l 1,19,-1
 675 427 l 1,16,-1
675 387 m 1,20,-1
 675 458 l 1,21,-1
 740 458 l 1,22,-1
 740 387 l 1,23,-1
 675 387 l 1,20,-1
675 347 m 1,24,-1
 675 418 l 1,25,-1
 740 418 l 1,26,-1
 740 347 l 1,27,-1
 675 347 l 1,24,-1
675 307 m 1,28,-1
 675 378 l 1,29,-1
 740 378 l 1,30,-1
 740 307 l 1,31,-1
 675 307 l 1,28,-1
375 587 m 1,32,-1
 375 658 l 1,33,-1
 440 658 l 1,34,-1
 440 587 l 1,35,-1
 375 587 l 1,32,-1
675 267 m 1,36,-1
 675 338 l 1,37,-1
 740 338 l 1,38,-1
 740 267 l 1,39,-1
 675 267 l 1,36,-1
675 227 m 1,40,-1
 675 298 l 1,41,-1
 740 298 l 1,42,-1
 740 227 l 1,43,-1
 675 227 l 1,40,-1
675 187 m 1,44,-1
 675 258 l 1,45,-1
 740 258 l 1,46,-1
 740 187 l 1,47,-1
 675 187 l 1,44,-1
410 307 m 1,48,-1
 410 381 l 1,49,-1
 705 381 l 1,50,-1
 705 307 l 1,51,-1
 410 307 l 1,48,-1
675 147 m 1,52,-1
 675 218 l 1,53,-1
 740 218 l 1,54,-1
 740 147 l 1,55,-1
 675 147 l 1,52,-1
110 587 m 1,56,-1
 110 661 l 1,57,-1
 405 661 l 1,58,-1
 405 587 l 1,59,-1
 110 587 l 1,56,-1
675 107 m 1,60,-1
 675 178 l 1,61,-1
 740 178 l 1,62,-1
 740 107 l 1,63,-1
 675 107 l 1,60,-1
675 67 m 1,64,-1
 675 138 l 1,65,-1
 740 138 l 1,66,-1
 740 67 l 1,67,-1
 675 67 l 1,64,-1
675 27 m 1,68,-1
 675 98 l 1,69,-1
 740 98 l 1,70,-1
 740 27 l 1,71,-1
 675 27 l 1,68,-1
375 307 m 1,72,-1
 375 378 l 1,73,-1
 440 378 l 1,74,-1
 440 307 l 1,75,-1
 375 307 l 1,72,-1
75 587 m 1,76,-1
 75 658 l 1,77,-1
 140 658 l 1,78,-1
 140 587 l 1,79,-1
 75 587 l 1,76,-1
75 547 m 1,80,-1
 75 618 l 1,81,-1
 140 618 l 1,82,-1
 140 547 l 1,83,-1
 75 547 l 1,80,-1
75 507 m 1,84,-1
 75 578 l 1,85,-1
 140 578 l 1,86,-1
 140 507 l 1,87,-1
 75 507 l 1,84,-1
75 467 m 1,88,-1
 75 538 l 1,89,-1
 140 538 l 1,90,-1
 140 467 l 1,91,-1
 75 467 l 1,88,-1
110 307 m 1,92,-1
 110 381 l 1,93,-1
 405 381 l 1,94,-1
 405 307 l 1,95,-1
 110 307 l 1,92,-1
410 -13 m 1,96,-1
 410 61 l 1,97,-1
 705 61 l 1,98,-1
 705 -13 l 1,99,-1
 410 -13 l 1,96,-1
75 427 m 1,100,-1
 75 498 l 1,101,-1
 140 498 l 1,102,-1
 140 427 l 1,103,-1
 75 427 l 1,100,-1
75 387 m 1,104,-1
 75 458 l 1,105,-1
 140 458 l 1,106,-1
 140 387 l 1,107,-1
 75 387 l 1,104,-1
75 347 m 1,108,-1
 75 418 l 1,109,-1
 140 418 l 1,110,-1
 140 347 l 1,111,-1
 75 347 l 1,108,-1
75 307 m 1,112,-1
 75 378 l 1,113,-1
 140 378 l 1,114,-1
 140 307 l 1,115,-1
 75 307 l 1,112,-1
375 -13 m 1,116,-1
 375 58 l 1,117,-1
 440 58 l 1,118,-1
 440 -13 l 1,119,-1
 375 -13 l 1,116,-1
75 267 m 1,120,-1
 75 338 l 1,121,-1
 140 338 l 1,122,-1
 140 267 l 1,123,-1
 75 267 l 1,120,-1
75 227 m 1,124,-1
 75 298 l 1,125,-1
 140 298 l 1,126,-1
 140 227 l 1,127,-1
 75 227 l 1,124,-1
75 187 m 1,128,-1
 75 258 l 1,129,-1
 140 258 l 1,130,-1
 140 187 l 1,131,-1
 75 187 l 1,128,-1
75 147 m 1,132,-1
 75 218 l 1,133,-1
 140 218 l 1,134,-1
 140 147 l 1,135,-1
 75 147 l 1,132,-1
110 -13 m 1,136,-1
 110 61 l 1,137,-1
 405 61 l 1,138,-1
 405 -13 l 1,139,-1
 110 -13 l 1,136,-1
75 107 m 1,140,-1
 75 178 l 1,141,-1
 140 178 l 1,142,-1
 140 107 l 1,143,-1
 75 107 l 1,140,-1
75 67 m 1,144,-1
 75 138 l 1,145,-1
 140 138 l 1,146,-1
 140 67 l 1,147,-1
 75 67 l 1,144,-1
75 27 m 1,148,-1
 75 98 l 1,149,-1
 140 98 l 1,150,-1
 140 27 l 1,151,-1
 75 27 l 1,148,-1
75 -13 m 1,152,-1
 75 58 l 1,153,-1
 140 58 l 1,154,-1
 140 -13 l 1,155,-1
 75 -13 l 1,152,-1
EndSplineSet
EndChar

StartChar: C
Encoding: 67 67 27
Width: 809
GlyphClass: 2
Flags: W
LayerCount: 2
Fore
SplineSet
674 587 m 1,0,-1
 674 658 l 1,1,-1
 739 658 l 1,2,-1
 739 587 l 1,3,-1
 674 587 l 1,0,-1
409 587 m 1,4,-1
 409 661 l 1,5,-1
 704 661 l 1,6,-1
 704 587 l 1,7,-1
 409 587 l 1,4,-1
374 587 m 1,8,-1
 374 658 l 1,9,-1
 439 658 l 1,10,-1
 439 587 l 1,11,-1
 374 587 l 1,8,-1
109 587 m 1,12,-1
 109 661 l 1,13,-1
 404 661 l 1,14,-1
 404 587 l 1,15,-1
 109 587 l 1,12,-1
674 -13 m 1,16,-1
 674 58 l 1,17,-1
 739 58 l 1,18,-1
 739 -13 l 1,19,-1
 674 -13 l 1,16,-1
74 547 m 1,20,-1
 74 618 l 1,21,-1
 139 618 l 1,22,-1
 139 547 l 1,23,-1
 74 547 l 1,20,-1
74 507 m 1,24,-1
 74 578 l 1,25,-1
 139 578 l 1,26,-1
 139 507 l 1,27,-1
 74 507 l 1,24,-1
74 467 m 1,28,-1
 74 538 l 1,29,-1
 139 538 l 1,30,-1
 139 467 l 1,31,-1
 74 467 l 1,28,-1
409 -13 m 1,32,-1
 409 61 l 1,33,-1
 704 61 l 1,34,-1
 704 -13 l 1,35,-1
 409 -13 l 1,32,-1
74 427 m 1,36,-1
 74 498 l 1,37,-1
 139 498 l 1,38,-1
 139 427 l 1,39,-1
 74 427 l 1,36,-1
74 387 m 1,40,-1
 74 458 l 1,41,-1
 139 458 l 1,42,-1
 139 387 l 1,43,-1
 74 387 l 1,40,-1
74 347 m 1,44,-1
 74 418 l 1,45,-1
 139 418 l 1,46,-1
 139 347 l 1,47,-1
 74 347 l 1,44,-1
74 307 m 1,48,-1
 74 378 l 1,49,-1
 139 378 l 1,50,-1
 139 307 l 1,51,-1
 74 307 l 1,48,-1
374 -13 m 1,52,-1
 374 58 l 1,53,-1
 439 58 l 1,54,-1
 439 -13 l 1,55,-1
 374 -13 l 1,52,-1
74 267 m 1,56,-1
 74 338 l 1,57,-1
 139 338 l 1,58,-1
 139 267 l 1,59,-1
 74 267 l 1,56,-1
74 227 m 1,60,-1
 74 298 l 1,61,-1
 139 298 l 1,62,-1
 139 227 l 1,63,-1
 74 227 l 1,60,-1
74 187 m 1,64,-1
 74 258 l 1,65,-1
 139 258 l 1,66,-1
 139 187 l 1,67,-1
 74 187 l 1,64,-1
74 147 m 1,68,-1
 74 218 l 1,69,-1
 139 218 l 1,70,-1
 139 147 l 1,71,-1
 74 147 l 1,68,-1
109 -13 m 1,72,-1
 109 61 l 1,73,-1
 404 61 l 1,74,-1
 404 -13 l 1,75,-1
 109 -13 l 1,72,-1
74 107 m 1,76,-1
 74 178 l 1,77,-1
 139 178 l 1,78,-1
 139 107 l 1,79,-1
 74 107 l 1,76,-1
74 67 m 1,80,-1
 74 138 l 1,81,-1
 139 138 l 1,82,-1
 139 67 l 1,83,-1
 74 67 l 1,80,-1
74 27 m 1,84,-1
 74 98 l 1,85,-1
 139 98 l 1,86,-1
 139 27 l 1,87,-1
 74 27 l 1,84,-1
EndSplineSet
EndChar

StartChar: D
Encoding: 68 68 28
Width: 815
GlyphClass: 2
Flags: W
LayerCount: 2
Fore
SplineSet
675 547 m 1,0,-1
 675 618 l 1,1,-1
 740 618 l 1,2,-1
 740 547 l 1,3,-1
 675 547 l 1,0,-1
675 507 m 1,4,-1
 675 578 l 1,5,-1
 740 578 l 1,6,-1
 740 507 l 1,7,-1
 675 507 l 1,4,-1
675 467 m 1,8,-1
 675 538 l 1,9,-1
 740 538 l 1,10,-1
 740 467 l 1,11,-1
 675 467 l 1,8,-1
410 587 m 1,12,-1
 410 661 l 1,13,-1
 705 661 l 1,14,-1
 705 587 l 1,15,-1
 410 587 l 1,12,-1
675 427 m 1,16,-1
 675 498 l 1,17,-1
 740 498 l 1,18,-1
 740 427 l 1,19,-1
 675 427 l 1,16,-1
675 387 m 1,20,-1
 675 458 l 1,21,-1
 740 458 l 1,22,-1
 740 387 l 1,23,-1
 675 387 l 1,20,-1
675 347 m 1,24,-1
 675 418 l 1,25,-1
 740 418 l 1,26,-1
 740 347 l 1,27,-1
 675 347 l 1,24,-1
675 307 m 1,28,-1
 675 378 l 1,29,-1
 740 378 l 1,30,-1
 740 307 l 1,31,-1
 675 307 l 1,28,-1
375 587 m 1,32,-1
 375 658 l 1,33,-1
 440 658 l 1,34,-1
 440 587 l 1,35,-1
 375 587 l 1,32,-1
675 267 m 1,36,-1
 675 338 l 1,37,-1
 740 338 l 1,38,-1
 740 267 l 1,39,-1
 675 267 l 1,36,-1
675 227 m 1,40,-1
 675 298 l 1,41,-1
 740 298 l 1,42,-1
 740 227 l 1,43,-1
 675 227 l 1,40,-1
675 187 m 1,44,-1
 675 258 l 1,45,-1
 740 258 l 1,46,-1
 740 187 l 1,47,-1
 675 187 l 1,44,-1
675 147 m 1,48,-1
 675 218 l 1,49,-1
 740 218 l 1,50,-1
 740 147 l 1,51,-1
 675 147 l 1,48,-1
110 587 m 1,52,-1
 110 661 l 1,53,-1
 405 661 l 1,54,-1
 405 587 l 1,55,-1
 110 587 l 1,52,-1
675 107 m 1,56,-1
 675 178 l 1,57,-1
 740 178 l 1,58,-1
 740 107 l 1,59,-1
 675 107 l 1,56,-1
675 67 m 1,60,-1
 675 138 l 1,61,-1
 740 138 l 1,62,-1
 740 67 l 1,63,-1
 675 67 l 1,60,-1
675 27 m 1,64,-1
 675 98 l 1,65,-1
 740 98 l 1,66,-1
 740 27 l 1,67,-1
 675 27 l 1,64,-1
75 587 m 1,68,-1
 75 658 l 1,69,-1
 140 658 l 1,70,-1
 140 587 l 1,71,-1
 75 587 l 1,68,-1
75 547 m 1,72,-1
 75 618 l 1,73,-1
 140 618 l 1,74,-1
 140 547 l 1,75,-1
 75 547 l 1,72,-1
75 507 m 1,76,-1
 75 578 l 1,77,-1
 140 578 l 1,78,-1
 140 507 l 1,79,-1
 75 507 l 1,76,-1
75 467 m 1,80,-1
 75 538 l 1,81,-1
 140 538 l 1,82,-1
 140 467 l 1,83,-1
 75 467 l 1,80,-1
410 -13 m 1,84,-1
 410 61 l 1,85,-1
 705 61 l 1,86,-1
 705 -13 l 1,87,-1
 410 -13 l 1,84,-1
75 427 m 1,88,-1
 75 498 l 1,89,-1
 140 498 l 1,90,-1
 140 427 l 1,91,-1
 75 427 l 1,88,-1
75 387 m 1,92,-1
 75 458 l 1,93,-1
 140 458 l 1,94,-1
 140 387 l 1,95,-1
 75 387 l 1,92,-1
75 347 m 1,96,-1
 75 418 l 1,97,-1
 140 418 l 1,98,-1
 140 347 l 1,99,-1
 75 347 l 1,96,-1
75 307 m 1,100,-1
 75 378 l 1,101,-1
 140 378 l 1,102,-1
 140 307 l 1,103,-1
 75 307 l 1,100,-1
375 -13 m 1,104,-1
 375 58 l 1,105,-1
 440 58 l 1,106,-1
 440 -13 l 1,107,-1
 375 -13 l 1,104,-1
75 267 m 1,108,-1
 75 338 l 1,109,-1
 140 338 l 1,110,-1
 140 267 l 1,111,-1
 75 267 l 1,108,-1
75 227 m 1,112,-1
 75 298 l 1,113,-1
 140 298 l 1,114,-1
 140 227 l 1,115,-1
 75 227 l 1,112,-1
75 187 m 1,116,-1
 75 258 l 1,117,-1
 140 258 l 1,118,-1
 140 187 l 1,119,-1
 75 187 l 1,116,-1
75 147 m 1,120,-1
 75 218 l 1,121,-1
 140 218 l 1,122,-1
 140 147 l 1,123,-1
 75 147 l 1,120,-1
110 -13 m 1,124,-1
 110 61 l 1,125,-1
 405 61 l 1,126,-1
 405 -13 l 1,127,-1
 110 -13 l 1,124,-1
75 107 m 1,128,-1
 75 178 l 1,129,-1
 140 178 l 1,130,-1
 140 107 l 1,131,-1
 75 107 l 1,128,-1
75 67 m 1,132,-1
 75 138 l 1,133,-1
 140 138 l 1,134,-1
 140 67 l 1,135,-1
 75 67 l 1,132,-1
75 27 m 1,136,-1
 75 98 l 1,137,-1
 140 98 l 1,138,-1
 140 27 l 1,139,-1
 75 27 l 1,136,-1
75 -13 m 1,140,-1
 75 58 l 1,141,-1
 140 58 l 1,142,-1
 140 -13 l 1,143,-1
 75 -13 l 1,140,-1
EndSplineSet
EndChar

StartChar: E
Encoding: 69 69 29
Width: 813
GlyphClass: 2
Flags: W
LayerCount: 2
Fore
SplineSet
675 587 m 1,0,-1
 675 658 l 1,1,-1
 740 658 l 1,2,-1
 740 587 l 1,3,-1
 675 587 l 1,0,-1
410 587 m 1,4,-1
 410 661 l 1,5,-1
 705 661 l 1,6,-1
 705 587 l 1,7,-1
 410 587 l 1,4,-1
675 307 m 1,8,-1
 675 378 l 1,9,-1
 740 378 l 1,10,-1
 740 307 l 1,11,-1
 675 307 l 1,8,-1
375 587 m 1,12,-1
 375 658 l 1,13,-1
 440 658 l 1,14,-1
 440 587 l 1,15,-1
 375 587 l 1,12,-1
410 307 m 1,16,-1
 410 381 l 1,17,-1
 705 381 l 1,18,-1
 705 307 l 1,19,-1
 410 307 l 1,16,-1
110 587 m 1,20,-1
 110 661 l 1,21,-1
 405 661 l 1,22,-1
 405 587 l 1,23,-1
 110 587 l 1,20,-1
375 307 m 1,24,-1
 375 378 l 1,25,-1
 440 378 l 1,26,-1
 440 307 l 1,27,-1
 375 307 l 1,24,-1
75 587 m 1,28,-1
 75 658 l 1,29,-1
 140 658 l 1,30,-1
 140 587 l 1,31,-1
 75 587 l 1,28,-1
675 -13 m 1,32,-1
 675 58 l 1,33,-1
 740 58 l 1,34,-1
 740 -13 l 1,35,-1
 675 -13 l 1,32,-1
75 547 m 1,36,-1
 75 618 l 1,37,-1
 140 618 l 1,38,-1
 140 547 l 1,39,-1
 75 547 l 1,36,-1
75 507 m 1,40,-1
 75 578 l 1,41,-1
 140 578 l 1,42,-1
 140 507 l 1,43,-1
 75 507 l 1,40,-1
75 467 m 1,44,-1
 75 538 l 1,45,-1
 140 538 l 1,46,-1
 140 467 l 1,47,-1
 75 467 l 1,44,-1
110 307 m 1,48,-1
 110 381 l 1,49,-1
 405 381 l 1,50,-1
 405 307 l 1,51,-1
 110 307 l 1,48,-1
410 -13 m 1,52,-1
 410 61 l 1,53,-1
 705 61 l 1,54,-1
 705 -13 l 1,55,-1
 410 -13 l 1,52,-1
75 427 m 1,56,-1
 75 498 l 1,57,-1
 140 498 l 1,58,-1
 140 427 l 1,59,-1
 75 427 l 1,56,-1
75 387 m 1,60,-1
 75 458 l 1,61,-1
 140 458 l 1,62,-1
 140 387 l 1,63,-1
 75 387 l 1,60,-1
75 347 m 1,64,-1
 75 418 l 1,65,-1
 140 418 l 1,66,-1
 140 347 l 1,67,-1
 75 347 l 1,64,-1
75 307 m 1,68,-1
 75 378 l 1,69,-1
 140 378 l 1,70,-1
 140 307 l 1,71,-1
 75 307 l 1,68,-1
375 -13 m 1,72,-1
 375 58 l 1,73,-1
 440 58 l 1,74,-1
 440 -13 l 1,75,-1
 375 -13 l 1,72,-1
75 267 m 1,76,-1
 75 338 l 1,77,-1
 140 338 l 1,78,-1
 140 267 l 1,79,-1
 75 267 l 1,76,-1
75 227 m 1,80,-1
 75 298 l 1,81,-1
 140 298 l 1,82,-1
 140 227 l 1,83,-1
 75 227 l 1,80,-1
75 187 m 1,84,-1
 75 258 l 1,85,-1
 140 258 l 1,86,-1
 140 187 l 1,87,-1
 75 187 l 1,84,-1
75 147 m 1,88,-1
 75 218 l 1,89,-1
 140 218 l 1,90,-1
 140 147 l 1,91,-1
 75 147 l 1,88,-1
110 -13 m 1,92,-1
 110 61 l 1,93,-1
 405 61 l 1,94,-1
 405 -13 l 1,95,-1
 110 -13 l 1,92,-1
75 107 m 1,96,-1
 75 178 l 1,97,-1
 140 178 l 1,98,-1
 140 107 l 1,99,-1
 75 107 l 1,96,-1
75 67 m 1,100,-1
 75 138 l 1,101,-1
 140 138 l 1,102,-1
 140 67 l 1,103,-1
 75 67 l 1,100,-1
75 27 m 1,104,-1
 75 98 l 1,105,-1
 140 98 l 1,106,-1
 140 27 l 1,107,-1
 75 27 l 1,104,-1
75 -13 m 1,108,-1
 75 58 l 1,109,-1
 140 58 l 1,110,-1
 140 -13 l 1,111,-1
 75 -13 l 1,108,-1
EndSplineSet
EndChar

StartChar: F
Encoding: 70 70 30
Width: 791
GlyphClass: 2
Flags: W
LayerCount: 2
Fore
SplineSet
675 587 m 1,0,-1
 675 658 l 1,1,-1
 740 658 l 1,2,-1
 740 587 l 1,3,-1
 675 587 l 1,0,-1
410 587 m 1,4,-1
 410 661 l 1,5,-1
 705 661 l 1,6,-1
 705 587 l 1,7,-1
 410 587 l 1,4,-1
375 587 m 1,8,-1
 375 658 l 1,9,-1
 440 658 l 1,10,-1
 440 587 l 1,11,-1
 375 587 l 1,8,-1
110 587 m 1,12,-1
 110 661 l 1,13,-1
 405 661 l 1,14,-1
 405 587 l 1,15,-1
 110 587 l 1,12,-1
375 307 m 1,16,-1
 375 378 l 1,17,-1
 440 378 l 1,18,-1
 440 307 l 1,19,-1
 375 307 l 1,16,-1
75 587 m 1,20,-1
 75 658 l 1,21,-1
 140 658 l 1,22,-1
 140 587 l 1,23,-1
 75 587 l 1,20,-1
75 547 m 1,24,-1
 75 618 l 1,25,-1
 140 618 l 1,26,-1
 140 547 l 1,27,-1
 75 547 l 1,24,-1
75 507 m 1,28,-1
 75 578 l 1,29,-1
 140 578 l 1,30,-1
 140 507 l 1,31,-1
 75 507 l 1,28,-1
75 467 m 1,32,-1
 75 538 l 1,33,-1
 140 538 l 1,34,-1
 140 467 l 1,35,-1
 75 467 l 1,32,-1
110 307 m 1,36,-1
 110 381 l 1,37,-1
 405 381 l 1,38,-1
 405 307 l 1,39,-1
 110 307 l 1,36,-1
75 427 m 1,40,-1
 75 498 l 1,41,-1
 140 498 l 1,42,-1
 140 427 l 1,43,-1
 75 427 l 1,40,-1
75 387 m 1,44,-1
 75 458 l 1,45,-1
 140 458 l 1,46,-1
 140 387 l 1,47,-1
 75 387 l 1,44,-1
75 347 m 1,48,-1
 75 418 l 1,49,-1
 140 418 l 1,50,-1
 140 347 l 1,51,-1
 75 347 l 1,48,-1
75 307 m 1,52,-1
 75 378 l 1,53,-1
 140 378 l 1,54,-1
 140 307 l 1,55,-1
 75 307 l 1,52,-1
75 267 m 1,56,-1
 75 338 l 1,57,-1
 140 338 l 1,58,-1
 140 267 l 1,59,-1
 75 267 l 1,56,-1
75 227 m 1,60,-1
 75 298 l 1,61,-1
 140 298 l 1,62,-1
 140 227 l 1,63,-1
 75 227 l 1,60,-1
75 187 m 1,64,-1
 75 258 l 1,65,-1
 140 258 l 1,66,-1
 140 187 l 1,67,-1
 75 187 l 1,64,-1
75 147 m 1,68,-1
 75 218 l 1,69,-1
 140 218 l 1,70,-1
 140 147 l 1,71,-1
 75 147 l 1,68,-1
75 107 m 1,72,-1
 75 178 l 1,73,-1
 140 178 l 1,74,-1
 140 107 l 1,75,-1
 75 107 l 1,72,-1
75 67 m 1,76,-1
 75 138 l 1,77,-1
 140 138 l 1,78,-1
 140 67 l 1,79,-1
 75 67 l 1,76,-1
75 27 m 1,80,-1
 75 98 l 1,81,-1
 140 98 l 1,82,-1
 140 27 l 1,83,-1
 75 27 l 1,80,-1
75 -13 m 1,84,-1
 75 58 l 1,85,-1
 140 58 l 1,86,-1
 140 -13 l 1,87,-1
 75 -13 l 1,84,-1
EndSplineSet
EndChar

StartChar: G
Encoding: 71 71 31
Width: 814
GlyphClass: 2
Flags: W
LayerCount: 2
Fore
SplineSet
674 587 m 1,0,-1
 674 658 l 1,1,-1
 739 658 l 1,2,-1
 739 587 l 1,3,-1
 674 587 l 1,0,-1
409 587 m 1,4,-1
 409 661 l 1,5,-1
 704 661 l 1,6,-1
 704 587 l 1,7,-1
 409 587 l 1,4,-1
374 587 m 1,8,-1
 374 658 l 1,9,-1
 439 658 l 1,10,-1
 439 587 l 1,11,-1
 374 587 l 1,8,-1
674 267 m 1,12,-1
 674 338 l 1,13,-1
 739 338 l 1,14,-1
 739 267 l 1,15,-1
 674 267 l 1,12,-1
674 227 m 1,16,-1
 674 298 l 1,17,-1
 739 298 l 1,18,-1
 739 227 l 1,19,-1
 674 227 l 1,16,-1
674 187 m 1,20,-1
 674 258 l 1,21,-1
 739 258 l 1,22,-1
 739 187 l 1,23,-1
 674 187 l 1,20,-1
409 307 m 1,24,-1
 409 381 l 1,25,-1
 704 381 l 1,26,-1
 704 307 l 1,27,-1
 409 307 l 1,24,-1
674 147 m 1,28,-1
 674 218 l 1,29,-1
 739 218 l 1,30,-1
 739 147 l 1,31,-1
 674 147 l 1,28,-1
109 587 m 1,32,-1
 109 661 l 1,33,-1
 404 661 l 1,34,-1
 404 587 l 1,35,-1
 109 587 l 1,32,-1
674 107 m 1,36,-1
 674 178 l 1,37,-1
 739 178 l 1,38,-1
 739 107 l 1,39,-1
 674 107 l 1,36,-1
674 67 m 1,40,-1
 674 138 l 1,41,-1
 739 138 l 1,42,-1
 739 67 l 1,43,-1
 674 67 l 1,40,-1
674 27 m 1,44,-1
 674 98 l 1,45,-1
 739 98 l 1,46,-1
 739 27 l 1,47,-1
 674 27 l 1,44,-1
374 307 m 1,48,-1
 374 378 l 1,49,-1
 439 378 l 1,50,-1
 439 307 l 1,51,-1
 374 307 l 1,48,-1
74 547 m 1,52,-1
 74 618 l 1,53,-1
 139 618 l 1,54,-1
 139 547 l 1,55,-1
 74 547 l 1,52,-1
74 507 m 1,56,-1
 74 578 l 1,57,-1
 139 578 l 1,58,-1
 139 507 l 1,59,-1
 74 507 l 1,56,-1
74 467 m 1,60,-1
 74 538 l 1,61,-1
 139 538 l 1,62,-1
 139 467 l 1,63,-1
 74 467 l 1,60,-1
409 -13 m 1,64,-1
 409 61 l 1,65,-1
 704 61 l 1,66,-1
 704 -13 l 1,67,-1
 409 -13 l 1,64,-1
74 427 m 1,68,-1
 74 498 l 1,69,-1
 139 498 l 1,70,-1
 139 427 l 1,71,-1
 74 427 l 1,68,-1
74 387 m 1,72,-1
 74 458 l 1,73,-1
 139 458 l 1,74,-1
 139 387 l 1,75,-1
 74 387 l 1,72,-1
74 347 m 1,76,-1
 74 418 l 1,77,-1
 139 418 l 1,78,-1
 139 347 l 1,79,-1
 74 347 l 1,76,-1
74 307 m 1,80,-1
 74 378 l 1,81,-1
 139 378 l 1,82,-1
 139 307 l 1,83,-1
 74 307 l 1,80,-1
374 -13 m 1,84,-1
 374 58 l 1,85,-1
 439 58 l 1,86,-1
 439 -13 l 1,87,-1
 374 -13 l 1,84,-1
74 267 m 1,88,-1
 74 338 l 1,89,-1
 139 338 l 1,90,-1
 139 267 l 1,91,-1
 74 267 l 1,88,-1
74 227 m 1,92,-1
 74 298 l 1,93,-1
 139 298 l 1,94,-1
 139 227 l 1,95,-1
 74 227 l 1,92,-1
74 187 m 1,96,-1
 74 258 l 1,97,-1
 139 258 l 1,98,-1
 139 187 l 1,99,-1
 74 187 l 1,96,-1
74 147 m 1,100,-1
 74 218 l 1,101,-1
 139 218 l 1,102,-1
 139 147 l 1,103,-1
 74 147 l 1,100,-1
109 -13 m 1,104,-1
 109 61 l 1,105,-1
 404 61 l 1,106,-1
 404 -13 l 1,107,-1
 109 -13 l 1,104,-1
74 107 m 1,108,-1
 74 178 l 1,109,-1
 139 178 l 1,110,-1
 139 107 l 1,111,-1
 74 107 l 1,108,-1
74 67 m 1,112,-1
 74 138 l 1,113,-1
 139 138 l 1,114,-1
 139 67 l 1,115,-1
 74 67 l 1,112,-1
74 27 m 1,116,-1
 74 98 l 1,117,-1
 139 98 l 1,118,-1
 139 27 l 1,119,-1
 74 27 l 1,116,-1
EndSplineSet
EndChar

StartChar: H
Encoding: 72 72 32
Width: 815
GlyphClass: 2
Flags: W
LayerCount: 2
Fore
SplineSet
675 587 m 1,0,-1
 675 658 l 1,1,-1
 740 658 l 1,2,-1
 740 587 l 1,3,-1
 675 587 l 1,0,-1
675 547 m 1,4,-1
 675 618 l 1,5,-1
 740 618 l 1,6,-1
 740 547 l 1,7,-1
 675 547 l 1,4,-1
675 507 m 1,8,-1
 675 578 l 1,9,-1
 740 578 l 1,10,-1
 740 507 l 1,11,-1
 675 507 l 1,8,-1
675 467 m 1,12,-1
 675 538 l 1,13,-1
 740 538 l 1,14,-1
 740 467 l 1,15,-1
 675 467 l 1,12,-1
675 427 m 1,16,-1
 675 498 l 1,17,-1
 740 498 l 1,18,-1
 740 427 l 1,19,-1
 675 427 l 1,16,-1
675 387 m 1,20,-1
 675 458 l 1,21,-1
 740 458 l 1,22,-1
 740 387 l 1,23,-1
 675 387 l 1,20,-1
675 347 m 1,24,-1
 675 418 l 1,25,-1
 740 418 l 1,26,-1
 740 347 l 1,27,-1
 675 347 l 1,24,-1
675 307 m 1,28,-1
 675 378 l 1,29,-1
 740 378 l 1,30,-1
 740 307 l 1,31,-1
 675 307 l 1,28,-1
675 267 m 1,32,-1
 675 338 l 1,33,-1
 740 338 l 1,34,-1
 740 267 l 1,35,-1
 675 267 l 1,32,-1
675 227 m 1,36,-1
 675 298 l 1,37,-1
 740 298 l 1,38,-1
 740 227 l 1,39,-1
 675 227 l 1,36,-1
675 187 m 1,40,-1
 675 258 l 1,41,-1
 740 258 l 1,42,-1
 740 187 l 1,43,-1
 675 187 l 1,40,-1
410 307 m 1,44,-1
 410 381 l 1,45,-1
 705 381 l 1,46,-1
 705 307 l 1,47,-1
 410 307 l 1,44,-1
675 147 m 1,48,-1
 675 218 l 1,49,-1
 740 218 l 1,50,-1
 740 147 l 1,51,-1
 675 147 l 1,48,-1
675 107 m 1,52,-1
 675 178 l 1,53,-1
 740 178 l 1,54,-1
 740 107 l 1,55,-1
 675 107 l 1,52,-1
675 67 m 1,56,-1
 675 138 l 1,57,-1
 740 138 l 1,58,-1
 740 67 l 1,59,-1
 675 67 l 1,56,-1
675 27 m 1,60,-1
 675 98 l 1,61,-1
 740 98 l 1,62,-1
 740 27 l 1,63,-1
 675 27 l 1,60,-1
375 307 m 1,64,-1
 375 378 l 1,65,-1
 440 378 l 1,66,-1
 440 307 l 1,67,-1
 375 307 l 1,64,-1
75 587 m 1,68,-1
 75 658 l 1,69,-1
 140 658 l 1,70,-1
 140 587 l 1,71,-1
 75 587 l 1,68,-1
675 -13 m 1,72,-1
 675 58 l 1,73,-1
 740 58 l 1,74,-1
 740 -13 l 1,75,-1
 675 -13 l 1,72,-1
75 547 m 1,76,-1
 75 618 l 1,77,-1
 140 618 l 1,78,-1
 140 547 l 1,79,-1
 75 547 l 1,76,-1
75 507 m 1,80,-1
 75 578 l 1,81,-1
 140 578 l 1,82,-1
 140 507 l 1,83,-1
 75 507 l 1,80,-1
75 467 m 1,84,-1
 75 538 l 1,85,-1
 140 538 l 1,86,-1
 140 467 l 1,87,-1
 75 467 l 1,84,-1
110 307 m 1,88,-1
 110 381 l 1,89,-1
 405 381 l 1,90,-1
 405 307 l 1,91,-1
 110 307 l 1,88,-1
75 427 m 1,92,-1
 75 498 l 1,93,-1
 140 498 l 1,94,-1
 140 427 l 1,95,-1
 75 427 l 1,92,-1
75 387 m 1,96,-1
 75 458 l 1,97,-1
 140 458 l 1,98,-1
 140 387 l 1,99,-1
 75 387 l 1,96,-1
75 347 m 1,100,-1
 75 418 l 1,101,-1
 140 418 l 1,102,-1
 140 347 l 1,103,-1
 75 347 l 1,100,-1
75 307 m 1,104,-1
 75 378 l 1,105,-1
 140 378 l 1,106,-1
 140 307 l 1,107,-1
 75 307 l 1,104,-1
75 267 m 1,108,-1
 75 338 l 1,109,-1
 140 338 l 1,110,-1
 140 267 l 1,111,-1
 75 267 l 1,108,-1
75 227 m 1,112,-1
 75 298 l 1,113,-1
 140 298 l 1,114,-1
 140 227 l 1,115,-1
 75 227 l 1,112,-1
75 187 m 1,116,-1
 75 258 l 1,117,-1
 140 258 l 1,118,-1
 140 187 l 1,119,-1
 75 187 l 1,116,-1
75 147 m 1,120,-1
 75 218 l 1,121,-1
 140 218 l 1,122,-1
 140 147 l 1,123,-1
 75 147 l 1,120,-1
75 107 m 1,124,-1
 75 178 l 1,125,-1
 140 178 l 1,126,-1
 140 107 l 1,127,-1
 75 107 l 1,124,-1
75 67 m 1,128,-1
 75 138 l 1,129,-1
 140 138 l 1,130,-1
 140 67 l 1,131,-1
 75 67 l 1,128,-1
75 27 m 1,132,-1
 75 98 l 1,133,-1
 140 98 l 1,134,-1
 140 27 l 1,135,-1
 75 27 l 1,132,-1
75 -13 m 1,136,-1
 75 58 l 1,137,-1
 140 58 l 1,138,-1
 140 -13 l 1,139,-1
 75 -13 l 1,136,-1
EndSplineSet
EndChar

StartChar: I
Encoding: 73 73 33
Width: 803
GlyphClass: 2
Flags: W
LayerCount: 2
Fore
SplineSet
669 587 m 1,0,-1
 669 658 l 1,1,-1
 734 658 l 1,2,-1
 734 587 l 1,3,-1
 669 587 l 1,0,-1
404 587 m 1,4,-1
 404 661 l 1,5,-1
 699 661 l 1,6,-1
 699 587 l 1,7,-1
 404 587 l 1,4,-1
369 587 m 1,8,-1
 369 658 l 1,9,-1
 434 658 l 1,10,-1
 434 587 l 1,11,-1
 369 587 l 1,8,-1
369 547 m 1,12,-1
 369 618 l 1,13,-1
 434 618 l 1,14,-1
 434 547 l 1,15,-1
 369 547 l 1,12,-1
369 507 m 1,16,-1
 369 578 l 1,17,-1
 434 578 l 1,18,-1
 434 507 l 1,19,-1
 369 507 l 1,16,-1
369 467 m 1,20,-1
 369 538 l 1,21,-1
 434 538 l 1,22,-1
 434 467 l 1,23,-1
 369 467 l 1,20,-1
104 587 m 1,24,-1
 104 661 l 1,25,-1
 399 661 l 1,26,-1
 399 587 l 1,27,-1
 104 587 l 1,24,-1
369 427 m 1,28,-1
 369 498 l 1,29,-1
 434 498 l 1,30,-1
 434 427 l 1,31,-1
 369 427 l 1,28,-1
369 387 m 1,32,-1
 369 458 l 1,33,-1
 434 458 l 1,34,-1
 434 387 l 1,35,-1
 369 387 l 1,32,-1
369 347 m 1,36,-1
 369 418 l 1,37,-1
 434 418 l 1,38,-1
 434 347 l 1,39,-1
 369 347 l 1,36,-1
369 307 m 1,40,-1
 369 378 l 1,41,-1
 434 378 l 1,42,-1
 434 307 l 1,43,-1
 369 307 l 1,40,-1
69 587 m 1,44,-1
 69 658 l 1,45,-1
 134 658 l 1,46,-1
 134 587 l 1,47,-1
 69 587 l 1,44,-1
669 -13 m 1,48,-1
 669 58 l 1,49,-1
 734 58 l 1,50,-1
 734 -13 l 1,51,-1
 669 -13 l 1,48,-1
369 267 m 1,52,-1
 369 338 l 1,53,-1
 434 338 l 1,54,-1
 434 267 l 1,55,-1
 369 267 l 1,52,-1
369 227 m 1,56,-1
 369 298 l 1,57,-1
 434 298 l 1,58,-1
 434 227 l 1,59,-1
 369 227 l 1,56,-1
369 187 m 1,60,-1
 369 258 l 1,61,-1
 434 258 l 1,62,-1
 434 187 l 1,63,-1
 369 187 l 1,60,-1
369 147 m 1,64,-1
 369 218 l 1,65,-1
 434 218 l 1,66,-1
 434 147 l 1,67,-1
 369 147 l 1,64,-1
404 -13 m 1,68,-1
 404 61 l 1,69,-1
 699 61 l 1,70,-1
 699 -13 l 1,71,-1
 404 -13 l 1,68,-1
369 107 m 1,72,-1
 369 178 l 1,73,-1
 434 178 l 1,74,-1
 434 107 l 1,75,-1
 369 107 l 1,72,-1
369 67 m 1,76,-1
 369 138 l 1,77,-1
 434 138 l 1,78,-1
 434 67 l 1,79,-1
 369 67 l 1,76,-1
369 27 m 1,80,-1
 369 98 l 1,81,-1
 434 98 l 1,82,-1
 434 27 l 1,83,-1
 369 27 l 1,80,-1
369 -13 m 1,84,-1
 369 58 l 1,85,-1
 434 58 l 1,86,-1
 434 -13 l 1,87,-1
 369 -13 l 1,84,-1
104 -13 m 1,88,-1
 104 61 l 1,89,-1
 399 61 l 1,90,-1
 399 -13 l 1,91,-1
 104 -13 l 1,88,-1
69 -13 m 1,92,-1
 69 58 l 1,93,-1
 134 58 l 1,94,-1
 134 -13 l 1,95,-1
 69 -13 l 1,92,-1
EndSplineSet
EndChar

StartChar: J
Encoding: 74 74 34
Width: 812
GlyphClass: 2
Flags: W
LayerCount: 2
Fore
SplineSet
672 587 m 1,0,-1
 672 658 l 1,1,-1
 737 658 l 1,2,-1
 737 587 l 1,3,-1
 672 587 l 1,0,-1
672 547 m 1,4,-1
 672 618 l 1,5,-1
 737 618 l 1,6,-1
 737 547 l 1,7,-1
 672 547 l 1,4,-1
672 507 m 1,8,-1
 672 578 l 1,9,-1
 737 578 l 1,10,-1
 737 507 l 1,11,-1
 672 507 l 1,8,-1
672 467 m 1,12,-1
 672 538 l 1,13,-1
 737 538 l 1,14,-1
 737 467 l 1,15,-1
 672 467 l 1,12,-1
672 427 m 1,16,-1
 672 498 l 1,17,-1
 737 498 l 1,18,-1
 737 427 l 1,19,-1
 672 427 l 1,16,-1
672 387 m 1,20,-1
 672 458 l 1,21,-1
 737 458 l 1,22,-1
 737 387 l 1,23,-1
 672 387 l 1,20,-1
672 347 m 1,24,-1
 672 418 l 1,25,-1
 737 418 l 1,26,-1
 737 347 l 1,27,-1
 672 347 l 1,24,-1
672 307 m 1,28,-1
 672 378 l 1,29,-1
 737 378 l 1,30,-1
 737 307 l 1,31,-1
 672 307 l 1,28,-1
672 267 m 1,32,-1
 672 338 l 1,33,-1
 737 338 l 1,34,-1
 737 267 l 1,35,-1
 672 267 l 1,32,-1
672 227 m 1,36,-1
 672 298 l 1,37,-1
 737 298 l 1,38,-1
 737 227 l 1,39,-1
 672 227 l 1,36,-1
672 187 m 1,40,-1
 672 258 l 1,41,-1
 737 258 l 1,42,-1
 737 187 l 1,43,-1
 672 187 l 1,40,-1
672 147 m 1,44,-1
 672 218 l 1,45,-1
 737 218 l 1,46,-1
 737 147 l 1,47,-1
 672 147 l 1,44,-1
672 107 m 1,48,-1
 672 178 l 1,49,-1
 737 178 l 1,50,-1
 737 107 l 1,51,-1
 672 107 l 1,48,-1
672 67 m 1,52,-1
 672 138 l 1,53,-1
 737 138 l 1,54,-1
 737 67 l 1,55,-1
 672 67 l 1,52,-1
672 27 m 1,56,-1
 672 98 l 1,57,-1
 737 98 l 1,58,-1
 737 27 l 1,59,-1
 672 27 l 1,56,-1
407 -13 m 1,60,-1
 407 61 l 1,61,-1
 702 61 l 1,62,-1
 702 -13 l 1,63,-1
 407 -13 l 1,60,-1
72 307 m 1,64,-1
 72 378 l 1,65,-1
 137 378 l 1,66,-1
 137 307 l 1,67,-1
 72 307 l 1,64,-1
372 -13 m 1,68,-1
 372 58 l 1,69,-1
 437 58 l 1,70,-1
 437 -13 l 1,71,-1
 372 -13 l 1,68,-1
72 267 m 1,72,-1
 72 338 l 1,73,-1
 137 338 l 1,74,-1
 137 267 l 1,75,-1
 72 267 l 1,72,-1
72 227 m 1,76,-1
 72 298 l 1,77,-1
 137 298 l 1,78,-1
 137 227 l 1,79,-1
 72 227 l 1,76,-1
72 187 m 1,80,-1
 72 258 l 1,81,-1
 137 258 l 1,82,-1
 137 187 l 1,83,-1
 72 187 l 1,80,-1
72 147 m 1,84,-1
 72 218 l 1,85,-1
 137 218 l 1,86,-1
 137 147 l 1,87,-1
 72 147 l 1,84,-1
107 -13 m 1,88,-1
 107 61 l 1,89,-1
 402 61 l 1,90,-1
 402 -13 l 1,91,-1
 107 -13 l 1,88,-1
72 107 m 1,92,-1
 72 178 l 1,93,-1
 137 178 l 1,94,-1
 137 107 l 1,95,-1
 72 107 l 1,92,-1
72 67 m 1,96,-1
 72 138 l 1,97,-1
 137 138 l 1,98,-1
 137 67 l 1,99,-1
 72 67 l 1,96,-1
72 27 m 1,100,-1
 72 98 l 1,101,-1
 137 98 l 1,102,-1
 137 27 l 1,103,-1
 72 27 l 1,100,-1
EndSplineSet
EndChar

StartChar: K
Encoding: 75 75 35
Width: 814
GlyphClass: 2
Flags: W
LayerCount: 2
Fore
SplineSet
675 327 m 1,0,-1
 675 398 l 1,1,-1
 740 398 l 1,2,-1
 740 327 l 1,3,-1
 675 327 l 1,0,-1
375 607 m 1,4,-1
 375 678 l 1,5,-1
 440 678 l 1,6,-1
 440 607 l 1,7,-1
 375 607 l 1,4,-1
675 287 m 1,8,-1
 675 358 l 1,9,-1
 740 358 l 1,10,-1
 740 287 l 1,11,-1
 675 287 l 1,8,-1
375 567 m 1,12,-1
 375 638 l 1,13,-1
 440 638 l 1,14,-1
 440 567 l 1,15,-1
 375 567 l 1,12,-1
675 247 m 1,16,-1
 675 318 l 1,17,-1
 740 318 l 1,18,-1
 740 247 l 1,19,-1
 675 247 l 1,16,-1
375 527 m 1,20,-1
 375 598 l 1,21,-1
 440 598 l 1,22,-1
 440 527 l 1,23,-1
 375 527 l 1,20,-1
675 207 m 1,24,-1
 675 278 l 1,25,-1
 740 278 l 1,26,-1
 740 207 l 1,27,-1
 675 207 l 1,24,-1
375 487 m 1,28,-1
 375 558 l 1,29,-1
 440 558 l 1,30,-1
 440 487 l 1,31,-1
 375 487 l 1,28,-1
410 327 m 1,32,-1
 410 401 l 1,33,-1
 705 401 l 1,34,-1
 705 327 l 1,35,-1
 410 327 l 1,32,-1
675 167 m 1,36,-1
 675 238 l 1,37,-1
 740 238 l 1,38,-1
 740 167 l 1,39,-1
 675 167 l 1,36,-1
375 447 m 1,40,-1
 375 518 l 1,41,-1
 440 518 l 1,42,-1
 440 447 l 1,43,-1
 375 447 l 1,40,-1
675 127 m 1,44,-1
 675 198 l 1,45,-1
 740 198 l 1,46,-1
 740 127 l 1,47,-1
 675 127 l 1,44,-1
375 407 m 1,48,-1
 375 478 l 1,49,-1
 440 478 l 1,50,-1
 440 407 l 1,51,-1
 375 407 l 1,48,-1
675 87 m 1,52,-1
 675 158 l 1,53,-1
 740 158 l 1,54,-1
 740 87 l 1,55,-1
 675 87 l 1,52,-1
375 367 m 1,56,-1
 375 438 l 1,57,-1
 440 438 l 1,58,-1
 440 367 l 1,59,-1
 375 367 l 1,56,-1
675 47 m 1,60,-1
 675 118 l 1,61,-1
 740 118 l 1,62,-1
 740 47 l 1,63,-1
 675 47 l 1,60,-1
375 327 m 1,64,-1
 375 398 l 1,65,-1
 440 398 l 1,66,-1
 440 327 l 1,67,-1
 375 327 l 1,64,-1
75 607 m 1,68,-1
 75 678 l 1,69,-1
 140 678 l 1,70,-1
 140 607 l 1,71,-1
 75 607 l 1,68,-1
675 7 m 1,72,-1
 675 78 l 1,73,-1
 740 78 l 1,74,-1
 740 7 l 1,75,-1
 675 7 l 1,72,-1
75 567 m 1,76,-1
 75 638 l 1,77,-1
 140 638 l 1,78,-1
 140 567 l 1,79,-1
 75 567 l 1,76,-1
75 527 m 1,80,-1
 75 598 l 1,81,-1
 140 598 l 1,82,-1
 140 527 l 1,83,-1
 75 527 l 1,80,-1
75 487 m 1,84,-1
 75 558 l 1,85,-1
 140 558 l 1,86,-1
 140 487 l 1,87,-1
 75 487 l 1,84,-1
110 327 m 1,88,-1
 110 401 l 1,89,-1
 405 401 l 1,90,-1
 405 327 l 1,91,-1
 110 327 l 1,88,-1
75 447 m 1,92,-1
 75 518 l 1,93,-1
 140 518 l 1,94,-1
 140 447 l 1,95,-1
 75 447 l 1,92,-1
75 407 m 1,96,-1
 75 478 l 1,97,-1
 140 478 l 1,98,-1
 140 407 l 1,99,-1
 75 407 l 1,96,-1
75 367 m 1,100,-1
 75 438 l 1,101,-1
 140 438 l 1,102,-1
 140 367 l 1,103,-1
 75 367 l 1,100,-1
75 327 m 1,104,-1
 75 398 l 1,105,-1
 140 398 l 1,106,-1
 140 327 l 1,107,-1
 75 327 l 1,104,-1
75 287 m 1,108,-1
 75 358 l 1,109,-1
 140 358 l 1,110,-1
 140 287 l 1,111,-1
 75 287 l 1,108,-1
75 247 m 1,112,-1
 75 318 l 1,113,-1
 140 318 l 1,114,-1
 140 247 l 1,115,-1
 75 247 l 1,112,-1
75 207 m 1,116,-1
 75 278 l 1,117,-1
 140 278 l 1,118,-1
 140 207 l 1,119,-1
 75 207 l 1,116,-1
75 167 m 1,120,-1
 75 238 l 1,121,-1
 140 238 l 1,122,-1
 140 167 l 1,123,-1
 75 167 l 1,120,-1
75 127 m 1,124,-1
 75 198 l 1,125,-1
 140 198 l 1,126,-1
 140 127 l 1,127,-1
 75 127 l 1,124,-1
75 87 m 1,128,-1
 75 158 l 1,129,-1
 140 158 l 1,130,-1
 140 87 l 1,131,-1
 75 87 l 1,128,-1
75 47 m 1,132,-1
 75 118 l 1,133,-1
 140 118 l 1,134,-1
 140 47 l 1,135,-1
 75 47 l 1,132,-1
75 7 m 1,136,-1
 75 78 l 1,137,-1
 140 78 l 1,138,-1
 140 7 l 1,139,-1
 75 7 l 1,136,-1
414 621 m 1,140,-1
 386 663 l 1,141,-1
 401 673 l 1,142,-1
 429 631 l 1,143,-1
 414 621 l 1,140,-1
114 621 m 1,144,-1
 86 663 l 1,145,-1
 101 673 l 1,146,-1
 129 631 l 1,147,-1
 114 621 l 1,144,-1
EndSplineSet
EndChar

StartChar: L
Encoding: 76 76 36
Width: 808
GlyphClass: 2
Flags: W
LayerCount: 2
Fore
SplineSet
75 587 m 1,0,-1
 75 658 l 1,1,-1
 140 658 l 1,2,-1
 140 587 l 1,3,-1
 75 587 l 1,0,-1
675 -13 m 1,4,-1
 675 58 l 1,5,-1
 740 58 l 1,6,-1
 740 -13 l 1,7,-1
 675 -13 l 1,4,-1
75 547 m 1,8,-1
 75 618 l 1,9,-1
 140 618 l 1,10,-1
 140 547 l 1,11,-1
 75 547 l 1,8,-1
75 507 m 1,12,-1
 75 578 l 1,13,-1
 140 578 l 1,14,-1
 140 507 l 1,15,-1
 75 507 l 1,12,-1
75 467 m 1,16,-1
 75 538 l 1,17,-1
 140 538 l 1,18,-1
 140 467 l 1,19,-1
 75 467 l 1,16,-1
410 -13 m 1,20,-1
 410 61 l 1,21,-1
 705 61 l 1,22,-1
 705 -13 l 1,23,-1
 410 -13 l 1,20,-1
75 427 m 1,24,-1
 75 498 l 1,25,-1
 140 498 l 1,26,-1
 140 427 l 1,27,-1
 75 427 l 1,24,-1
75 387 m 1,28,-1
 75 458 l 1,29,-1
 140 458 l 1,30,-1
 140 387 l 1,31,-1
 75 387 l 1,28,-1
75 347 m 1,32,-1
 75 418 l 1,33,-1
 140 418 l 1,34,-1
 140 347 l 1,35,-1
 75 347 l 1,32,-1
75 307 m 1,36,-1
 75 378 l 1,37,-1
 140 378 l 1,38,-1
 140 307 l 1,39,-1
 75 307 l 1,36,-1
375 -13 m 1,40,-1
 375 58 l 1,41,-1
 440 58 l 1,42,-1
 440 -13 l 1,43,-1
 375 -13 l 1,40,-1
75 267 m 1,44,-1
 75 338 l 1,45,-1
 140 338 l 1,46,-1
 140 267 l 1,47,-1
 75 267 l 1,44,-1
75 227 m 1,48,-1
 75 298 l 1,49,-1
 140 298 l 1,50,-1
 140 227 l 1,51,-1
 75 227 l 1,48,-1
75 187 m 1,52,-1
 75 258 l 1,53,-1
 140 258 l 1,54,-1
 140 187 l 1,55,-1
 75 187 l 1,52,-1
75 147 m 1,56,-1
 75 218 l 1,57,-1
 140 218 l 1,58,-1
 140 147 l 1,59,-1
 75 147 l 1,56,-1
110 -13 m 1,60,-1
 110 61 l 1,61,-1
 405 61 l 1,62,-1
 405 -13 l 1,63,-1
 110 -13 l 1,60,-1
75 107 m 1,64,-1
 75 178 l 1,65,-1
 140 178 l 1,66,-1
 140 107 l 1,67,-1
 75 107 l 1,64,-1
75 67 m 1,68,-1
 75 138 l 1,69,-1
 140 138 l 1,70,-1
 140 67 l 1,71,-1
 75 67 l 1,68,-1
75 27 m 1,72,-1
 75 98 l 1,73,-1
 140 98 l 1,74,-1
 140 27 l 1,75,-1
 75 27 l 1,72,-1
75 -13 m 1,76,-1
 75 58 l 1,77,-1
 140 58 l 1,78,-1
 140 -13 l 1,79,-1
 75 -13 l 1,76,-1
EndSplineSet
EndChar

StartChar: M
Encoding: 77 77 37
Width: 815
GlyphClass: 2
Flags: W
LayerCount: 2
Fore
SplineSet
675 547 m 1,0,-1
 675 618 l 1,1,-1
 740 618 l 1,2,-1
 740 547 l 1,3,-1
 675 547 l 1,0,-1
675 507 m 1,4,-1
 675 578 l 1,5,-1
 740 578 l 1,6,-1
 740 507 l 1,7,-1
 675 507 l 1,4,-1
675 467 m 1,8,-1
 675 538 l 1,9,-1
 740 538 l 1,10,-1
 740 467 l 1,11,-1
 675 467 l 1,8,-1
410 587 m 1,12,-1
 410 661 l 1,13,-1
 705 661 l 1,14,-1
 705 587 l 1,15,-1
 410 587 l 1,12,-1
675 427 m 1,16,-1
 675 498 l 1,17,-1
 740 498 l 1,18,-1
 740 427 l 1,19,-1
 675 427 l 1,16,-1
675 387 m 1,20,-1
 675 458 l 1,21,-1
 740 458 l 1,22,-1
 740 387 l 1,23,-1
 675 387 l 1,20,-1
675 347 m 1,24,-1
 675 418 l 1,25,-1
 740 418 l 1,26,-1
 740 347 l 1,27,-1
 675 347 l 1,24,-1
675 307 m 1,28,-1
 675 378 l 1,29,-1
 740 378 l 1,30,-1
 740 307 l 1,31,-1
 675 307 l 1,28,-1
375 587 m 1,32,-1
 375 658 l 1,33,-1
 440 658 l 1,34,-1
 440 587 l 1,35,-1
 375 587 l 1,32,-1
675 267 m 1,36,-1
 675 338 l 1,37,-1
 740 338 l 1,38,-1
 740 267 l 1,39,-1
 675 267 l 1,36,-1
375 547 m 1,40,-1
 375 618 l 1,41,-1
 440 618 l 1,42,-1
 440 547 l 1,43,-1
 375 547 l 1,40,-1
675 227 m 1,44,-1
 675 298 l 1,45,-1
 740 298 l 1,46,-1
 740 227 l 1,47,-1
 675 227 l 1,44,-1
375 507 m 1,48,-1
 375 578 l 1,49,-1
 440 578 l 1,50,-1
 440 507 l 1,51,-1
 375 507 l 1,48,-1
675 187 m 1,52,-1
 675 258 l 1,53,-1
 740 258 l 1,54,-1
 740 187 l 1,55,-1
 675 187 l 1,52,-1
375 467 m 1,56,-1
 375 538 l 1,57,-1
 440 538 l 1,58,-1
 440 467 l 1,59,-1
 375 467 l 1,56,-1
675 147 m 1,60,-1
 675 218 l 1,61,-1
 740 218 l 1,62,-1
 740 147 l 1,63,-1
 675 147 l 1,60,-1
110 587 m 1,64,-1
 110 661 l 1,65,-1
 405 661 l 1,66,-1
 405 587 l 1,67,-1
 110 587 l 1,64,-1
375 427 m 1,68,-1
 375 498 l 1,69,-1
 440 498 l 1,70,-1
 440 427 l 1,71,-1
 375 427 l 1,68,-1
675 107 m 1,72,-1
 675 178 l 1,73,-1
 740 178 l 1,74,-1
 740 107 l 1,75,-1
 675 107 l 1,72,-1
375 387 m 1,76,-1
 375 458 l 1,77,-1
 440 458 l 1,78,-1
 440 387 l 1,79,-1
 375 387 l 1,76,-1
675 67 m 1,80,-1
 675 138 l 1,81,-1
 740 138 l 1,82,-1
 740 67 l 1,83,-1
 675 67 l 1,80,-1
375 347 m 1,84,-1
 375 418 l 1,85,-1
 440 418 l 1,86,-1
 440 347 l 1,87,-1
 375 347 l 1,84,-1
675 27 m 1,88,-1
 675 98 l 1,89,-1
 740 98 l 1,90,-1
 740 27 l 1,91,-1
 675 27 l 1,88,-1
375 307 m 1,92,-1
 375 378 l 1,93,-1
 440 378 l 1,94,-1
 440 307 l 1,95,-1
 375 307 l 1,92,-1
675 -13 m 1,96,-1
 675 58 l 1,97,-1
 740 58 l 1,98,-1
 740 -13 l 1,99,-1
 675 -13 l 1,96,-1
375 267 m 1,100,-1
 375 338 l 1,101,-1
 440 338 l 1,102,-1
 440 267 l 1,103,-1
 375 267 l 1,100,-1
75 547 m 1,104,-1
 75 618 l 1,105,-1
 140 618 l 1,106,-1
 140 547 l 1,107,-1
 75 547 l 1,104,-1
375 227 m 1,108,-1
 375 298 l 1,109,-1
 440 298 l 1,110,-1
 440 227 l 1,111,-1
 375 227 l 1,108,-1
75 507 m 1,112,-1
 75 578 l 1,113,-1
 140 578 l 1,114,-1
 140 507 l 1,115,-1
 75 507 l 1,112,-1
375 187 m 1,116,-1
 375 258 l 1,117,-1
 440 258 l 1,118,-1
 440 187 l 1,119,-1
 375 187 l 1,116,-1
75 467 m 1,120,-1
 75 538 l 1,121,-1
 140 538 l 1,122,-1
 140 467 l 1,123,-1
 75 467 l 1,120,-1
375 147 m 1,124,-1
 375 218 l 1,125,-1
 440 218 l 1,126,-1
 440 147 l 1,127,-1
 375 147 l 1,124,-1
75 427 m 1,128,-1
 75 498 l 1,129,-1
 140 498 l 1,130,-1
 140 427 l 1,131,-1
 75 427 l 1,128,-1
375 107 m 1,132,-1
 375 178 l 1,133,-1
 440 178 l 1,134,-1
 440 107 l 1,135,-1
 375 107 l 1,132,-1
75 387 m 1,136,-1
 75 458 l 1,137,-1
 140 458 l 1,138,-1
 140 387 l 1,139,-1
 75 387 l 1,136,-1
375 67 m 1,140,-1
 375 138 l 1,141,-1
 440 138 l 1,142,-1
 440 67 l 1,143,-1
 375 67 l 1,140,-1
75 347 m 1,144,-1
 75 418 l 1,145,-1
 140 418 l 1,146,-1
 140 347 l 1,147,-1
 75 347 l 1,144,-1
375 27 m 1,148,-1
 375 98 l 1,149,-1
 440 98 l 1,150,-1
 440 27 l 1,151,-1
 375 27 l 1,148,-1
75 307 m 1,152,-1
 75 378 l 1,153,-1
 140 378 l 1,154,-1
 140 307 l 1,155,-1
 75 307 l 1,152,-1
375 -13 m 1,156,-1
 375 58 l 1,157,-1
 440 58 l 1,158,-1
 440 -13 l 1,159,-1
 375 -13 l 1,156,-1
75 267 m 1,160,-1
 75 338 l 1,161,-1
 140 338 l 1,162,-1
 140 267 l 1,163,-1
 75 267 l 1,160,-1
75 227 m 1,164,-1
 75 298 l 1,165,-1
 140 298 l 1,166,-1
 140 227 l 1,167,-1
 75 227 l 1,164,-1
75 187 m 1,168,-1
 75 258 l 1,169,-1
 140 258 l 1,170,-1
 140 187 l 1,171,-1
 75 187 l 1,168,-1
75 147 m 1,172,-1
 75 218 l 1,173,-1
 140 218 l 1,174,-1
 140 147 l 1,175,-1
 75 147 l 1,172,-1
75 107 m 1,176,-1
 75 178 l 1,177,-1
 140 178 l 1,178,-1
 140 107 l 1,179,-1
 75 107 l 1,176,-1
75 67 m 1,180,-1
 75 138 l 1,181,-1
 140 138 l 1,182,-1
 140 67 l 1,183,-1
 75 67 l 1,180,-1
75 27 m 1,184,-1
 75 98 l 1,185,-1
 140 98 l 1,186,-1
 140 27 l 1,187,-1
 75 27 l 1,184,-1
75 -13 m 1,188,-1
 75 58 l 1,189,-1
 140 58 l 1,190,-1
 140 -13 l 1,191,-1
 75 -13 l 1,188,-1
75 618 m 1,192,-1
 110 661 l 1,193,-1
 75 618 l 1,192,-1
705 661 m 1,194,-1
 740 618 l 1,195,-1
 705 661 l 1,194,-1
EndSplineSet
EndChar

StartChar: N
Encoding: 78 78 38
Width: 815
GlyphClass: 2
Flags: W
LayerCount: 2
Fore
SplineSet
675 547 m 1,0,-1
 675 618 l 1,1,-1
 740 618 l 1,2,-1
 740 547 l 1,3,-1
 675 547 l 1,0,-1
675 507 m 1,4,-1
 675 578 l 1,5,-1
 740 578 l 1,6,-1
 740 507 l 1,7,-1
 675 507 l 1,4,-1
675 467 m 1,8,-1
 675 538 l 1,9,-1
 740 538 l 1,10,-1
 740 467 l 1,11,-1
 675 467 l 1,8,-1
410 587 m 1,12,-1
 410 661 l 1,13,-1
 705 661 l 1,14,-1
 705 587 l 1,15,-1
 410 587 l 1,12,-1
675 427 m 1,16,-1
 675 498 l 1,17,-1
 740 498 l 1,18,-1
 740 427 l 1,19,-1
 675 427 l 1,16,-1
675 387 m 1,20,-1
 675 458 l 1,21,-1
 740 458 l 1,22,-1
 740 387 l 1,23,-1
 675 387 l 1,20,-1
675 347 m 1,24,-1
 675 418 l 1,25,-1
 740 418 l 1,26,-1
 740 347 l 1,27,-1
 675 347 l 1,24,-1
675 307 m 1,28,-1
 675 378 l 1,29,-1
 740 378 l 1,30,-1
 740 307 l 1,31,-1
 675 307 l 1,28,-1
375 587 m 1,32,-1
 375 658 l 1,33,-1
 440 658 l 1,34,-1
 440 587 l 1,35,-1
 375 587 l 1,32,-1
675 267 m 1,36,-1
 675 338 l 1,37,-1
 740 338 l 1,38,-1
 740 267 l 1,39,-1
 675 267 l 1,36,-1
675 227 m 1,40,-1
 675 298 l 1,41,-1
 740 298 l 1,42,-1
 740 227 l 1,43,-1
 675 227 l 1,40,-1
675 187 m 1,44,-1
 675 258 l 1,45,-1
 740 258 l 1,46,-1
 740 187 l 1,47,-1
 675 187 l 1,44,-1
675 147 m 1,48,-1
 675 218 l 1,49,-1
 740 218 l 1,50,-1
 740 147 l 1,51,-1
 675 147 l 1,48,-1
110 587 m 1,52,-1
 110 661 l 1,53,-1
 405 661 l 1,54,-1
 405 587 l 1,55,-1
 110 587 l 1,52,-1
675 107 m 1,56,-1
 675 178 l 1,57,-1
 740 178 l 1,58,-1
 740 107 l 1,59,-1
 675 107 l 1,56,-1
675 67 m 1,60,-1
 675 138 l 1,61,-1
 740 138 l 1,62,-1
 740 67 l 1,63,-1
 675 67 l 1,60,-1
675 27 m 1,64,-1
 675 98 l 1,65,-1
 740 98 l 1,66,-1
 740 27 l 1,67,-1
 675 27 l 1,64,-1
75 587 m 1,68,-1
 75 658 l 1,69,-1
 140 658 l 1,70,-1
 140 587 l 1,71,-1
 75 587 l 1,68,-1
675 -13 m 1,72,-1
 675 58 l 1,73,-1
 740 58 l 1,74,-1
 740 -13 l 1,75,-1
 675 -13 l 1,72,-1
75 547 m 1,76,-1
 75 618 l 1,77,-1
 140 618 l 1,78,-1
 140 547 l 1,79,-1
 75 547 l 1,76,-1
75 507 m 1,80,-1
 75 578 l 1,81,-1
 140 578 l 1,82,-1
 140 507 l 1,83,-1
 75 507 l 1,80,-1
75 467 m 1,84,-1
 75 538 l 1,85,-1
 140 538 l 1,86,-1
 140 467 l 1,87,-1
 75 467 l 1,84,-1
75 427 m 1,88,-1
 75 498 l 1,89,-1
 140 498 l 1,90,-1
 140 427 l 1,91,-1
 75 427 l 1,88,-1
75 387 m 1,92,-1
 75 458 l 1,93,-1
 140 458 l 1,94,-1
 140 387 l 1,95,-1
 75 387 l 1,92,-1
75 347 m 1,96,-1
 75 418 l 1,97,-1
 140 418 l 1,98,-1
 140 347 l 1,99,-1
 75 347 l 1,96,-1
75 307 m 1,100,-1
 75 378 l 1,101,-1
 140 378 l 1,102,-1
 140 307 l 1,103,-1
 75 307 l 1,100,-1
75 267 m 1,104,-1
 75 338 l 1,105,-1
 140 338 l 1,106,-1
 140 267 l 1,107,-1
 75 267 l 1,104,-1
75 227 m 1,108,-1
 75 298 l 1,109,-1
 140 298 l 1,110,-1
 140 227 l 1,111,-1
 75 227 l 1,108,-1
75 187 m 1,112,-1
 75 258 l 1,113,-1
 140 258 l 1,114,-1
 140 187 l 1,115,-1
 75 187 l 1,112,-1
75 147 m 1,116,-1
 75 218 l 1,117,-1
 140 218 l 1,118,-1
 140 147 l 1,119,-1
 75 147 l 1,116,-1
75 107 m 1,120,-1
 75 178 l 1,121,-1
 140 178 l 1,122,-1
 140 107 l 1,123,-1
 75 107 l 1,120,-1
75 67 m 1,124,-1
 75 138 l 1,125,-1
 140 138 l 1,126,-1
 140 67 l 1,127,-1
 75 67 l 1,124,-1
75 27 m 1,128,-1
 75 98 l 1,129,-1
 140 98 l 1,130,-1
 140 27 l 1,131,-1
 75 27 l 1,128,-1
75 -13 m 1,132,-1
 75 58 l 1,133,-1
 140 58 l 1,134,-1
 140 -13 l 1,135,-1
 75 -13 l 1,132,-1
EndSplineSet
EndChar

StartChar: O
Encoding: 79 79 39
Width: 814
GlyphClass: 2
Flags: W
LayerCount: 2
Fore
SplineSet
674 547 m 1,0,-1
 674 618 l 1,1,-1
 739 618 l 1,2,-1
 739 547 l 1,3,-1
 674 547 l 1,0,-1
674 507 m 1,4,-1
 674 578 l 1,5,-1
 739 578 l 1,6,-1
 739 507 l 1,7,-1
 674 507 l 1,4,-1
674 467 m 1,8,-1
 674 538 l 1,9,-1
 739 538 l 1,10,-1
 739 467 l 1,11,-1
 674 467 l 1,8,-1
409 587 m 1,12,-1
 409 661 l 1,13,-1
 704 661 l 1,14,-1
 704 587 l 1,15,-1
 409 587 l 1,12,-1
674 427 m 1,16,-1
 674 498 l 1,17,-1
 739 498 l 1,18,-1
 739 427 l 1,19,-1
 674 427 l 1,16,-1
674 387 m 1,20,-1
 674 458 l 1,21,-1
 739 458 l 1,22,-1
 739 387 l 1,23,-1
 674 387 l 1,20,-1
674 347 m 1,24,-1
 674 418 l 1,25,-1
 739 418 l 1,26,-1
 739 347 l 1,27,-1
 674 347 l 1,24,-1
674 307 m 1,28,-1
 674 378 l 1,29,-1
 739 378 l 1,30,-1
 739 307 l 1,31,-1
 674 307 l 1,28,-1
374 587 m 1,32,-1
 374 658 l 1,33,-1
 439 658 l 1,34,-1
 439 587 l 1,35,-1
 374 587 l 1,32,-1
674 267 m 1,36,-1
 674 338 l 1,37,-1
 739 338 l 1,38,-1
 739 267 l 1,39,-1
 674 267 l 1,36,-1
674 227 m 1,40,-1
 674 298 l 1,41,-1
 739 298 l 1,42,-1
 739 227 l 1,43,-1
 674 227 l 1,40,-1
674 187 m 1,44,-1
 674 258 l 1,45,-1
 739 258 l 1,46,-1
 739 187 l 1,47,-1
 674 187 l 1,44,-1
674 147 m 1,48,-1
 674 218 l 1,49,-1
 739 218 l 1,50,-1
 739 147 l 1,51,-1
 674 147 l 1,48,-1
109 587 m 1,52,-1
 109 661 l 1,53,-1
 404 661 l 1,54,-1
 404 587 l 1,55,-1
 109 587 l 1,52,-1
674 107 m 1,56,-1
 674 178 l 1,57,-1
 739 178 l 1,58,-1
 739 107 l 1,59,-1
 674 107 l 1,56,-1
674 67 m 1,60,-1
 674 138 l 1,61,-1
 739 138 l 1,62,-1
 739 67 l 1,63,-1
 674 67 l 1,60,-1
674 27 m 1,64,-1
 674 98 l 1,65,-1
 739 98 l 1,66,-1
 739 27 l 1,67,-1
 674 27 l 1,64,-1
74 547 m 1,68,-1
 74 618 l 1,69,-1
 139 618 l 1,70,-1
 139 547 l 1,71,-1
 74 547 l 1,68,-1
74 507 m 1,72,-1
 74 578 l 1,73,-1
 139 578 l 1,74,-1
 139 507 l 1,75,-1
 74 507 l 1,72,-1
74 467 m 1,76,-1
 74 538 l 1,77,-1
 139 538 l 1,78,-1
 139 467 l 1,79,-1
 74 467 l 1,76,-1
409 -13 m 1,80,-1
 409 61 l 1,81,-1
 704 61 l 1,82,-1
 704 -13 l 1,83,-1
 409 -13 l 1,80,-1
74 427 m 1,84,-1
 74 498 l 1,85,-1
 139 498 l 1,86,-1
 139 427 l 1,87,-1
 74 427 l 1,84,-1
74 387 m 1,88,-1
 74 458 l 1,89,-1
 139 458 l 1,90,-1
 139 387 l 1,91,-1
 74 387 l 1,88,-1
74 347 m 1,92,-1
 74 418 l 1,93,-1
 139 418 l 1,94,-1
 139 347 l 1,95,-1
 74 347 l 1,92,-1
74 307 m 1,96,-1
 74 378 l 1,97,-1
 139 378 l 1,98,-1
 139 307 l 1,99,-1
 74 307 l 1,96,-1
374 -13 m 1,100,-1
 374 58 l 1,101,-1
 439 58 l 1,102,-1
 439 -13 l 1,103,-1
 374 -13 l 1,100,-1
74 267 m 1,104,-1
 74 338 l 1,105,-1
 139 338 l 1,106,-1
 139 267 l 1,107,-1
 74 267 l 1,104,-1
74 227 m 1,108,-1
 74 298 l 1,109,-1
 139 298 l 1,110,-1
 139 227 l 1,111,-1
 74 227 l 1,108,-1
74 187 m 1,112,-1
 74 258 l 1,113,-1
 139 258 l 1,114,-1
 139 187 l 1,115,-1
 74 187 l 1,112,-1
74 147 m 1,116,-1
 74 218 l 1,117,-1
 139 218 l 1,118,-1
 139 147 l 1,119,-1
 74 147 l 1,116,-1
109 -13 m 1,120,-1
 109 61 l 1,121,-1
 404 61 l 1,122,-1
 404 -13 l 1,123,-1
 109 -13 l 1,120,-1
74 107 m 1,124,-1
 74 178 l 1,125,-1
 139 178 l 1,126,-1
 139 107 l 1,127,-1
 74 107 l 1,124,-1
74 67 m 1,128,-1
 74 138 l 1,129,-1
 139 138 l 1,130,-1
 139 67 l 1,131,-1
 74 67 l 1,128,-1
74 27 m 1,132,-1
 74 98 l 1,133,-1
 139 98 l 1,134,-1
 139 27 l 1,135,-1
 74 27 l 1,132,-1
EndSplineSet
EndChar

StartChar: P
Encoding: 80 80 40
Width: 803
GlyphClass: 2
Flags: W
LayerCount: 2
Fore
SplineSet
675 547 m 1,0,-1
 675 618 l 1,1,-1
 740 618 l 1,2,-1
 740 547 l 1,3,-1
 675 547 l 1,0,-1
675 507 m 1,4,-1
 675 578 l 1,5,-1
 740 578 l 1,6,-1
 740 507 l 1,7,-1
 675 507 l 1,4,-1
675 467 m 1,8,-1
 675 538 l 1,9,-1
 740 538 l 1,10,-1
 740 467 l 1,11,-1
 675 467 l 1,8,-1
410 587 m 1,12,-1
 410 661 l 1,13,-1
 705 661 l 1,14,-1
 705 587 l 1,15,-1
 410 587 l 1,12,-1
675 427 m 1,16,-1
 675 498 l 1,17,-1
 740 498 l 1,18,-1
 740 427 l 1,19,-1
 675 427 l 1,16,-1
675 387 m 1,20,-1
 675 458 l 1,21,-1
 740 458 l 1,22,-1
 740 387 l 1,23,-1
 675 387 l 1,20,-1
675 347 m 1,24,-1
 675 418 l 1,25,-1
 740 418 l 1,26,-1
 740 347 l 1,27,-1
 675 347 l 1,24,-1
375 587 m 1,28,-1
 375 658 l 1,29,-1
 440 658 l 1,30,-1
 440 587 l 1,31,-1
 375 587 l 1,28,-1
410 307 m 1,32,-1
 410 381 l 1,33,-1
 705 381 l 1,34,-1
 705 307 l 1,35,-1
 410 307 l 1,32,-1
110 587 m 1,36,-1
 110 661 l 1,37,-1
 405 661 l 1,38,-1
 405 587 l 1,39,-1
 110 587 l 1,36,-1
375 307 m 1,40,-1
 375 378 l 1,41,-1
 440 378 l 1,42,-1
 440 307 l 1,43,-1
 375 307 l 1,40,-1
75 587 m 1,44,-1
 75 658 l 1,45,-1
 140 658 l 1,46,-1
 140 587 l 1,47,-1
 75 587 l 1,44,-1
75 547 m 1,48,-1
 75 618 l 1,49,-1
 140 618 l 1,50,-1
 140 547 l 1,51,-1
 75 547 l 1,48,-1
75 507 m 1,52,-1
 75 578 l 1,53,-1
 140 578 l 1,54,-1
 140 507 l 1,55,-1
 75 507 l 1,52,-1
75 467 m 1,56,-1
 75 538 l 1,57,-1
 140 538 l 1,58,-1
 140 467 l 1,59,-1
 75 467 l 1,56,-1
110 307 m 1,60,-1
 110 381 l 1,61,-1
 405 381 l 1,62,-1
 405 307 l 1,63,-1
 110 307 l 1,60,-1
75 427 m 1,64,-1
 75 498 l 1,65,-1
 140 498 l 1,66,-1
 140 427 l 1,67,-1
 75 427 l 1,64,-1
75 387 m 1,68,-1
 75 458 l 1,69,-1
 140 458 l 1,70,-1
 140 387 l 1,71,-1
 75 387 l 1,68,-1
75 347 m 1,72,-1
 75 418 l 1,73,-1
 140 418 l 1,74,-1
 140 347 l 1,75,-1
 75 347 l 1,72,-1
75 307 m 1,76,-1
 75 378 l 1,77,-1
 140 378 l 1,78,-1
 140 307 l 1,79,-1
 75 307 l 1,76,-1
75 267 m 1,80,-1
 75 338 l 1,81,-1
 140 338 l 1,82,-1
 140 267 l 1,83,-1
 75 267 l 1,80,-1
75 227 m 1,84,-1
 75 298 l 1,85,-1
 140 298 l 1,86,-1
 140 227 l 1,87,-1
 75 227 l 1,84,-1
75 187 m 1,88,-1
 75 258 l 1,89,-1
 140 258 l 1,90,-1
 140 187 l 1,91,-1
 75 187 l 1,88,-1
75 147 m 1,92,-1
 75 218 l 1,93,-1
 140 218 l 1,94,-1
 140 147 l 1,95,-1
 75 147 l 1,92,-1
75 107 m 1,96,-1
 75 178 l 1,97,-1
 140 178 l 1,98,-1
 140 107 l 1,99,-1
 75 107 l 1,96,-1
75 67 m 1,100,-1
 75 138 l 1,101,-1
 140 138 l 1,102,-1
 140 67 l 1,103,-1
 75 67 l 1,100,-1
75 27 m 1,104,-1
 75 98 l 1,105,-1
 140 98 l 1,106,-1
 140 27 l 1,107,-1
 75 27 l 1,104,-1
75 -13 m 1,108,-1
 75 58 l 1,109,-1
 140 58 l 1,110,-1
 140 -13 l 1,111,-1
 75 -13 l 1,108,-1
EndSplineSet
EndChar

StartChar: Q
Encoding: 81 81 41
Width: 815
GlyphClass: 2
Flags: W
LayerCount: 2
Fore
SplineSet
675 587 m 1,0,-1
 675 658 l 1,1,-1
 740 658 l 1,2,-1
 740 587 l 1,3,-1
 675 587 l 1,0,-1
675 547 m 1,4,-1
 675 618 l 1,5,-1
 740 618 l 1,6,-1
 740 547 l 1,7,-1
 675 547 l 1,4,-1
675 507 m 1,8,-1
 675 578 l 1,9,-1
 740 578 l 1,10,-1
 740 507 l 1,11,-1
 675 507 l 1,8,-1
675 467 m 1,12,-1
 675 538 l 1,13,-1
 740 538 l 1,14,-1
 740 467 l 1,15,-1
 675 467 l 1,12,-1
410 587 m 1,16,-1
 410 661 l 1,17,-1
 705 661 l 1,18,-1
 705 587 l 1,19,-1
 410 587 l 1,16,-1
675 427 m 1,20,-1
 675 498 l 1,21,-1
 740 498 l 1,22,-1
 740 427 l 1,23,-1
 675 427 l 1,20,-1
675 387 m 1,24,-1
 675 458 l 1,25,-1
 740 458 l 1,26,-1
 740 387 l 1,27,-1
 675 387 l 1,24,-1
675 347 m 1,28,-1
 675 418 l 1,29,-1
 740 418 l 1,30,-1
 740 347 l 1,31,-1
 675 347 l 1,28,-1
675 307 m 1,32,-1
 675 378 l 1,33,-1
 740 378 l 1,34,-1
 740 307 l 1,35,-1
 675 307 l 1,32,-1
375 587 m 1,36,-1
 375 658 l 1,37,-1
 440 658 l 1,38,-1
 440 587 l 1,39,-1
 375 587 l 1,36,-1
675 267 m 1,40,-1
 675 338 l 1,41,-1
 740 338 l 1,42,-1
 740 267 l 1,43,-1
 675 267 l 1,40,-1
675 227 m 1,44,-1
 675 298 l 1,45,-1
 740 298 l 1,46,-1
 740 227 l 1,47,-1
 675 227 l 1,44,-1
675 187 m 1,48,-1
 675 258 l 1,49,-1
 740 258 l 1,50,-1
 740 187 l 1,51,-1
 675 187 l 1,48,-1
675 147 m 1,52,-1
 675 218 l 1,53,-1
 740 218 l 1,54,-1
 740 147 l 1,55,-1
 675 147 l 1,52,-1
110 587 m 1,56,-1
 110 661 l 1,57,-1
 405 661 l 1,58,-1
 405 587 l 1,59,-1
 110 587 l 1,56,-1
675 107 m 1,60,-1
 675 178 l 1,61,-1
 740 178 l 1,62,-1
 740 107 l 1,63,-1
 675 107 l 1,60,-1
675 67 m 1,64,-1
 675 138 l 1,65,-1
 740 138 l 1,66,-1
 740 67 l 1,67,-1
 675 67 l 1,64,-1
675 27 m 1,68,-1
 675 98 l 1,69,-1
 740 98 l 1,70,-1
 740 27 l 1,71,-1
 675 27 l 1,68,-1
75 587 m 1,72,-1
 75 658 l 1,73,-1
 140 658 l 1,74,-1
 140 587 l 1,75,-1
 75 587 l 1,72,-1
675 -13 m 1,76,-1
 675 58 l 1,77,-1
 740 58 l 1,78,-1
 740 -13 l 1,79,-1
 675 -13 l 1,76,-1
75 547 m 1,80,-1
 75 618 l 1,81,-1
 140 618 l 1,82,-1
 140 547 l 1,83,-1
 75 547 l 1,80,-1
75 507 m 1,84,-1
 75 578 l 1,85,-1
 140 578 l 1,86,-1
 140 507 l 1,87,-1
 75 507 l 1,84,-1
75 467 m 1,88,-1
 75 538 l 1,89,-1
 140 538 l 1,90,-1
 140 467 l 1,91,-1
 75 467 l 1,88,-1
410 -13 m 1,92,-1
 410 61 l 1,93,-1
 705 61 l 1,94,-1
 705 -13 l 1,95,-1
 410 -13 l 1,92,-1
75 427 m 1,96,-1
 75 498 l 1,97,-1
 140 498 l 1,98,-1
 140 427 l 1,99,-1
 75 427 l 1,96,-1
375 107 m 1,100,-1
 375 178 l 1,101,-1
 440 178 l 1,102,-1
 440 107 l 1,103,-1
 375 107 l 1,100,-1
75 387 m 1,104,-1
 75 458 l 1,105,-1
 140 458 l 1,106,-1
 140 387 l 1,107,-1
 75 387 l 1,104,-1
375 67 m 1,108,-1
 375 138 l 1,109,-1
 440 138 l 1,110,-1
 440 67 l 1,111,-1
 375 67 l 1,108,-1
75 347 m 1,112,-1
 75 418 l 1,113,-1
 140 418 l 1,114,-1
 140 347 l 1,115,-1
 75 347 l 1,112,-1
375 27 m 1,116,-1
 375 98 l 1,117,-1
 440 98 l 1,118,-1
 440 27 l 1,119,-1
 375 27 l 1,116,-1
75 307 m 1,120,-1
 75 378 l 1,121,-1
 140 378 l 1,122,-1
 140 307 l 1,123,-1
 75 307 l 1,120,-1
375 -13 m 1,124,-1
 375 58 l 1,125,-1
 440 58 l 1,126,-1
 440 -13 l 1,127,-1
 375 -13 l 1,124,-1
75 267 m 1,128,-1
 75 338 l 1,129,-1
 140 338 l 1,130,-1
 140 267 l 1,131,-1
 75 267 l 1,128,-1
75 227 m 1,132,-1
 75 298 l 1,133,-1
 140 298 l 1,134,-1
 140 227 l 1,135,-1
 75 227 l 1,132,-1
75 187 m 1,136,-1
 75 258 l 1,137,-1
 140 258 l 1,138,-1
 140 187 l 1,139,-1
 75 187 l 1,136,-1
75 147 m 1,140,-1
 75 218 l 1,141,-1
 140 218 l 1,142,-1
 140 147 l 1,143,-1
 75 147 l 1,140,-1
110 -13 m 1,144,-1
 110 61 l 1,145,-1
 405 61 l 1,146,-1
 405 -13 l 1,147,-1
 110 -13 l 1,144,-1
75 107 m 1,148,-1
 75 178 l 1,149,-1
 140 178 l 1,150,-1
 140 107 l 1,151,-1
 75 107 l 1,148,-1
75 67 m 1,152,-1
 75 138 l 1,153,-1
 140 138 l 1,154,-1
 140 67 l 1,155,-1
 75 67 l 1,152,-1
75 27 m 1,156,-1
 75 98 l 1,157,-1
 140 98 l 1,158,-1
 140 27 l 1,159,-1
 75 27 l 1,156,-1
75 -13 m 1,160,-1
 75 58 l 1,161,-1
 140 58 l 1,162,-1
 140 -13 l 1,163,-1
 75 -13 l 1,160,-1
EndSplineSet
EndChar

StartChar: R
Encoding: 82 82 42
Width: 802
GlyphClass: 2
Flags: W
LayerCount: 2
Fore
SplineSet
675 587 m 1,0,-1
 675 658 l 1,1,-1
 740 658 l 1,2,-1
 740 587 l 1,3,-1
 675 587 l 1,0,-1
675 547 m 1,4,-1
 675 618 l 1,5,-1
 740 618 l 1,6,-1
 740 547 l 1,7,-1
 675 547 l 1,4,-1
675 507 m 1,8,-1
 675 578 l 1,9,-1
 740 578 l 1,10,-1
 740 507 l 1,11,-1
 675 507 l 1,8,-1
675 467 m 1,12,-1
 675 538 l 1,13,-1
 740 538 l 1,14,-1
 740 467 l 1,15,-1
 675 467 l 1,12,-1
410 587 m 1,16,-1
 410 661 l 1,17,-1
 705 661 l 1,18,-1
 705 587 l 1,19,-1
 410 587 l 1,16,-1
675 427 m 1,20,-1
 675 498 l 1,21,-1
 740 498 l 1,22,-1
 740 427 l 1,23,-1
 675 427 l 1,20,-1
675 387 m 1,24,-1
 675 458 l 1,25,-1
 740 458 l 1,26,-1
 740 387 l 1,27,-1
 675 387 l 1,24,-1
675 347 m 1,28,-1
 675 418 l 1,29,-1
 740 418 l 1,30,-1
 740 347 l 1,31,-1
 675 347 l 1,28,-1
375 587 m 1,32,-1
 375 658 l 1,33,-1
 440 658 l 1,34,-1
 440 587 l 1,35,-1
 375 587 l 1,32,-1
410 347 m 1,36,-1
 410 421 l 1,37,-1
 705 421 l 1,38,-1
 705 347 l 1,39,-1
 410 347 l 1,36,-1
110 587 m 1,40,-1
 110 661 l 1,41,-1
 405 661 l 1,42,-1
 405 587 l 1,43,-1
 110 587 l 1,40,-1
375 347 m 1,44,-1
 375 418 l 1,45,-1
 440 418 l 1,46,-1
 440 347 l 1,47,-1
 375 347 l 1,44,-1
375 307 m 1,48,-1
 375 378 l 1,49,-1
 440 378 l 1,50,-1
 440 307 l 1,51,-1
 375 307 l 1,48,-1
75 587 m 1,52,-1
 75 658 l 1,53,-1
 140 658 l 1,54,-1
 140 587 l 1,55,-1
 75 587 l 1,52,-1
375 267 m 1,56,-1
 375 338 l 1,57,-1
 440 338 l 1,58,-1
 440 267 l 1,59,-1
 375 267 l 1,56,-1
75 547 m 1,60,-1
 75 618 l 1,61,-1
 140 618 l 1,62,-1
 140 547 l 1,63,-1
 75 547 l 1,60,-1
375 227 m 1,64,-1
 375 298 l 1,65,-1
 440 298 l 1,66,-1
 440 227 l 1,67,-1
 375 227 l 1,64,-1
75 507 m 1,68,-1
 75 578 l 1,69,-1
 140 578 l 1,70,-1
 140 507 l 1,71,-1
 75 507 l 1,68,-1
110 347 m 1,72,-1
 110 421 l 1,73,-1
 405 421 l 1,74,-1
 405 347 l 1,75,-1
 110 347 l 1,72,-1
375 187 m 1,76,-1
 375 258 l 1,77,-1
 440 258 l 1,78,-1
 440 187 l 1,79,-1
 375 187 l 1,76,-1
75 467 m 1,80,-1
 75 538 l 1,81,-1
 140 538 l 1,82,-1
 140 467 l 1,83,-1
 75 467 l 1,80,-1
375 147 m 1,84,-1
 375 218 l 1,85,-1
 440 218 l 1,86,-1
 440 147 l 1,87,-1
 375 147 l 1,84,-1
75 427 m 1,88,-1
 75 498 l 1,89,-1
 140 498 l 1,90,-1
 140 427 l 1,91,-1
 75 427 l 1,88,-1
375 107 m 1,92,-1
 375 178 l 1,93,-1
 440 178 l 1,94,-1
 440 107 l 1,95,-1
 375 107 l 1,92,-1
75 387 m 1,96,-1
 75 458 l 1,97,-1
 140 458 l 1,98,-1
 140 387 l 1,99,-1
 75 387 l 1,96,-1
375 67 m 1,100,-1
 375 138 l 1,101,-1
 440 138 l 1,102,-1
 440 67 l 1,103,-1
 375 67 l 1,100,-1
75 347 m 1,104,-1
 75 418 l 1,105,-1
 140 418 l 1,106,-1
 140 347 l 1,107,-1
 75 347 l 1,104,-1
375 27 m 1,108,-1
 375 98 l 1,109,-1
 440 98 l 1,110,-1
 440 27 l 1,111,-1
 375 27 l 1,108,-1
75 307 m 1,112,-1
 75 378 l 1,113,-1
 140 378 l 1,114,-1
 140 307 l 1,115,-1
 75 307 l 1,112,-1
375 -13 m 1,116,-1
 375 58 l 1,117,-1
 440 58 l 1,118,-1
 440 -13 l 1,119,-1
 375 -13 l 1,116,-1
75 267 m 1,120,-1
 75 338 l 1,121,-1
 140 338 l 1,122,-1
 140 267 l 1,123,-1
 75 267 l 1,120,-1
75 227 m 1,124,-1
 75 298 l 1,125,-1
 140 298 l 1,126,-1
 140 227 l 1,127,-1
 75 227 l 1,124,-1
75 187 m 1,128,-1
 75 258 l 1,129,-1
 140 258 l 1,130,-1
 140 187 l 1,131,-1
 75 187 l 1,128,-1
75 147 m 1,132,-1
 75 218 l 1,133,-1
 140 218 l 1,134,-1
 140 147 l 1,135,-1
 75 147 l 1,132,-1
75 107 m 1,136,-1
 75 178 l 1,137,-1
 140 178 l 1,138,-1
 140 107 l 1,139,-1
 75 107 l 1,136,-1
75 67 m 1,140,-1
 75 138 l 1,141,-1
 140 138 l 1,142,-1
 140 67 l 1,143,-1
 75 67 l 1,140,-1
75 27 m 1,144,-1
 75 98 l 1,145,-1
 140 98 l 1,146,-1
 140 27 l 1,147,-1
 75 27 l 1,144,-1
75 -13 m 1,148,-1
 75 58 l 1,149,-1
 140 58 l 1,150,-1
 140 -13 l 1,151,-1
 75 -13 l 1,148,-1
EndSplineSet
EndChar

StartChar: S
Encoding: 83 83 43
Width: 815
GlyphClass: 2
Flags: W
LayerCount: 2
Fore
SplineSet
675 587 m 1,0,-1
 675 658 l 1,1,-1
 740 658 l 1,2,-1
 740 587 l 1,3,-1
 675 587 l 1,0,-1
410 587 m 1,4,-1
 410 661 l 1,5,-1
 705 661 l 1,6,-1
 705 587 l 1,7,-1
 410 587 l 1,4,-1
675 307 m 1,8,-1
 675 378 l 1,9,-1
 740 378 l 1,10,-1
 740 307 l 1,11,-1
 675 307 l 1,8,-1
375 587 m 1,12,-1
 375 658 l 1,13,-1
 440 658 l 1,14,-1
 440 587 l 1,15,-1
 375 587 l 1,12,-1
675 267 m 1,16,-1
 675 338 l 1,17,-1
 740 338 l 1,18,-1
 740 267 l 1,19,-1
 675 267 l 1,16,-1
675 227 m 1,20,-1
 675 298 l 1,21,-1
 740 298 l 1,22,-1
 740 227 l 1,23,-1
 675 227 l 1,20,-1
675 187 m 1,24,-1
 675 258 l 1,25,-1
 740 258 l 1,26,-1
 740 187 l 1,27,-1
 675 187 l 1,24,-1
410 307 m 1,28,-1
 410 381 l 1,29,-1
 705 381 l 1,30,-1
 705 307 l 1,31,-1
 410 307 l 1,28,-1
675 147 m 1,32,-1
 675 218 l 1,33,-1
 740 218 l 1,34,-1
 740 147 l 1,35,-1
 675 147 l 1,32,-1
110 587 m 1,36,-1
 110 661 l 1,37,-1
 405 661 l 1,38,-1
 405 587 l 1,39,-1
 110 587 l 1,36,-1
675 107 m 1,40,-1
 675 178 l 1,41,-1
 740 178 l 1,42,-1
 740 107 l 1,43,-1
 675 107 l 1,40,-1
675 67 m 1,44,-1
 675 138 l 1,45,-1
 740 138 l 1,46,-1
 740 67 l 1,47,-1
 675 67 l 1,44,-1
675 27 m 1,48,-1
 675 98 l 1,49,-1
 740 98 l 1,50,-1
 740 27 l 1,51,-1
 675 27 l 1,48,-1
375 307 m 1,52,-1
 375 378 l 1,53,-1
 440 378 l 1,54,-1
 440 307 l 1,55,-1
 375 307 l 1,52,-1
75 587 m 1,56,-1
 75 658 l 1,57,-1
 140 658 l 1,58,-1
 140 587 l 1,59,-1
 75 587 l 1,56,-1
675 -13 m 1,60,-1
 675 58 l 1,61,-1
 740 58 l 1,62,-1
 740 -13 l 1,63,-1
 675 -13 l 1,60,-1
75 547 m 1,64,-1
 75 618 l 1,65,-1
 140 618 l 1,66,-1
 140 547 l 1,67,-1
 75 547 l 1,64,-1
75 507 m 1,68,-1
 75 578 l 1,69,-1
 140 578 l 1,70,-1
 140 507 l 1,71,-1
 75 507 l 1,68,-1
75 467 m 1,72,-1
 75 538 l 1,73,-1
 140 538 l 1,74,-1
 140 467 l 1,75,-1
 75 467 l 1,72,-1
110 307 m 1,76,-1
 110 381 l 1,77,-1
 405 381 l 1,78,-1
 405 307 l 1,79,-1
 110 307 l 1,76,-1
410 -13 m 1,80,-1
 410 61 l 1,81,-1
 705 61 l 1,82,-1
 705 -13 l 1,83,-1
 410 -13 l 1,80,-1
75 427 m 1,84,-1
 75 498 l 1,85,-1
 140 498 l 1,86,-1
 140 427 l 1,87,-1
 75 427 l 1,84,-1
75 387 m 1,88,-1
 75 458 l 1,89,-1
 140 458 l 1,90,-1
 140 387 l 1,91,-1
 75 387 l 1,88,-1
75 347 m 1,92,-1
 75 418 l 1,93,-1
 140 418 l 1,94,-1
 140 347 l 1,95,-1
 75 347 l 1,92,-1
75 307 m 1,96,-1
 75 378 l 1,97,-1
 140 378 l 1,98,-1
 140 307 l 1,99,-1
 75 307 l 1,96,-1
375 -13 m 1,100,-1
 375 58 l 1,101,-1
 440 58 l 1,102,-1
 440 -13 l 1,103,-1
 375 -13 l 1,100,-1
110 -13 m 1,104,-1
 110 61 l 1,105,-1
 405 61 l 1,106,-1
 405 -13 l 1,107,-1
 110 -13 l 1,104,-1
75 -13 m 1,108,-1
 75 58 l 1,109,-1
 140 58 l 1,110,-1
 140 -13 l 1,111,-1
 75 -13 l 1,108,-1
EndSplineSet
EndChar

StartChar: T
Encoding: 84 84 44
Width: 762
GlyphClass: 2
Flags: W
LayerCount: 2
Fore
SplineSet
648 587 m 1,0,-1
 648 658 l 1,1,-1
 713 658 l 1,2,-1
 713 587 l 1,3,-1
 648 587 l 1,0,-1
383 587 m 1,4,-1
 383 661 l 1,5,-1
 678 661 l 1,6,-1
 678 587 l 1,7,-1
 383 587 l 1,4,-1
348 587 m 1,8,-1
 348 658 l 1,9,-1
 413 658 l 1,10,-1
 413 587 l 1,11,-1
 348 587 l 1,8,-1
348 547 m 1,12,-1
 348 618 l 1,13,-1
 413 618 l 1,14,-1
 413 547 l 1,15,-1
 348 547 l 1,12,-1
348 507 m 1,16,-1
 348 578 l 1,17,-1
 413 578 l 1,18,-1
 413 507 l 1,19,-1
 348 507 l 1,16,-1
348 467 m 1,20,-1
 348 538 l 1,21,-1
 413 538 l 1,22,-1
 413 467 l 1,23,-1
 348 467 l 1,20,-1
83 587 m 1,24,-1
 83 661 l 1,25,-1
 378 661 l 1,26,-1
 378 587 l 1,27,-1
 83 587 l 1,24,-1
348 427 m 1,28,-1
 348 498 l 1,29,-1
 413 498 l 1,30,-1
 413 427 l 1,31,-1
 348 427 l 1,28,-1
348 387 m 1,32,-1
 348 458 l 1,33,-1
 413 458 l 1,34,-1
 413 387 l 1,35,-1
 348 387 l 1,32,-1
348 347 m 1,36,-1
 348 418 l 1,37,-1
 413 418 l 1,38,-1
 413 347 l 1,39,-1
 348 347 l 1,36,-1
348 307 m 1,40,-1
 348 378 l 1,41,-1
 413 378 l 1,42,-1
 413 307 l 1,43,-1
 348 307 l 1,40,-1
48 587 m 1,44,-1
 48 658 l 1,45,-1
 113 658 l 1,46,-1
 113 587 l 1,47,-1
 48 587 l 1,44,-1
348 267 m 1,48,-1
 348 338 l 1,49,-1
 413 338 l 1,50,-1
 413 267 l 1,51,-1
 348 267 l 1,48,-1
348 227 m 1,52,-1
 348 298 l 1,53,-1
 413 298 l 1,54,-1
 413 227 l 1,55,-1
 348 227 l 1,52,-1
348 187 m 1,56,-1
 348 258 l 1,57,-1
 413 258 l 1,58,-1
 413 187 l 1,59,-1
 348 187 l 1,56,-1
348 147 m 1,60,-1
 348 218 l 1,61,-1
 413 218 l 1,62,-1
 413 147 l 1,63,-1
 348 147 l 1,60,-1
348 107 m 1,64,-1
 348 178 l 1,65,-1
 413 178 l 1,66,-1
 413 107 l 1,67,-1
 348 107 l 1,64,-1
348 67 m 1,68,-1
 348 138 l 1,69,-1
 413 138 l 1,70,-1
 413 67 l 1,71,-1
 348 67 l 1,68,-1
348 27 m 1,72,-1
 348 98 l 1,73,-1
 413 98 l 1,74,-1
 413 27 l 1,75,-1
 348 27 l 1,72,-1
348 -13 m 1,76,-1
 348 58 l 1,77,-1
 413 58 l 1,78,-1
 413 -13 l 1,79,-1
 348 -13 l 1,76,-1
EndSplineSet
EndChar

StartChar: U
Encoding: 85 85 45
Width: 815
GlyphClass: 2
Flags: W
LayerCount: 2
Fore
SplineSet
675 587 m 1,0,-1
 675 658 l 1,1,-1
 740 658 l 1,2,-1
 740 587 l 1,3,-1
 675 587 l 1,0,-1
675 547 m 1,4,-1
 675 618 l 1,5,-1
 740 618 l 1,6,-1
 740 547 l 1,7,-1
 675 547 l 1,4,-1
675 507 m 1,8,-1
 675 578 l 1,9,-1
 740 578 l 1,10,-1
 740 507 l 1,11,-1
 675 507 l 1,8,-1
675 467 m 1,12,-1
 675 538 l 1,13,-1
 740 538 l 1,14,-1
 740 467 l 1,15,-1
 675 467 l 1,12,-1
675 427 m 1,16,-1
 675 498 l 1,17,-1
 740 498 l 1,18,-1
 740 427 l 1,19,-1
 675 427 l 1,16,-1
675 387 m 1,20,-1
 675 458 l 1,21,-1
 740 458 l 1,22,-1
 740 387 l 1,23,-1
 675 387 l 1,20,-1
675 347 m 1,24,-1
 675 418 l 1,25,-1
 740 418 l 1,26,-1
 740 347 l 1,27,-1
 675 347 l 1,24,-1
675 307 m 1,28,-1
 675 378 l 1,29,-1
 740 378 l 1,30,-1
 740 307 l 1,31,-1
 675 307 l 1,28,-1
675 267 m 1,32,-1
 675 338 l 1,33,-1
 740 338 l 1,34,-1
 740 267 l 1,35,-1
 675 267 l 1,32,-1
675 227 m 1,36,-1
 675 298 l 1,37,-1
 740 298 l 1,38,-1
 740 227 l 1,39,-1
 675 227 l 1,36,-1
675 187 m 1,40,-1
 675 258 l 1,41,-1
 740 258 l 1,42,-1
 740 187 l 1,43,-1
 675 187 l 1,40,-1
675 147 m 1,44,-1
 675 218 l 1,45,-1
 740 218 l 1,46,-1
 740 147 l 1,47,-1
 675 147 l 1,44,-1
675 107 m 1,48,-1
 675 178 l 1,49,-1
 740 178 l 1,50,-1
 740 107 l 1,51,-1
 675 107 l 1,48,-1
675 67 m 1,52,-1
 675 138 l 1,53,-1
 740 138 l 1,54,-1
 740 67 l 1,55,-1
 675 67 l 1,52,-1
675 27 m 1,56,-1
 675 98 l 1,57,-1
 740 98 l 1,58,-1
 740 27 l 1,59,-1
 675 27 l 1,56,-1
75 587 m 1,60,-1
 75 658 l 1,61,-1
 140 658 l 1,62,-1
 140 587 l 1,63,-1
 75 587 l 1,60,-1
675 -13 m 1,64,-1
 675 58 l 1,65,-1
 740 58 l 1,66,-1
 740 -13 l 1,67,-1
 675 -13 l 1,64,-1
75 547 m 1,68,-1
 75 618 l 1,69,-1
 140 618 l 1,70,-1
 140 547 l 1,71,-1
 75 547 l 1,68,-1
75 507 m 1,72,-1
 75 578 l 1,73,-1
 140 578 l 1,74,-1
 140 507 l 1,75,-1
 75 507 l 1,72,-1
75 467 m 1,76,-1
 75 538 l 1,77,-1
 140 538 l 1,78,-1
 140 467 l 1,79,-1
 75 467 l 1,76,-1
410 -13 m 1,80,-1
 410 61 l 1,81,-1
 705 61 l 1,82,-1
 705 -13 l 1,83,-1
 410 -13 l 1,80,-1
75 427 m 1,84,-1
 75 498 l 1,85,-1
 140 498 l 1,86,-1
 140 427 l 1,87,-1
 75 427 l 1,84,-1
75 387 m 1,88,-1
 75 458 l 1,89,-1
 140 458 l 1,90,-1
 140 387 l 1,91,-1
 75 387 l 1,88,-1
75 347 m 1,92,-1
 75 418 l 1,93,-1
 140 418 l 1,94,-1
 140 347 l 1,95,-1
 75 347 l 1,92,-1
75 307 m 1,96,-1
 75 378 l 1,97,-1
 140 378 l 1,98,-1
 140 307 l 1,99,-1
 75 307 l 1,96,-1
375 -13 m 1,100,-1
 375 58 l 1,101,-1
 440 58 l 1,102,-1
 440 -13 l 1,103,-1
 375 -13 l 1,100,-1
75 267 m 1,104,-1
 75 338 l 1,105,-1
 140 338 l 1,106,-1
 140 267 l 1,107,-1
 75 267 l 1,104,-1
75 227 m 1,108,-1
 75 298 l 1,109,-1
 140 298 l 1,110,-1
 140 227 l 1,111,-1
 75 227 l 1,108,-1
75 187 m 1,112,-1
 75 258 l 1,113,-1
 140 258 l 1,114,-1
 140 187 l 1,115,-1
 75 187 l 1,112,-1
75 147 m 1,116,-1
 75 218 l 1,117,-1
 140 218 l 1,118,-1
 140 147 l 1,119,-1
 75 147 l 1,116,-1
110 -13 m 1,120,-1
 110 61 l 1,121,-1
 405 61 l 1,122,-1
 405 -13 l 1,123,-1
 110 -13 l 1,120,-1
75 107 m 1,124,-1
 75 178 l 1,125,-1
 140 178 l 1,126,-1
 140 107 l 1,127,-1
 75 107 l 1,124,-1
75 67 m 1,128,-1
 75 138 l 1,129,-1
 140 138 l 1,130,-1
 140 67 l 1,131,-1
 75 67 l 1,128,-1
75 27 m 1,132,-1
 75 98 l 1,133,-1
 140 98 l 1,134,-1
 140 27 l 1,135,-1
 75 27 l 1,132,-1
EndSplineSet
EndChar

StartChar: V
Encoding: 86 86 46
Width: 815
GlyphClass: 2
Flags: W
LayerCount: 2
Fore
SplineSet
675 587 m 1,0,-1
 675 658 l 1,1,-1
 740 658 l 1,2,-1
 740 587 l 1,3,-1
 675 587 l 1,0,-1
675 547 m 1,4,-1
 675 618 l 1,5,-1
 740 618 l 1,6,-1
 740 547 l 1,7,-1
 675 547 l 1,4,-1
675 507 m 1,8,-1
 675 578 l 1,9,-1
 740 578 l 1,10,-1
 740 507 l 1,11,-1
 675 507 l 1,8,-1
675 467 m 1,12,-1
 675 538 l 1,13,-1
 740 538 l 1,14,-1
 740 467 l 1,15,-1
 675 467 l 1,12,-1
675 427 m 1,16,-1
 675 498 l 1,17,-1
 740 498 l 1,18,-1
 740 427 l 1,19,-1
 675 427 l 1,16,-1
675 387 m 1,20,-1
 675 458 l 1,21,-1
 740 458 l 1,22,-1
 740 387 l 1,23,-1
 675 387 l 1,20,-1
675 347 m 1,24,-1
 675 418 l 1,25,-1
 740 418 l 1,26,-1
 740 347 l 1,27,-1
 675 347 l 1,24,-1
675 307 m 1,28,-1
 675 378 l 1,29,-1
 740 378 l 1,30,-1
 740 307 l 1,31,-1
 675 307 l 1,28,-1
675 267 m 1,32,-1
 675 338 l 1,33,-1
 740 338 l 1,34,-1
 740 267 l 1,35,-1
 675 267 l 1,32,-1
675 227 m 1,36,-1
 675 298 l 1,37,-1
 740 298 l 1,38,-1
 740 227 l 1,39,-1
 675 227 l 1,36,-1
675 187 m 1,40,-1
 675 258 l 1,41,-1
 740 258 l 1,42,-1
 740 187 l 1,43,-1
 675 187 l 1,40,-1
675 147 m 1,44,-1
 675 218 l 1,45,-1
 740 218 l 1,46,-1
 740 147 l 1,47,-1
 675 147 l 1,44,-1
675 107 m 1,48,-1
 675 178 l 1,49,-1
 740 178 l 1,50,-1
 740 107 l 1,51,-1
 675 107 l 1,48,-1
675 67 m 1,52,-1
 675 138 l 1,53,-1
 740 138 l 1,54,-1
 740 67 l 1,55,-1
 675 67 l 1,52,-1
675 27 m 1,56,-1
 675 98 l 1,57,-1
 740 98 l 1,58,-1
 740 27 l 1,59,-1
 675 27 l 1,56,-1
75 587 m 1,60,-1
 75 658 l 1,61,-1
 140 658 l 1,62,-1
 140 587 l 1,63,-1
 75 587 l 1,60,-1
75 547 m 1,64,-1
 75 618 l 1,65,-1
 140 618 l 1,66,-1
 140 547 l 1,67,-1
 75 547 l 1,64,-1
75 507 m 1,68,-1
 75 578 l 1,69,-1
 140 578 l 1,70,-1
 140 507 l 1,71,-1
 75 507 l 1,68,-1
410 27 m 1,72,-1
 410 101 l 1,73,-1
 705 101 l 1,74,-1
 705 27 l 1,75,-1
 410 27 l 1,72,-1
75 467 m 1,76,-1
 75 538 l 1,77,-1
 140 538 l 1,78,-1
 140 467 l 1,79,-1
 75 467 l 1,76,-1
75 427 m 1,80,-1
 75 498 l 1,81,-1
 140 498 l 1,82,-1
 140 427 l 1,83,-1
 75 427 l 1,80,-1
75 387 m 1,84,-1
 75 458 l 1,85,-1
 140 458 l 1,86,-1
 140 387 l 1,87,-1
 75 387 l 1,84,-1
75 347 m 1,88,-1
 75 418 l 1,89,-1
 140 418 l 1,90,-1
 140 347 l 1,91,-1
 75 347 l 1,88,-1
375 27 m 1,92,-1
 375 98 l 1,93,-1
 440 98 l 1,94,-1
 440 27 l 1,95,-1
 375 27 l 1,92,-1
75 307 m 1,96,-1
 75 378 l 1,97,-1
 140 378 l 1,98,-1
 140 307 l 1,99,-1
 75 307 l 1,96,-1
375 -13 m 1,100,-1
 375 58 l 1,101,-1
 440 58 l 1,102,-1
 440 -13 l 1,103,-1
 375 -13 l 1,100,-1
75 267 m 1,104,-1
 75 338 l 1,105,-1
 140 338 l 1,106,-1
 140 267 l 1,107,-1
 75 267 l 1,104,-1
75 227 m 1,108,-1
 75 298 l 1,109,-1
 140 298 l 1,110,-1
 140 227 l 1,111,-1
 75 227 l 1,108,-1
75 187 m 1,112,-1
 75 258 l 1,113,-1
 140 258 l 1,114,-1
 140 187 l 1,115,-1
 75 187 l 1,112,-1
110 27 m 1,116,-1
 110 101 l 1,117,-1
 405 101 l 1,118,-1
 405 27 l 1,119,-1
 110 27 l 1,116,-1
75 147 m 1,120,-1
 75 218 l 1,121,-1
 140 218 l 1,122,-1
 140 147 l 1,123,-1
 75 147 l 1,120,-1
75 107 m 1,124,-1
 75 178 l 1,125,-1
 140 178 l 1,126,-1
 140 107 l 1,127,-1
 75 107 l 1,124,-1
75 67 m 1,128,-1
 75 138 l 1,129,-1
 140 138 l 1,130,-1
 140 67 l 1,131,-1
 75 67 l 1,128,-1
75 27 m 1,132,-1
 75 98 l 1,133,-1
 140 98 l 1,134,-1
 140 27 l 1,135,-1
 75 27 l 1,132,-1
EndSplineSet
EndChar

StartChar: W
Encoding: 87 87 47
Width: 815
GlyphClass: 2
Flags: W
LayerCount: 2
Fore
SplineSet
675 587 m 1,0,-1
 675 658 l 1,1,-1
 740 658 l 1,2,-1
 740 587 l 1,3,-1
 675 587 l 1,0,-1
675 547 m 1,4,-1
 675 618 l 1,5,-1
 740 618 l 1,6,-1
 740 547 l 1,7,-1
 675 547 l 1,4,-1
675 507 m 1,8,-1
 675 578 l 1,9,-1
 740 578 l 1,10,-1
 740 507 l 1,11,-1
 675 507 l 1,8,-1
675 467 m 1,12,-1
 675 538 l 1,13,-1
 740 538 l 1,14,-1
 740 467 l 1,15,-1
 675 467 l 1,12,-1
675 427 m 1,16,-1
 675 498 l 1,17,-1
 740 498 l 1,18,-1
 740 427 l 1,19,-1
 675 427 l 1,16,-1
675 387 m 1,20,-1
 675 458 l 1,21,-1
 740 458 l 1,22,-1
 740 387 l 1,23,-1
 675 387 l 1,20,-1
675 347 m 1,24,-1
 675 418 l 1,25,-1
 740 418 l 1,26,-1
 740 347 l 1,27,-1
 675 347 l 1,24,-1
675 307 m 1,28,-1
 675 378 l 1,29,-1
 740 378 l 1,30,-1
 740 307 l 1,31,-1
 675 307 l 1,28,-1
375 587 m 1,32,-1
 375 658 l 1,33,-1
 440 658 l 1,34,-1
 440 587 l 1,35,-1
 375 587 l 1,32,-1
675 267 m 1,36,-1
 675 338 l 1,37,-1
 740 338 l 1,38,-1
 740 267 l 1,39,-1
 675 267 l 1,36,-1
375 547 m 1,40,-1
 375 618 l 1,41,-1
 440 618 l 1,42,-1
 440 547 l 1,43,-1
 375 547 l 1,40,-1
675 227 m 1,44,-1
 675 298 l 1,45,-1
 740 298 l 1,46,-1
 740 227 l 1,47,-1
 675 227 l 1,44,-1
375 507 m 1,48,-1
 375 578 l 1,49,-1
 440 578 l 1,50,-1
 440 507 l 1,51,-1
 375 507 l 1,48,-1
675 187 m 1,52,-1
 675 258 l 1,53,-1
 740 258 l 1,54,-1
 740 187 l 1,55,-1
 675 187 l 1,52,-1
375 467 m 1,56,-1
 375 538 l 1,57,-1
 440 538 l 1,58,-1
 440 467 l 1,59,-1
 375 467 l 1,56,-1
675 147 m 1,60,-1
 675 218 l 1,61,-1
 740 218 l 1,62,-1
 740 147 l 1,63,-1
 675 147 l 1,60,-1
375 427 m 1,64,-1
 375 498 l 1,65,-1
 440 498 l 1,66,-1
 440 427 l 1,67,-1
 375 427 l 1,64,-1
675 107 m 1,68,-1
 675 178 l 1,69,-1
 740 178 l 1,70,-1
 740 107 l 1,71,-1
 675 107 l 1,68,-1
375 387 m 1,72,-1
 375 458 l 1,73,-1
 440 458 l 1,74,-1
 440 387 l 1,75,-1
 375 387 l 1,72,-1
675 67 m 1,76,-1
 675 138 l 1,77,-1
 740 138 l 1,78,-1
 740 67 l 1,79,-1
 675 67 l 1,76,-1
375 347 m 1,80,-1
 375 418 l 1,81,-1
 440 418 l 1,82,-1
 440 347 l 1,83,-1
 375 347 l 1,80,-1
675 27 m 1,84,-1
 675 98 l 1,85,-1
 740 98 l 1,86,-1
 740 27 l 1,87,-1
 675 27 l 1,84,-1
375 307 m 1,88,-1
 375 378 l 1,89,-1
 440 378 l 1,90,-1
 440 307 l 1,91,-1
 375 307 l 1,88,-1
75 587 m 1,92,-1
 75 658 l 1,93,-1
 140 658 l 1,94,-1
 140 587 l 1,95,-1
 75 587 l 1,92,-1
375 267 m 1,96,-1
 375 338 l 1,97,-1
 440 338 l 1,98,-1
 440 267 l 1,99,-1
 375 267 l 1,96,-1
75 547 m 1,100,-1
 75 618 l 1,101,-1
 140 618 l 1,102,-1
 140 547 l 1,103,-1
 75 547 l 1,100,-1
375 227 m 1,104,-1
 375 298 l 1,105,-1
 440 298 l 1,106,-1
 440 227 l 1,107,-1
 375 227 l 1,104,-1
75 507 m 1,108,-1
 75 578 l 1,109,-1
 140 578 l 1,110,-1
 140 507 l 1,111,-1
 75 507 l 1,108,-1
375 187 m 1,112,-1
 375 258 l 1,113,-1
 440 258 l 1,114,-1
 440 187 l 1,115,-1
 375 187 l 1,112,-1
75 467 m 1,116,-1
 75 538 l 1,117,-1
 140 538 l 1,118,-1
 140 467 l 1,119,-1
 75 467 l 1,116,-1
375 147 m 1,120,-1
 375 218 l 1,121,-1
 440 218 l 1,122,-1
 440 147 l 1,123,-1
 375 147 l 1,120,-1
410 -13 m 1,124,-1
 410 61 l 1,125,-1
 705 61 l 1,126,-1
 705 -13 l 1,127,-1
 410 -13 l 1,124,-1
75 427 m 1,128,-1
 75 498 l 1,129,-1
 140 498 l 1,130,-1
 140 427 l 1,131,-1
 75 427 l 1,128,-1
375 107 m 1,132,-1
 375 178 l 1,133,-1
 440 178 l 1,134,-1
 440 107 l 1,135,-1
 375 107 l 1,132,-1
75 387 m 1,136,-1
 75 458 l 1,137,-1
 140 458 l 1,138,-1
 140 387 l 1,139,-1
 75 387 l 1,136,-1
375 67 m 1,140,-1
 375 138 l 1,141,-1
 440 138 l 1,142,-1
 440 67 l 1,143,-1
 375 67 l 1,140,-1
75 347 m 1,144,-1
 75 418 l 1,145,-1
 140 418 l 1,146,-1
 140 347 l 1,147,-1
 75 347 l 1,144,-1
375 27 m 1,148,-1
 375 98 l 1,149,-1
 440 98 l 1,150,-1
 440 27 l 1,151,-1
 375 27 l 1,148,-1
75 307 m 1,152,-1
 75 378 l 1,153,-1
 140 378 l 1,154,-1
 140 307 l 1,155,-1
 75 307 l 1,152,-1
375 -13 m 1,156,-1
 375 58 l 1,157,-1
 440 58 l 1,158,-1
 440 -13 l 1,159,-1
 375 -13 l 1,156,-1
75 267 m 1,160,-1
 75 338 l 1,161,-1
 140 338 l 1,162,-1
 140 267 l 1,163,-1
 75 267 l 1,160,-1
75 227 m 1,164,-1
 75 298 l 1,165,-1
 140 298 l 1,166,-1
 140 227 l 1,167,-1
 75 227 l 1,164,-1
75 187 m 1,168,-1
 75 258 l 1,169,-1
 140 258 l 1,170,-1
 140 187 l 1,171,-1
 75 187 l 1,168,-1
75 147 m 1,172,-1
 75 218 l 1,173,-1
 140 218 l 1,174,-1
 140 147 l 1,175,-1
 75 147 l 1,172,-1
110 -13 m 1,176,-1
 110 61 l 1,177,-1
 405 61 l 1,178,-1
 405 -13 l 1,179,-1
 110 -13 l 1,176,-1
75 107 m 1,180,-1
 75 178 l 1,181,-1
 140 178 l 1,182,-1
 140 107 l 1,183,-1
 75 107 l 1,180,-1
75 67 m 1,184,-1
 75 138 l 1,185,-1
 140 138 l 1,186,-1
 140 67 l 1,187,-1
 75 67 l 1,184,-1
75 27 m 1,188,-1
 75 98 l 1,189,-1
 140 98 l 1,190,-1
 140 27 l 1,191,-1
 75 27 l 1,188,-1
EndSplineSet
EndChar

StartChar: X
Encoding: 88 88 48
Width: 808
GlyphClass: 2
Flags: W
LayerCount: 2
Fore
SplineSet
672 587 m 1,0,-1
 672 658 l 1,1,-1
 737 658 l 1,2,-1
 737 587 l 1,3,-1
 672 587 l 1,0,-1
672 547 m 1,4,-1
 672 618 l 1,5,-1
 737 618 l 1,6,-1
 737 547 l 1,7,-1
 672 547 l 1,4,-1
672 507 m 1,8,-1
 672 578 l 1,9,-1
 737 578 l 1,10,-1
 737 507 l 1,11,-1
 672 507 l 1,8,-1
407 507 m 1,12,-1
 407 581 l 1,13,-1
 702 581 l 1,14,-1
 702 507 l 1,15,-1
 407 507 l 1,12,-1
372 507 m 1,16,-1
 372 578 l 1,17,-1
 437 578 l 1,18,-1
 437 507 l 1,19,-1
 372 507 l 1,16,-1
372 467 m 1,20,-1
 372 538 l 1,21,-1
 437 538 l 1,22,-1
 437 467 l 1,23,-1
 372 467 l 1,20,-1
372 427 m 1,24,-1
 372 498 l 1,25,-1
 437 498 l 1,26,-1
 437 427 l 1,27,-1
 372 427 l 1,24,-1
672 107 m 1,28,-1
 672 178 l 1,29,-1
 737 178 l 1,30,-1
 737 107 l 1,31,-1
 672 107 l 1,28,-1
372 387 m 1,32,-1
 372 458 l 1,33,-1
 437 458 l 1,34,-1
 437 387 l 1,35,-1
 372 387 l 1,32,-1
672 67 m 1,36,-1
 672 138 l 1,37,-1
 737 138 l 1,38,-1
 737 67 l 1,39,-1
 672 67 l 1,36,-1
107 507 m 1,40,-1
 107 581 l 1,41,-1
 402 581 l 1,42,-1
 402 507 l 1,43,-1
 107 507 l 1,40,-1
372 347 m 1,44,-1
 372 418 l 1,45,-1
 437 418 l 1,46,-1
 437 347 l 1,47,-1
 372 347 l 1,44,-1
672 27 m 1,48,-1
 672 98 l 1,49,-1
 737 98 l 1,50,-1
 737 27 l 1,51,-1
 672 27 l 1,48,-1
372 307 m 1,52,-1
 372 378 l 1,53,-1
 437 378 l 1,54,-1
 437 307 l 1,55,-1
 372 307 l 1,52,-1
72 587 m 1,56,-1
 72 658 l 1,57,-1
 137 658 l 1,58,-1
 137 587 l 1,59,-1
 72 587 l 1,56,-1
672 -13 m 1,60,-1
 672 58 l 1,61,-1
 737 58 l 1,62,-1
 737 -13 l 1,63,-1
 672 -13 l 1,60,-1
372 267 m 1,64,-1
 372 338 l 1,65,-1
 437 338 l 1,66,-1
 437 267 l 1,67,-1
 372 267 l 1,64,-1
407 107 m 1,68,-1
 407 181 l 1,69,-1
 702 181 l 1,70,-1
 702 107 l 1,71,-1
 407 107 l 1,68,-1
72 547 m 1,72,-1
 72 618 l 1,73,-1
 137 618 l 1,74,-1
 137 547 l 1,75,-1
 72 547 l 1,72,-1
372 227 m 1,76,-1
 372 298 l 1,77,-1
 437 298 l 1,78,-1
 437 227 l 1,79,-1
 372 227 l 1,76,-1
72 507 m 1,80,-1
 72 578 l 1,81,-1
 137 578 l 1,82,-1
 137 507 l 1,83,-1
 72 507 l 1,80,-1
372 187 m 1,84,-1
 372 258 l 1,85,-1
 437 258 l 1,86,-1
 437 187 l 1,87,-1
 372 187 l 1,84,-1
372 147 m 1,88,-1
 372 218 l 1,89,-1
 437 218 l 1,90,-1
 437 147 l 1,91,-1
 372 147 l 1,88,-1
372 107 m 1,92,-1
 372 178 l 1,93,-1
 437 178 l 1,94,-1
 437 107 l 1,95,-1
 372 107 l 1,92,-1
107 107 m 1,96,-1
 107 181 l 1,97,-1
 402 181 l 1,98,-1
 402 107 l 1,99,-1
 107 107 l 1,96,-1
72 107 m 1,100,-1
 72 178 l 1,101,-1
 137 178 l 1,102,-1
 137 107 l 1,103,-1
 72 107 l 1,100,-1
72 67 m 1,104,-1
 72 138 l 1,105,-1
 137 138 l 1,106,-1
 137 67 l 1,107,-1
 72 67 l 1,104,-1
72 27 m 1,108,-1
 72 98 l 1,109,-1
 137 98 l 1,110,-1
 137 27 l 1,111,-1
 72 27 l 1,108,-1
72 -13 m 1,112,-1
 72 58 l 1,113,-1
 137 58 l 1,114,-1
 137 -13 l 1,115,-1
 72 -13 l 1,112,-1
EndSplineSet
EndChar

StartChar: Y
Encoding: 89 89 49
Width: 812
GlyphClass: 2
Flags: W
LayerCount: 2
Fore
SplineSet
672 587 m 1,0,-1
 672 658 l 1,1,-1
 737 658 l 1,2,-1
 737 587 l 1,3,-1
 672 587 l 1,0,-1
672 547 m 1,4,-1
 672 618 l 1,5,-1
 737 618 l 1,6,-1
 737 547 l 1,7,-1
 672 547 l 1,4,-1
672 507 m 1,8,-1
 672 578 l 1,9,-1
 737 578 l 1,10,-1
 737 507 l 1,11,-1
 672 507 l 1,8,-1
672 467 m 1,12,-1
 672 538 l 1,13,-1
 737 538 l 1,14,-1
 737 467 l 1,15,-1
 672 467 l 1,12,-1
672 427 m 1,16,-1
 672 498 l 1,17,-1
 737 498 l 1,18,-1
 737 427 l 1,19,-1
 672 427 l 1,16,-1
672 387 m 1,20,-1
 672 458 l 1,21,-1
 737 458 l 1,22,-1
 737 387 l 1,23,-1
 672 387 l 1,20,-1
672 347 m 1,24,-1
 672 418 l 1,25,-1
 737 418 l 1,26,-1
 737 347 l 1,27,-1
 672 347 l 1,24,-1
672 307 m 1,28,-1
 672 378 l 1,29,-1
 737 378 l 1,30,-1
 737 307 l 1,31,-1
 672 307 l 1,28,-1
672 267 m 1,32,-1
 672 338 l 1,33,-1
 737 338 l 1,34,-1
 737 267 l 1,35,-1
 672 267 l 1,32,-1
672 227 m 1,36,-1
 672 298 l 1,37,-1
 737 298 l 1,38,-1
 737 227 l 1,39,-1
 672 227 l 1,36,-1
672 187 m 1,40,-1
 672 258 l 1,41,-1
 737 258 l 1,42,-1
 737 187 l 1,43,-1
 672 187 l 1,40,-1
407 307 m 1,44,-1
 407 381 l 1,45,-1
 702 381 l 1,46,-1
 702 307 l 1,47,-1
 407 307 l 1,44,-1
672 147 m 1,48,-1
 672 218 l 1,49,-1
 737 218 l 1,50,-1
 737 147 l 1,51,-1
 672 147 l 1,48,-1
672 107 m 1,52,-1
 672 178 l 1,53,-1
 737 178 l 1,54,-1
 737 107 l 1,55,-1
 672 107 l 1,52,-1
672 67 m 1,56,-1
 672 138 l 1,57,-1
 737 138 l 1,58,-1
 737 67 l 1,59,-1
 672 67 l 1,56,-1
672 27 m 1,60,-1
 672 98 l 1,61,-1
 737 98 l 1,62,-1
 737 27 l 1,63,-1
 672 27 l 1,60,-1
372 307 m 1,64,-1
 372 378 l 1,65,-1
 437 378 l 1,66,-1
 437 307 l 1,67,-1
 372 307 l 1,64,-1
72 587 m 1,68,-1
 72 658 l 1,69,-1
 137 658 l 1,70,-1
 137 587 l 1,71,-1
 72 587 l 1,68,-1
72 547 m 1,72,-1
 72 618 l 1,73,-1
 137 618 l 1,74,-1
 137 547 l 1,75,-1
 72 547 l 1,72,-1
72 507 m 1,76,-1
 72 578 l 1,77,-1
 137 578 l 1,78,-1
 137 507 l 1,79,-1
 72 507 l 1,76,-1
72 467 m 1,80,-1
 72 538 l 1,81,-1
 137 538 l 1,82,-1
 137 467 l 1,83,-1
 72 467 l 1,80,-1
107 307 m 1,84,-1
 107 381 l 1,85,-1
 402 381 l 1,86,-1
 402 307 l 1,87,-1
 107 307 l 1,84,-1
407 -13 m 1,88,-1
 407 61 l 1,89,-1
 702 61 l 1,90,-1
 702 -13 l 1,91,-1
 407 -13 l 1,88,-1
72 427 m 1,92,-1
 72 498 l 1,93,-1
 137 498 l 1,94,-1
 137 427 l 1,95,-1
 72 427 l 1,92,-1
72 387 m 1,96,-1
 72 458 l 1,97,-1
 137 458 l 1,98,-1
 137 387 l 1,99,-1
 72 387 l 1,96,-1
72 347 m 1,100,-1
 72 418 l 1,101,-1
 137 418 l 1,102,-1
 137 347 l 1,103,-1
 72 347 l 1,100,-1
372 -13 m 1,104,-1
 372 58 l 1,105,-1
 437 58 l 1,106,-1
 437 -13 l 1,107,-1
 372 -13 l 1,104,-1
107 -13 m 1,108,-1
 107 61 l 1,109,-1
 402 61 l 1,110,-1
 402 -13 l 1,111,-1
 107 -13 l 1,108,-1
72 -13 m 1,112,-1
 72 58 l 1,113,-1
 137 58 l 1,114,-1
 137 -13 l 1,115,-1
 72 -13 l 1,112,-1
EndSplineSet
EndChar

StartChar: Z
Encoding: 90 90 50
Width: 813
GlyphClass: 2
Flags: W
LayerCount: 2
Fore
SplineSet
675 587 m 1,0,-1
 675 658 l 1,1,-1
 740 658 l 1,2,-1
 740 587 l 1,3,-1
 675 587 l 1,0,-1
675 547 m 1,4,-1
 675 618 l 1,5,-1
 740 618 l 1,6,-1
 740 547 l 1,7,-1
 675 547 l 1,4,-1
675 507 m 1,8,-1
 675 578 l 1,9,-1
 740 578 l 1,10,-1
 740 507 l 1,11,-1
 675 507 l 1,8,-1
675 467 m 1,12,-1
 675 538 l 1,13,-1
 740 538 l 1,14,-1
 740 467 l 1,15,-1
 675 467 l 1,12,-1
410 587 m 1,16,-1
 410 661 l 1,17,-1
 705 661 l 1,18,-1
 705 587 l 1,19,-1
 410 587 l 1,16,-1
675 427 m 1,20,-1
 675 498 l 1,21,-1
 740 498 l 1,22,-1
 740 427 l 1,23,-1
 675 427 l 1,20,-1
675 387 m 1,24,-1
 675 458 l 1,25,-1
 740 458 l 1,26,-1
 740 387 l 1,27,-1
 675 387 l 1,24,-1
675 347 m 1,28,-1
 675 418 l 1,29,-1
 740 418 l 1,30,-1
 740 347 l 1,31,-1
 675 347 l 1,28,-1
675 307 m 1,32,-1
 675 378 l 1,33,-1
 740 378 l 1,34,-1
 740 307 l 1,35,-1
 675 307 l 1,32,-1
375 587 m 1,36,-1
 375 658 l 1,37,-1
 440 658 l 1,38,-1
 440 587 l 1,39,-1
 375 587 l 1,36,-1
410 307 m 1,40,-1
 410 381 l 1,41,-1
 705 381 l 1,42,-1
 705 307 l 1,43,-1
 410 307 l 1,40,-1
110 587 m 1,44,-1
 110 661 l 1,45,-1
 405 661 l 1,46,-1
 405 587 l 1,47,-1
 110 587 l 1,44,-1
375 307 m 1,48,-1
 375 378 l 1,49,-1
 440 378 l 1,50,-1
 440 307 l 1,51,-1
 375 307 l 1,48,-1
75 587 m 1,52,-1
 75 658 l 1,53,-1
 140 658 l 1,54,-1
 140 587 l 1,55,-1
 75 587 l 1,52,-1
675 -13 m 1,56,-1
 675 58 l 1,57,-1
 740 58 l 1,58,-1
 740 -13 l 1,59,-1
 675 -13 l 1,56,-1
110 307 m 1,60,-1
 110 381 l 1,61,-1
 405 381 l 1,62,-1
 405 307 l 1,63,-1
 110 307 l 1,60,-1
410 -13 m 1,64,-1
 410 61 l 1,65,-1
 705 61 l 1,66,-1
 705 -13 l 1,67,-1
 410 -13 l 1,64,-1
75 307 m 1,68,-1
 75 378 l 1,69,-1
 140 378 l 1,70,-1
 140 307 l 1,71,-1
 75 307 l 1,68,-1
375 -13 m 1,72,-1
 375 58 l 1,73,-1
 440 58 l 1,74,-1
 440 -13 l 1,75,-1
 375 -13 l 1,72,-1
75 267 m 1,76,-1
 75 338 l 1,77,-1
 140 338 l 1,78,-1
 140 267 l 1,79,-1
 75 267 l 1,76,-1
75 227 m 1,80,-1
 75 298 l 1,81,-1
 140 298 l 1,82,-1
 140 227 l 1,83,-1
 75 227 l 1,80,-1
75 187 m 1,84,-1
 75 258 l 1,85,-1
 140 258 l 1,86,-1
 140 187 l 1,87,-1
 75 187 l 1,84,-1
75 147 m 1,88,-1
 75 218 l 1,89,-1
 140 218 l 1,90,-1
 140 147 l 1,91,-1
 75 147 l 1,88,-1
110 -13 m 1,92,-1
 110 61 l 1,93,-1
 405 61 l 1,94,-1
 405 -13 l 1,95,-1
 110 -13 l 1,92,-1
75 107 m 1,96,-1
 75 178 l 1,97,-1
 140 178 l 1,98,-1
 140 107 l 1,99,-1
 75 107 l 1,96,-1
75 67 m 1,100,-1
 75 138 l 1,101,-1
 140 138 l 1,102,-1
 140 67 l 1,103,-1
 75 67 l 1,100,-1
75 27 m 1,104,-1
 75 98 l 1,105,-1
 140 98 l 1,106,-1
 140 27 l 1,107,-1
 75 27 l 1,104,-1
75 -13 m 1,108,-1
 75 58 l 1,109,-1
 140 58 l 1,110,-1
 140 -13 l 1,111,-1
 75 -13 l 1,108,-1
EndSplineSet
EndChar

StartChar: a
Encoding: 97 97 57
Width: 810
GlyphClass: 2
Flags: W
LayerCount: 2
Fore
SplineSet
671 267 m 1,0,-1
 671 338 l 1,1,-1
 736 338 l 1,2,-1
 736 267 l 1,3,-1
 671 267 l 1,0,-1
671 227 m 1,4,-1
 671 298 l 1,5,-1
 736 298 l 1,6,-1
 736 227 l 1,7,-1
 671 227 l 1,4,-1
671 187 m 1,8,-1
 671 258 l 1,9,-1
 736 258 l 1,10,-1
 736 187 l 1,11,-1
 671 187 l 1,8,-1
406 307 m 1,12,-1
 406 381 l 1,13,-1
 701 381 l 1,14,-1
 701 307 l 1,15,-1
 406 307 l 1,12,-1
671 147 m 1,16,-1
 671 218 l 1,17,-1
 736 218 l 1,18,-1
 736 147 l 1,19,-1
 671 147 l 1,16,-1
671 107 m 1,20,-1
 671 178 l 1,21,-1
 736 178 l 1,22,-1
 736 107 l 1,23,-1
 671 107 l 1,20,-1
671 67 m 1,24,-1
 671 138 l 1,25,-1
 736 138 l 1,26,-1
 736 67 l 1,27,-1
 671 67 l 1,24,-1
406 187 m 1,28,-1
 406 261 l 1,29,-1
 701 261 l 1,30,-1
 701 187 l 1,31,-1
 406 187 l 1,28,-1
671 27 m 1,32,-1
 671 98 l 1,33,-1
 736 98 l 1,34,-1
 736 27 l 1,35,-1
 671 27 l 1,32,-1
371 307 m 1,36,-1
 371 378 l 1,37,-1
 436 378 l 1,38,-1
 436 307 l 1,39,-1
 371 307 l 1,36,-1
671 -13 m 1,40,-1
 671 58 l 1,41,-1
 736 58 l 1,42,-1
 736 -13 l 1,43,-1
 671 -13 l 1,40,-1
371 187 m 1,44,-1
 371 258 l 1,45,-1
 436 258 l 1,46,-1
 436 187 l 1,47,-1
 371 187 l 1,44,-1
106 307 m 1,48,-1
 106 381 l 1,49,-1
 401 381 l 1,50,-1
 401 307 l 1,51,-1
 106 307 l 1,48,-1
406 -13 m 1,52,-1
 406 61 l 1,53,-1
 701 61 l 1,54,-1
 701 -13 l 1,55,-1
 406 -13 l 1,52,-1
106 187 m 1,56,-1
 106 261 l 1,57,-1
 401 261 l 1,58,-1
 401 187 l 1,59,-1
 106 187 l 1,56,-1
71 307 m 1,60,-1
 71 378 l 1,61,-1
 136 378 l 1,62,-1
 136 307 l 1,63,-1
 71 307 l 1,60,-1
371 -13 m 1,64,-1
 371 58 l 1,65,-1
 436 58 l 1,66,-1
 436 -13 l 1,67,-1
 371 -13 l 1,64,-1
71 147 m 1,68,-1
 71 218 l 1,69,-1
 136 218 l 1,70,-1
 136 147 l 1,71,-1
 71 147 l 1,68,-1
106 -13 m 1,72,-1
 106 61 l 1,73,-1
 401 61 l 1,74,-1
 401 -13 l 1,75,-1
 106 -13 l 1,72,-1
71 107 m 1,76,-1
 71 178 l 1,77,-1
 136 178 l 1,78,-1
 136 107 l 1,79,-1
 71 107 l 1,76,-1
71 67 m 1,80,-1
 71 138 l 1,81,-1
 136 138 l 1,82,-1
 136 67 l 1,83,-1
 71 67 l 1,80,-1
71 27 m 1,84,-1
 71 98 l 1,85,-1
 136 98 l 1,86,-1
 136 27 l 1,87,-1
 71 27 l 1,84,-1
EndSplineSet
EndChar

StartChar: b
Encoding: 98 98 58
Width: 813
GlyphClass: 2
Flags: W
LayerCount: 2
Fore
SplineSet
675 267 m 1,0,-1
 675 338 l 1,1,-1
 740 338 l 1,2,-1
 740 267 l 1,3,-1
 675 267 l 1,0,-1
675 227 m 1,4,-1
 675 298 l 1,5,-1
 740 298 l 1,6,-1
 740 227 l 1,7,-1
 675 227 l 1,4,-1
675 187 m 1,8,-1
 675 258 l 1,9,-1
 740 258 l 1,10,-1
 740 187 l 1,11,-1
 675 187 l 1,8,-1
410 307 m 1,12,-1
 410 381 l 1,13,-1
 705 381 l 1,14,-1
 705 307 l 1,15,-1
 410 307 l 1,12,-1
675 147 m 1,16,-1
 675 218 l 1,17,-1
 740 218 l 1,18,-1
 740 147 l 1,19,-1
 675 147 l 1,16,-1
675 107 m 1,20,-1
 675 178 l 1,21,-1
 740 178 l 1,22,-1
 740 107 l 1,23,-1
 675 107 l 1,20,-1
675 67 m 1,24,-1
 675 138 l 1,25,-1
 740 138 l 1,26,-1
 740 67 l 1,27,-1
 675 67 l 1,24,-1
675 27 m 1,28,-1
 675 98 l 1,29,-1
 740 98 l 1,30,-1
 740 27 l 1,31,-1
 675 27 l 1,28,-1
375 307 m 1,32,-1
 375 378 l 1,33,-1
 440 378 l 1,34,-1
 440 307 l 1,35,-1
 375 307 l 1,32,-1
75 587 m 1,36,-1
 75 658 l 1,37,-1
 140 658 l 1,38,-1
 140 587 l 1,39,-1
 75 587 l 1,36,-1
75 547 m 1,40,-1
 75 618 l 1,41,-1
 140 618 l 1,42,-1
 140 547 l 1,43,-1
 75 547 l 1,40,-1
75 507 m 1,44,-1
 75 578 l 1,45,-1
 140 578 l 1,46,-1
 140 507 l 1,47,-1
 75 507 l 1,44,-1
75 467 m 1,48,-1
 75 538 l 1,49,-1
 140 538 l 1,50,-1
 140 467 l 1,51,-1
 75 467 l 1,48,-1
110 307 m 1,52,-1
 110 381 l 1,53,-1
 405 381 l 1,54,-1
 405 307 l 1,55,-1
 110 307 l 1,52,-1
410 -13 m 1,56,-1
 410 61 l 1,57,-1
 705 61 l 1,58,-1
 705 -13 l 1,59,-1
 410 -13 l 1,56,-1
75 427 m 1,60,-1
 75 498 l 1,61,-1
 140 498 l 1,62,-1
 140 427 l 1,63,-1
 75 427 l 1,60,-1
75 387 m 1,64,-1
 75 458 l 1,65,-1
 140 458 l 1,66,-1
 140 387 l 1,67,-1
 75 387 l 1,64,-1
75 347 m 1,68,-1
 75 418 l 1,69,-1
 140 418 l 1,70,-1
 140 347 l 1,71,-1
 75 347 l 1,68,-1
75 307 m 1,72,-1
 75 378 l 1,73,-1
 140 378 l 1,74,-1
 140 307 l 1,75,-1
 75 307 l 1,72,-1
375 -13 m 1,76,-1
 375 58 l 1,77,-1
 440 58 l 1,78,-1
 440 -13 l 1,79,-1
 375 -13 l 1,76,-1
75 267 m 1,80,-1
 75 338 l 1,81,-1
 140 338 l 1,82,-1
 140 267 l 1,83,-1
 75 267 l 1,80,-1
75 227 m 1,84,-1
 75 298 l 1,85,-1
 140 298 l 1,86,-1
 140 227 l 1,87,-1
 75 227 l 1,84,-1
75 187 m 1,88,-1
 75 258 l 1,89,-1
 140 258 l 1,90,-1
 140 187 l 1,91,-1
 75 187 l 1,88,-1
75 147 m 1,92,-1
 75 218 l 1,93,-1
 140 218 l 1,94,-1
 140 147 l 1,95,-1
 75 147 l 1,92,-1
110 -13 m 1,96,-1
 110 61 l 1,97,-1
 405 61 l 1,98,-1
 405 -13 l 1,99,-1
 110 -13 l 1,96,-1
75 107 m 1,100,-1
 75 178 l 1,101,-1
 140 178 l 1,102,-1
 140 107 l 1,103,-1
 75 107 l 1,100,-1
75 67 m 1,104,-1
 75 138 l 1,105,-1
 140 138 l 1,106,-1
 140 67 l 1,107,-1
 75 67 l 1,104,-1
75 27 m 1,108,-1
 75 98 l 1,109,-1
 140 98 l 1,110,-1
 140 27 l 1,111,-1
 75 27 l 1,108,-1
75 -13 m 1,112,-1
 75 58 l 1,113,-1
 140 58 l 1,114,-1
 140 -13 l 1,115,-1
 75 -13 l 1,112,-1
EndSplineSet
EndChar

StartChar: c
Encoding: 99 99 59
Width: 808
GlyphClass: 2
Flags: W
LayerCount: 2
Fore
SplineSet
671 307 m 1,0,-1
 671 378 l 1,1,-1
 736 378 l 1,2,-1
 736 307 l 1,3,-1
 671 307 l 1,0,-1
406 307 m 1,4,-1
 406 381 l 1,5,-1
 701 381 l 1,6,-1
 701 307 l 1,7,-1
 406 307 l 1,4,-1
371 307 m 1,8,-1
 371 378 l 1,9,-1
 436 378 l 1,10,-1
 436 307 l 1,11,-1
 371 307 l 1,8,-1
671 -13 m 1,12,-1
 671 58 l 1,13,-1
 736 58 l 1,14,-1
 736 -13 l 1,15,-1
 671 -13 l 1,12,-1
106 307 m 1,16,-1
 106 381 l 1,17,-1
 401 381 l 1,18,-1
 401 307 l 1,19,-1
 106 307 l 1,16,-1
406 -13 m 1,20,-1
 406 61 l 1,21,-1
 701 61 l 1,22,-1
 701 -13 l 1,23,-1
 406 -13 l 1,20,-1
371 -13 m 1,24,-1
 371 58 l 1,25,-1
 436 58 l 1,26,-1
 436 -13 l 1,27,-1
 371 -13 l 1,24,-1
71 267 m 1,28,-1
 71 338 l 1,29,-1
 136 338 l 1,30,-1
 136 267 l 1,31,-1
 71 267 l 1,28,-1
71 227 m 1,32,-1
 71 298 l 1,33,-1
 136 298 l 1,34,-1
 136 227 l 1,35,-1
 71 227 l 1,32,-1
71 187 m 1,36,-1
 71 258 l 1,37,-1
 136 258 l 1,38,-1
 136 187 l 1,39,-1
 71 187 l 1,36,-1
71 147 m 1,40,-1
 71 218 l 1,41,-1
 136 218 l 1,42,-1
 136 147 l 1,43,-1
 71 147 l 1,40,-1
106 -13 m 1,44,-1
 106 61 l 1,45,-1
 401 61 l 1,46,-1
 401 -13 l 1,47,-1
 106 -13 l 1,44,-1
71 107 m 1,48,-1
 71 178 l 1,49,-1
 136 178 l 1,50,-1
 136 107 l 1,51,-1
 71 107 l 1,48,-1
71 67 m 1,52,-1
 71 138 l 1,53,-1
 136 138 l 1,54,-1
 136 67 l 1,55,-1
 71 67 l 1,52,-1
71 27 m 1,56,-1
 71 98 l 1,57,-1
 136 98 l 1,58,-1
 136 27 l 1,59,-1
 71 27 l 1,56,-1
EndSplineSet
EndChar

StartChar: d
Encoding: 100 100 60
Width: 810
GlyphClass: 2
Flags: W
LayerCount: 2
Fore
SplineSet
670 587 m 1,0,-1
 670 658 l 1,1,-1
 735 658 l 1,2,-1
 735 587 l 1,3,-1
 670 587 l 1,0,-1
670 547 m 1,4,-1
 670 618 l 1,5,-1
 735 618 l 1,6,-1
 735 547 l 1,7,-1
 670 547 l 1,4,-1
670 507 m 1,8,-1
 670 578 l 1,9,-1
 735 578 l 1,10,-1
 735 507 l 1,11,-1
 670 507 l 1,8,-1
670 467 m 1,12,-1
 670 538 l 1,13,-1
 735 538 l 1,14,-1
 735 467 l 1,15,-1
 670 467 l 1,12,-1
670 427 m 1,16,-1
 670 498 l 1,17,-1
 735 498 l 1,18,-1
 735 427 l 1,19,-1
 670 427 l 1,16,-1
670 387 m 1,20,-1
 670 458 l 1,21,-1
 735 458 l 1,22,-1
 735 387 l 1,23,-1
 670 387 l 1,20,-1
670 347 m 1,24,-1
 670 418 l 1,25,-1
 735 418 l 1,26,-1
 735 347 l 1,27,-1
 670 347 l 1,24,-1
670 307 m 1,28,-1
 670 378 l 1,29,-1
 735 378 l 1,30,-1
 735 307 l 1,31,-1
 670 307 l 1,28,-1
670 267 m 1,32,-1
 670 338 l 1,33,-1
 735 338 l 1,34,-1
 735 267 l 1,35,-1
 670 267 l 1,32,-1
670 227 m 1,36,-1
 670 298 l 1,37,-1
 735 298 l 1,38,-1
 735 227 l 1,39,-1
 670 227 l 1,36,-1
670 187 m 1,40,-1
 670 258 l 1,41,-1
 735 258 l 1,42,-1
 735 187 l 1,43,-1
 670 187 l 1,40,-1
405 307 m 1,44,-1
 405 381 l 1,45,-1
 700 381 l 1,46,-1
 700 307 l 1,47,-1
 405 307 l 1,44,-1
670 147 m 1,48,-1
 670 218 l 1,49,-1
 735 218 l 1,50,-1
 735 147 l 1,51,-1
 670 147 l 1,48,-1
670 107 m 1,52,-1
 670 178 l 1,53,-1
 735 178 l 1,54,-1
 735 107 l 1,55,-1
 670 107 l 1,52,-1
670 67 m 1,56,-1
 670 138 l 1,57,-1
 735 138 l 1,58,-1
 735 67 l 1,59,-1
 670 67 l 1,56,-1
670 27 m 1,60,-1
 670 98 l 1,61,-1
 735 98 l 1,62,-1
 735 27 l 1,63,-1
 670 27 l 1,60,-1
370 307 m 1,64,-1
 370 378 l 1,65,-1
 435 378 l 1,66,-1
 435 307 l 1,67,-1
 370 307 l 1,64,-1
670 -13 m 1,68,-1
 670 58 l 1,69,-1
 735 58 l 1,70,-1
 735 -13 l 1,71,-1
 670 -13 l 1,68,-1
105 307 m 1,72,-1
 105 381 l 1,73,-1
 400 381 l 1,74,-1
 400 307 l 1,75,-1
 105 307 l 1,72,-1
405 -13 m 1,76,-1
 405 61 l 1,77,-1
 700 61 l 1,78,-1
 700 -13 l 1,79,-1
 405 -13 l 1,76,-1
370 -13 m 1,80,-1
 370 58 l 1,81,-1
 435 58 l 1,82,-1
 435 -13 l 1,83,-1
 370 -13 l 1,80,-1
70 267 m 1,84,-1
 70 338 l 1,85,-1
 135 338 l 1,86,-1
 135 267 l 1,87,-1
 70 267 l 1,84,-1
70 227 m 1,88,-1
 70 298 l 1,89,-1
 135 298 l 1,90,-1
 135 227 l 1,91,-1
 70 227 l 1,88,-1
70 187 m 1,92,-1
 70 258 l 1,93,-1
 135 258 l 1,94,-1
 135 187 l 1,95,-1
 70 187 l 1,92,-1
70 147 m 1,96,-1
 70 218 l 1,97,-1
 135 218 l 1,98,-1
 135 147 l 1,99,-1
 70 147 l 1,96,-1
105 -13 m 1,100,-1
 105 61 l 1,101,-1
 400 61 l 1,102,-1
 400 -13 l 1,103,-1
 105 -13 l 1,100,-1
70 107 m 1,104,-1
 70 178 l 1,105,-1
 135 178 l 1,106,-1
 135 107 l 1,107,-1
 70 107 l 1,104,-1
70 67 m 1,108,-1
 70 138 l 1,109,-1
 135 138 l 1,110,-1
 135 67 l 1,111,-1
 70 67 l 1,108,-1
70 27 m 1,112,-1
 70 98 l 1,113,-1
 135 98 l 1,114,-1
 135 27 l 1,115,-1
 70 27 l 1,112,-1
EndSplineSet
EndChar

StartChar: e
Encoding: 101 101 61
Width: 809
GlyphClass: 2
Flags: W
LayerCount: 2
Fore
SplineSet
671 267 m 1,0,-1
 671 338 l 1,1,-1
 736 338 l 1,2,-1
 736 267 l 1,3,-1
 671 267 l 1,0,-1
671 227 m 1,4,-1
 671 298 l 1,5,-1
 736 298 l 1,6,-1
 736 227 l 1,7,-1
 671 227 l 1,4,-1
671 187 m 1,8,-1
 671 258 l 1,9,-1
 736 258 l 1,10,-1
 736 187 l 1,11,-1
 671 187 l 1,8,-1
406 307 m 1,12,-1
 406 381 l 1,13,-1
 701 381 l 1,14,-1
 701 307 l 1,15,-1
 406 307 l 1,12,-1
371 307 m 1,16,-1
 371 378 l 1,17,-1
 436 378 l 1,18,-1
 436 307 l 1,19,-1
 371 307 l 1,16,-1
406 147 m 1,20,-1
 406 221 l 1,21,-1
 701 221 l 1,22,-1
 701 147 l 1,23,-1
 406 147 l 1,20,-1
671 -13 m 1,24,-1
 671 58 l 1,25,-1
 736 58 l 1,26,-1
 736 -13 l 1,27,-1
 671 -13 l 1,24,-1
106 307 m 1,28,-1
 106 381 l 1,29,-1
 401 381 l 1,30,-1
 401 307 l 1,31,-1
 106 307 l 1,28,-1
371 147 m 1,32,-1
 371 218 l 1,33,-1
 436 218 l 1,34,-1
 436 147 l 1,35,-1
 371 147 l 1,32,-1
406 -13 m 1,36,-1
 406 61 l 1,37,-1
 701 61 l 1,38,-1
 701 -13 l 1,39,-1
 406 -13 l 1,36,-1
106 147 m 1,40,-1
 106 221 l 1,41,-1
 401 221 l 1,42,-1
 401 147 l 1,43,-1
 106 147 l 1,40,-1
371 -13 m 1,44,-1
 371 58 l 1,45,-1
 436 58 l 1,46,-1
 436 -13 l 1,47,-1
 371 -13 l 1,44,-1
71 267 m 1,48,-1
 71 338 l 1,49,-1
 136 338 l 1,50,-1
 136 267 l 1,51,-1
 71 267 l 1,48,-1
71 227 m 1,52,-1
 71 298 l 1,53,-1
 136 298 l 1,54,-1
 136 227 l 1,55,-1
 71 227 l 1,52,-1
71 187 m 1,56,-1
 71 258 l 1,57,-1
 136 258 l 1,58,-1
 136 187 l 1,59,-1
 71 187 l 1,56,-1
71 147 m 1,60,-1
 71 218 l 1,61,-1
 136 218 l 1,62,-1
 136 147 l 1,63,-1
 71 147 l 1,60,-1
106 -13 m 1,64,-1
 106 61 l 1,65,-1
 401 61 l 1,66,-1
 401 -13 l 1,67,-1
 106 -13 l 1,64,-1
71 107 m 1,68,-1
 71 178 l 1,69,-1
 136 178 l 1,70,-1
 136 107 l 1,71,-1
 71 107 l 1,68,-1
71 67 m 1,72,-1
 71 138 l 1,73,-1
 136 138 l 1,74,-1
 136 67 l 1,75,-1
 71 67 l 1,72,-1
71 27 m 1,76,-1
 71 98 l 1,77,-1
 136 98 l 1,78,-1
 136 27 l 1,79,-1
 71 27 l 1,76,-1
EndSplineSet
EndChar

StartChar: f
Encoding: 102 102 62
Width: 797
GlyphClass: 2
Flags: W
LayerCount: 2
Fore
SplineSet
663 587 m 1,0,-1
 663 658 l 1,1,-1
 728 658 l 1,2,-1
 728 587 l 1,3,-1
 663 587 l 1,0,-1
398 587 m 1,4,-1
 398 661 l 1,5,-1
 693 661 l 1,6,-1
 693 587 l 1,7,-1
 398 587 l 1,4,-1
663 307 m 1,8,-1
 663 378 l 1,9,-1
 728 378 l 1,10,-1
 728 307 l 1,11,-1
 663 307 l 1,8,-1
363 547 m 1,12,-1
 363 618 l 1,13,-1
 428 618 l 1,14,-1
 428 547 l 1,15,-1
 363 547 l 1,12,-1
363 507 m 1,16,-1
 363 578 l 1,17,-1
 428 578 l 1,18,-1
 428 507 l 1,19,-1
 363 507 l 1,16,-1
363 467 m 1,20,-1
 363 538 l 1,21,-1
 428 538 l 1,22,-1
 428 467 l 1,23,-1
 363 467 l 1,20,-1
398 307 m 1,24,-1
 398 381 l 1,25,-1
 693 381 l 1,26,-1
 693 307 l 1,27,-1
 398 307 l 1,24,-1
363 427 m 1,28,-1
 363 498 l 1,29,-1
 428 498 l 1,30,-1
 428 427 l 1,31,-1
 363 427 l 1,28,-1
363 387 m 1,32,-1
 363 458 l 1,33,-1
 428 458 l 1,34,-1
 428 387 l 1,35,-1
 363 387 l 1,32,-1
363 347 m 1,36,-1
 363 418 l 1,37,-1
 428 418 l 1,38,-1
 428 347 l 1,39,-1
 363 347 l 1,36,-1
363 307 m 1,40,-1
 363 378 l 1,41,-1
 428 378 l 1,42,-1
 428 307 l 1,43,-1
 363 307 l 1,40,-1
363 267 m 1,44,-1
 363 338 l 1,45,-1
 428 338 l 1,46,-1
 428 267 l 1,47,-1
 363 267 l 1,44,-1
363 227 m 1,48,-1
 363 298 l 1,49,-1
 428 298 l 1,50,-1
 428 227 l 1,51,-1
 363 227 l 1,48,-1
363 187 m 1,52,-1
 363 258 l 1,53,-1
 428 258 l 1,54,-1
 428 187 l 1,55,-1
 363 187 l 1,52,-1
98 307 m 1,56,-1
 98 381 l 1,57,-1
 393 381 l 1,58,-1
 393 307 l 1,59,-1
 98 307 l 1,56,-1
363 147 m 1,60,-1
 363 218 l 1,61,-1
 428 218 l 1,62,-1
 428 147 l 1,63,-1
 363 147 l 1,60,-1
363 107 m 1,64,-1
 363 178 l 1,65,-1
 428 178 l 1,66,-1
 428 107 l 1,67,-1
 363 107 l 1,64,-1
363 67 m 1,68,-1
 363 138 l 1,69,-1
 428 138 l 1,70,-1
 428 67 l 1,71,-1
 363 67 l 1,68,-1
363 27 m 1,72,-1
 363 98 l 1,73,-1
 428 98 l 1,74,-1
 428 27 l 1,75,-1
 363 27 l 1,72,-1
63 307 m 1,76,-1
 63 378 l 1,77,-1
 128 378 l 1,78,-1
 128 307 l 1,79,-1
 63 307 l 1,76,-1
363 -13 m 1,80,-1
 363 58 l 1,81,-1
 428 58 l 1,82,-1
 428 -13 l 1,83,-1
 363 -13 l 1,80,-1
EndSplineSet
EndChar

StartChar: g
Encoding: 103 103 63
Width: 810
GlyphClass: 2
Flags: W
LayerCount: 2
Fore
SplineSet
671 267 m 1,0,-1
 671 338 l 1,1,-1
 736 338 l 1,2,-1
 736 267 l 1,3,-1
 671 267 l 1,0,-1
671 227 m 1,4,-1
 671 298 l 1,5,-1
 736 298 l 1,6,-1
 736 227 l 1,7,-1
 671 227 l 1,4,-1
671 187 m 1,8,-1
 671 258 l 1,9,-1
 736 258 l 1,10,-1
 736 187 l 1,11,-1
 671 187 l 1,8,-1
406 307 m 1,12,-1
 406 381 l 1,13,-1
 701 381 l 1,14,-1
 701 307 l 1,15,-1
 406 307 l 1,12,-1
671 147 m 1,16,-1
 671 218 l 1,17,-1
 736 218 l 1,18,-1
 736 147 l 1,19,-1
 671 147 l 1,16,-1
671 107 m 1,20,-1
 671 178 l 1,21,-1
 736 178 l 1,22,-1
 736 107 l 1,23,-1
 671 107 l 1,20,-1
671 67 m 1,24,-1
 671 138 l 1,25,-1
 736 138 l 1,26,-1
 736 67 l 1,27,-1
 671 67 l 1,24,-1
671 27 m 1,28,-1
 671 98 l 1,29,-1
 736 98 l 1,30,-1
 736 27 l 1,31,-1
 671 27 l 1,28,-1
371 307 m 1,32,-1
 371 378 l 1,33,-1
 436 378 l 1,34,-1
 436 307 l 1,35,-1
 371 307 l 1,32,-1
406 147 m 1,36,-1
 406 221 l 1,37,-1
 701 221 l 1,38,-1
 701 147 l 1,39,-1
 406 147 l 1,36,-1
106 307 m 1,40,-1
 106 381 l 1,41,-1
 401 381 l 1,42,-1
 401 307 l 1,43,-1
 106 307 l 1,40,-1
371 147 m 1,44,-1
 371 218 l 1,45,-1
 436 218 l 1,46,-1
 436 147 l 1,47,-1
 371 147 l 1,44,-1
406 -13 m 1,48,-1
 406 61 l 1,49,-1
 701 61 l 1,50,-1
 701 -13 l 1,51,-1
 406 -13 l 1,48,-1
106 147 m 1,52,-1
 106 221 l 1,53,-1
 401 221 l 1,54,-1
 401 147 l 1,55,-1
 106 147 l 1,52,-1
371 -13 m 1,56,-1
 371 58 l 1,57,-1
 436 58 l 1,58,-1
 436 -13 l 1,59,-1
 371 -13 l 1,56,-1
71 267 m 1,60,-1
 71 338 l 1,61,-1
 136 338 l 1,62,-1
 136 267 l 1,63,-1
 71 267 l 1,60,-1
71 227 m 1,64,-1
 71 298 l 1,65,-1
 136 298 l 1,66,-1
 136 227 l 1,67,-1
 71 227 l 1,64,-1
71 187 m 1,68,-1
 71 258 l 1,69,-1
 136 258 l 1,70,-1
 136 187 l 1,71,-1
 71 187 l 1,68,-1
71 147 m 1,72,-1
 71 218 l 1,73,-1
 136 218 l 1,74,-1
 136 147 l 1,75,-1
 71 147 l 1,72,-1
106 -13 m 1,76,-1
 106 61 l 1,77,-1
 401 61 l 1,78,-1
 401 -13 l 1,79,-1
 106 -13 l 1,76,-1
71 -13 m 1,80,-1
 71 58 l 1,81,-1
 136 58 l 1,82,-1
 136 -13 l 1,83,-1
 71 -13 l 1,80,-1
EndSplineSet
EndChar

StartChar: h
Encoding: 104 104 64
Width: 814
GlyphClass: 2
Flags: W
LayerCount: 2
Fore
SplineSet
675 267 m 1,0,-1
 675 338 l 1,1,-1
 740 338 l 1,2,-1
 740 267 l 1,3,-1
 675 267 l 1,0,-1
675 227 m 1,4,-1
 675 298 l 1,5,-1
 740 298 l 1,6,-1
 740 227 l 1,7,-1
 675 227 l 1,4,-1
675 187 m 1,8,-1
 675 258 l 1,9,-1
 740 258 l 1,10,-1
 740 187 l 1,11,-1
 675 187 l 1,8,-1
410 307 m 1,12,-1
 410 381 l 1,13,-1
 705 381 l 1,14,-1
 705 307 l 1,15,-1
 410 307 l 1,12,-1
675 147 m 1,16,-1
 675 218 l 1,17,-1
 740 218 l 1,18,-1
 740 147 l 1,19,-1
 675 147 l 1,16,-1
675 107 m 1,20,-1
 675 178 l 1,21,-1
 740 178 l 1,22,-1
 740 107 l 1,23,-1
 675 107 l 1,20,-1
675 67 m 1,24,-1
 675 138 l 1,25,-1
 740 138 l 1,26,-1
 740 67 l 1,27,-1
 675 67 l 1,24,-1
675 27 m 1,28,-1
 675 98 l 1,29,-1
 740 98 l 1,30,-1
 740 27 l 1,31,-1
 675 27 l 1,28,-1
375 307 m 1,32,-1
 375 378 l 1,33,-1
 440 378 l 1,34,-1
 440 307 l 1,35,-1
 375 307 l 1,32,-1
75 587 m 1,36,-1
 75 658 l 1,37,-1
 140 658 l 1,38,-1
 140 587 l 1,39,-1
 75 587 l 1,36,-1
675 -13 m 1,40,-1
 675 58 l 1,41,-1
 740 58 l 1,42,-1
 740 -13 l 1,43,-1
 675 -13 l 1,40,-1
75 547 m 1,44,-1
 75 618 l 1,45,-1
 140 618 l 1,46,-1
 140 547 l 1,47,-1
 75 547 l 1,44,-1
75 507 m 1,48,-1
 75 578 l 1,49,-1
 140 578 l 1,50,-1
 140 507 l 1,51,-1
 75 507 l 1,48,-1
75 467 m 1,52,-1
 75 538 l 1,53,-1
 140 538 l 1,54,-1
 140 467 l 1,55,-1
 75 467 l 1,52,-1
110 307 m 1,56,-1
 110 381 l 1,57,-1
 405 381 l 1,58,-1
 405 307 l 1,59,-1
 110 307 l 1,56,-1
75 427 m 1,60,-1
 75 498 l 1,61,-1
 140 498 l 1,62,-1
 140 427 l 1,63,-1
 75 427 l 1,60,-1
75 387 m 1,64,-1
 75 458 l 1,65,-1
 140 458 l 1,66,-1
 140 387 l 1,67,-1
 75 387 l 1,64,-1
75 347 m 1,68,-1
 75 418 l 1,69,-1
 140 418 l 1,70,-1
 140 347 l 1,71,-1
 75 347 l 1,68,-1
75 307 m 1,72,-1
 75 378 l 1,73,-1
 140 378 l 1,74,-1
 140 307 l 1,75,-1
 75 307 l 1,72,-1
75 267 m 1,76,-1
 75 338 l 1,77,-1
 140 338 l 1,78,-1
 140 267 l 1,79,-1
 75 267 l 1,76,-1
75 227 m 1,80,-1
 75 298 l 1,81,-1
 140 298 l 1,82,-1
 140 227 l 1,83,-1
 75 227 l 1,80,-1
75 187 m 1,84,-1
 75 258 l 1,85,-1
 140 258 l 1,86,-1
 140 187 l 1,87,-1
 75 187 l 1,84,-1
75 147 m 1,88,-1
 75 218 l 1,89,-1
 140 218 l 1,90,-1
 140 147 l 1,91,-1
 75 147 l 1,88,-1
75 107 m 1,92,-1
 75 178 l 1,93,-1
 140 178 l 1,94,-1
 140 107 l 1,95,-1
 75 107 l 1,92,-1
75 67 m 1,96,-1
 75 138 l 1,97,-1
 140 138 l 1,98,-1
 140 67 l 1,99,-1
 75 67 l 1,96,-1
75 27 m 1,100,-1
 75 98 l 1,101,-1
 140 98 l 1,102,-1
 140 27 l 1,103,-1
 75 27 l 1,100,-1
75 -13 m 1,104,-1
 75 58 l 1,105,-1
 140 58 l 1,106,-1
 140 -13 l 1,107,-1
 75 -13 l 1,104,-1
EndSplineSet
EndChar

StartChar: i
Encoding: 105 105 65
Width: 807
GlyphClass: 2
Flags: W
LayerCount: 2
Fore
SplineSet
671 307 m 1,0,-1
 671 378 l 1,1,-1
 736 378 l 1,2,-1
 736 307 l 1,3,-1
 671 307 l 1,0,-1
406 307 m 1,4,-1
 406 381 l 1,5,-1
 701 381 l 1,6,-1
 701 307 l 1,7,-1
 406 307 l 1,4,-1
371 307 m 1,8,-1
 371 378 l 1,9,-1
 436 378 l 1,10,-1
 436 307 l 1,11,-1
 371 307 l 1,8,-1
671 -13 m 1,12,-1
 671 58 l 1,13,-1
 736 58 l 1,14,-1
 736 -13 l 1,15,-1
 671 -13 l 1,12,-1
371 267 m 1,16,-1
 371 338 l 1,17,-1
 436 338 l 1,18,-1
 436 267 l 1,19,-1
 371 267 l 1,16,-1
371 227 m 1,20,-1
 371 298 l 1,21,-1
 436 298 l 1,22,-1
 436 227 l 1,23,-1
 371 227 l 1,20,-1
371 187 m 1,24,-1
 371 258 l 1,25,-1
 436 258 l 1,26,-1
 436 187 l 1,27,-1
 371 187 l 1,24,-1
106 307 m 1,28,-1
 106 381 l 1,29,-1
 401 381 l 1,30,-1
 401 307 l 1,31,-1
 106 307 l 1,28,-1
371 147 m 1,32,-1
 371 218 l 1,33,-1
 436 218 l 1,34,-1
 436 147 l 1,35,-1
 371 147 l 1,32,-1
406 -13 m 1,36,-1
 406 61 l 1,37,-1
 701 61 l 1,38,-1
 701 -13 l 1,39,-1
 406 -13 l 1,36,-1
371 107 m 1,40,-1
 371 178 l 1,41,-1
 436 178 l 1,42,-1
 436 107 l 1,43,-1
 371 107 l 1,40,-1
371 67 m 1,44,-1
 371 138 l 1,45,-1
 436 138 l 1,46,-1
 436 67 l 1,47,-1
 371 67 l 1,44,-1
371 27 m 1,48,-1
 371 98 l 1,49,-1
 436 98 l 1,50,-1
 436 27 l 1,51,-1
 371 27 l 1,48,-1
71 307 m 1,52,-1
 71 378 l 1,53,-1
 136 378 l 1,54,-1
 136 307 l 1,55,-1
 71 307 l 1,52,-1
371 -13 m 1,56,-1
 371 58 l 1,57,-1
 436 58 l 1,58,-1
 436 -13 l 1,59,-1
 371 -13 l 1,56,-1
106 -13 m 1,60,-1
 106 61 l 1,61,-1
 401 61 l 1,62,-1
 401 -13 l 1,63,-1
 106 -13 l 1,60,-1
71 -13 m 1,64,-1
 71 58 l 1,65,-1
 136 58 l 1,66,-1
 136 -13 l 1,67,-1
 71 -13 l 1,64,-1
EndSplineSet
EndChar

StartChar: j
Encoding: 106 106 66
Width: 806
GlyphClass: 2
Flags: W
LayerCount: 2
Fore
SplineSet
667 307 m 1,0,-1
 667 378 l 1,1,-1
 732 378 l 1,2,-1
 732 307 l 1,3,-1
 667 307 l 1,0,-1
667 267 m 1,4,-1
 667 338 l 1,5,-1
 732 338 l 1,6,-1
 732 267 l 1,7,-1
 667 267 l 1,4,-1
667 227 m 1,8,-1
 667 298 l 1,9,-1
 732 298 l 1,10,-1
 732 227 l 1,11,-1
 667 227 l 1,8,-1
667 187 m 1,12,-1
 667 258 l 1,13,-1
 732 258 l 1,14,-1
 732 187 l 1,15,-1
 667 187 l 1,12,-1
667 147 m 1,16,-1
 667 218 l 1,17,-1
 732 218 l 1,18,-1
 732 147 l 1,19,-1
 667 147 l 1,16,-1
667 107 m 1,20,-1
 667 178 l 1,21,-1
 732 178 l 1,22,-1
 732 107 l 1,23,-1
 667 107 l 1,20,-1
667 67 m 1,24,-1
 667 138 l 1,25,-1
 732 138 l 1,26,-1
 732 67 l 1,27,-1
 667 67 l 1,24,-1
667 27 m 1,28,-1
 667 98 l 1,29,-1
 732 98 l 1,30,-1
 732 27 l 1,31,-1
 667 27 l 1,28,-1
402 -13 m 1,32,-1
 402 61 l 1,33,-1
 697 61 l 1,34,-1
 697 -13 l 1,35,-1
 402 -13 l 1,32,-1
367 -13 m 1,36,-1
 367 58 l 1,37,-1
 432 58 l 1,38,-1
 432 -13 l 1,39,-1
 367 -13 l 1,36,-1
102 -13 m 1,40,-1
 102 61 l 1,41,-1
 397 61 l 1,42,-1
 397 -13 l 1,43,-1
 102 -13 l 1,40,-1
67 107 m 1,44,-1
 67 178 l 1,45,-1
 132 178 l 1,46,-1
 132 107 l 1,47,-1
 67 107 l 1,44,-1
67 67 m 1,48,-1
 67 138 l 1,49,-1
 132 138 l 1,50,-1
 132 67 l 1,51,-1
 67 67 l 1,48,-1
67 27 m 1,52,-1
 67 98 l 1,53,-1
 132 98 l 1,54,-1
 132 27 l 1,55,-1
 67 27 l 1,52,-1
EndSplineSet
EndChar

StartChar: k
Encoding: 107 107 67
Width: 812
GlyphClass: 2
Flags: W
LayerCount: 2
Fore
SplineSet
673 287 m 1,0,-1
 673 358 l 1,1,-1
 738 358 l 1,2,-1
 738 287 l 1,3,-1
 673 287 l 1,0,-1
673 247 m 1,4,-1
 673 318 l 1,5,-1
 738 318 l 1,6,-1
 738 247 l 1,7,-1
 673 247 l 1,4,-1
673 207 m 1,8,-1
 673 278 l 1,9,-1
 738 278 l 1,10,-1
 738 207 l 1,11,-1
 673 207 l 1,8,-1
373 487 m 1,12,-1
 373 558 l 1,13,-1
 438 558 l 1,14,-1
 438 487 l 1,15,-1
 373 487 l 1,12,-1
673 167 m 1,16,-1
 673 238 l 1,17,-1
 738 238 l 1,18,-1
 738 167 l 1,19,-1
 673 167 l 1,16,-1
373 447 m 1,20,-1
 373 518 l 1,21,-1
 438 518 l 1,22,-1
 438 447 l 1,23,-1
 373 447 l 1,20,-1
408 287 m 1,24,-1
 408 361 l 1,25,-1
 703 361 l 1,26,-1
 703 287 l 1,27,-1
 408 287 l 1,24,-1
673 127 m 1,28,-1
 673 198 l 1,29,-1
 738 198 l 1,30,-1
 738 127 l 1,31,-1
 673 127 l 1,28,-1
373 407 m 1,32,-1
 373 478 l 1,33,-1
 438 478 l 1,34,-1
 438 407 l 1,35,-1
 373 407 l 1,32,-1
673 87 m 1,36,-1
 673 158 l 1,37,-1
 738 158 l 1,38,-1
 738 87 l 1,39,-1
 673 87 l 1,36,-1
373 367 m 1,40,-1
 373 438 l 1,41,-1
 438 438 l 1,42,-1
 438 367 l 1,43,-1
 373 367 l 1,40,-1
673 47 m 1,44,-1
 673 118 l 1,45,-1
 738 118 l 1,46,-1
 738 47 l 1,47,-1
 673 47 l 1,44,-1
373 327 m 1,48,-1
 373 398 l 1,49,-1
 438 398 l 1,50,-1
 438 327 l 1,51,-1
 373 327 l 1,48,-1
673 7 m 1,52,-1
 673 78 l 1,53,-1
 738 78 l 1,54,-1
 738 7 l 1,55,-1
 673 7 l 1,52,-1
373 287 m 1,56,-1
 373 358 l 1,57,-1
 438 358 l 1,58,-1
 438 287 l 1,59,-1
 373 287 l 1,56,-1
73 487 m 1,60,-1
 73 558 l 1,61,-1
 138 558 l 1,62,-1
 138 487 l 1,63,-1
 73 487 l 1,60,-1
73 447 m 1,64,-1
 73 518 l 1,65,-1
 138 518 l 1,66,-1
 138 447 l 1,67,-1
 73 447 l 1,64,-1
108 287 m 1,68,-1
 108 361 l 1,69,-1
 403 361 l 1,70,-1
 403 287 l 1,71,-1
 108 287 l 1,68,-1
73 407 m 1,72,-1
 73 478 l 1,73,-1
 138 478 l 1,74,-1
 138 407 l 1,75,-1
 73 407 l 1,72,-1
73 367 m 1,76,-1
 73 438 l 1,77,-1
 138 438 l 1,78,-1
 138 367 l 1,79,-1
 73 367 l 1,76,-1
73 327 m 1,80,-1
 73 398 l 1,81,-1
 138 398 l 1,82,-1
 138 327 l 1,83,-1
 73 327 l 1,80,-1
73 287 m 1,84,-1
 73 358 l 1,85,-1
 138 358 l 1,86,-1
 138 287 l 1,87,-1
 73 287 l 1,84,-1
73 247 m 1,88,-1
 73 318 l 1,89,-1
 138 318 l 1,90,-1
 138 247 l 1,91,-1
 73 247 l 1,88,-1
73 207 m 1,92,-1
 73 278 l 1,93,-1
 138 278 l 1,94,-1
 138 207 l 1,95,-1
 73 207 l 1,92,-1
73 167 m 1,96,-1
 73 238 l 1,97,-1
 138 238 l 1,98,-1
 138 167 l 1,99,-1
 73 167 l 1,96,-1
73 127 m 1,100,-1
 73 198 l 1,101,-1
 138 198 l 1,102,-1
 138 127 l 1,103,-1
 73 127 l 1,100,-1
73 87 m 1,104,-1
 73 158 l 1,105,-1
 138 158 l 1,106,-1
 138 87 l 1,107,-1
 73 87 l 1,104,-1
73 47 m 1,108,-1
 73 118 l 1,109,-1
 138 118 l 1,110,-1
 138 47 l 1,111,-1
 73 47 l 1,108,-1
73 7 m 1,112,-1
 73 78 l 1,113,-1
 138 78 l 1,114,-1
 138 7 l 1,115,-1
 73 7 l 1,112,-1
EndSplineSet
EndChar

StartChar: l
Encoding: 108 108 68
Width: 771
GlyphClass: 2
Flags: W
LayerCount: 2
Fore
SplineSet
406 -13 m 1,0,-1
 406 61 l 1,1,-1
 701 61 l 1,2,-1
 701 -13 l 1,3,-1
 406 -13 l 1,0,-1
371 -13 m 1,4,-1
 371 58 l 1,5,-1
 436 58 l 1,6,-1
 436 -13 l 1,7,-1
 371 -13 l 1,4,-1
71 267 m 1,8,-1
 71 338 l 1,9,-1
 136 338 l 1,10,-1
 136 267 l 1,11,-1
 71 267 l 1,8,-1
71 227 m 1,12,-1
 71 298 l 1,13,-1
 136 298 l 1,14,-1
 136 227 l 1,15,-1
 71 227 l 1,12,-1
71 187 m 1,16,-1
 71 258 l 1,17,-1
 136 258 l 1,18,-1
 136 187 l 1,19,-1
 71 187 l 1,16,-1
71 147 m 1,20,-1
 71 218 l 1,21,-1
 136 218 l 1,22,-1
 136 147 l 1,23,-1
 71 147 l 1,20,-1
106 -13 m 1,24,-1
 106 61 l 1,25,-1
 401 61 l 1,26,-1
 401 -13 l 1,27,-1
 106 -13 l 1,24,-1
71 107 m 1,28,-1
 71 178 l 1,29,-1
 136 178 l 1,30,-1
 136 107 l 1,31,-1
 71 107 l 1,28,-1
71 67 m 1,32,-1
 71 138 l 1,33,-1
 136 138 l 1,34,-1
 136 67 l 1,35,-1
 71 67 l 1,32,-1
71 27 m 1,36,-1
 71 98 l 1,37,-1
 136 98 l 1,38,-1
 136 27 l 1,39,-1
 71 27 l 1,36,-1
EndSplineSet
EndChar

StartChar: m
Encoding: 109 109 69
Width: 810
GlyphClass: 2
Flags: W
LayerCount: 2
Fore
SplineSet
671 267 m 1,0,-1
 671 338 l 1,1,-1
 736 338 l 1,2,-1
 736 267 l 1,3,-1
 671 267 l 1,0,-1
671 227 m 1,4,-1
 671 298 l 1,5,-1
 736 298 l 1,6,-1
 736 227 l 1,7,-1
 671 227 l 1,4,-1
671 187 m 1,8,-1
 671 258 l 1,9,-1
 736 258 l 1,10,-1
 736 187 l 1,11,-1
 671 187 l 1,8,-1
406 307 m 1,12,-1
 406 381 l 1,13,-1
 701 381 l 1,14,-1
 701 307 l 1,15,-1
 406 307 l 1,12,-1
671 147 m 1,16,-1
 671 218 l 1,17,-1
 736 218 l 1,18,-1
 736 147 l 1,19,-1
 671 147 l 1,16,-1
671 107 m 1,20,-1
 671 178 l 1,21,-1
 736 178 l 1,22,-1
 736 107 l 1,23,-1
 671 107 l 1,20,-1
671 67 m 1,24,-1
 671 138 l 1,25,-1
 736 138 l 1,26,-1
 736 67 l 1,27,-1
 671 67 l 1,24,-1
671 27 m 1,28,-1
 671 98 l 1,29,-1
 736 98 l 1,30,-1
 736 27 l 1,31,-1
 671 27 l 1,28,-1
371 307 m 1,32,-1
 371 378 l 1,33,-1
 436 378 l 1,34,-1
 436 307 l 1,35,-1
 371 307 l 1,32,-1
671 -13 m 1,36,-1
 671 58 l 1,37,-1
 736 58 l 1,38,-1
 736 -13 l 1,39,-1
 671 -13 l 1,36,-1
371 267 m 1,40,-1
 371 338 l 1,41,-1
 436 338 l 1,42,-1
 436 267 l 1,43,-1
 371 267 l 1,40,-1
371 227 m 1,44,-1
 371 298 l 1,45,-1
 436 298 l 1,46,-1
 436 227 l 1,47,-1
 371 227 l 1,44,-1
371 187 m 1,48,-1
 371 258 l 1,49,-1
 436 258 l 1,50,-1
 436 187 l 1,51,-1
 371 187 l 1,48,-1
106 307 m 1,52,-1
 106 381 l 1,53,-1
 401 381 l 1,54,-1
 401 307 l 1,55,-1
 106 307 l 1,52,-1
371 147 m 1,56,-1
 371 218 l 1,57,-1
 436 218 l 1,58,-1
 436 147 l 1,59,-1
 371 147 l 1,56,-1
371 107 m 1,60,-1
 371 178 l 1,61,-1
 436 178 l 1,62,-1
 436 107 l 1,63,-1
 371 107 l 1,60,-1
371 67 m 1,64,-1
 371 138 l 1,65,-1
 436 138 l 1,66,-1
 436 67 l 1,67,-1
 371 67 l 1,64,-1
371 27 m 1,68,-1
 371 98 l 1,69,-1
 436 98 l 1,70,-1
 436 27 l 1,71,-1
 371 27 l 1,68,-1
371 -13 m 1,72,-1
 371 58 l 1,73,-1
 436 58 l 1,74,-1
 436 -13 l 1,75,-1
 371 -13 l 1,72,-1
71 267 m 1,76,-1
 71 338 l 1,77,-1
 136 338 l 1,78,-1
 136 267 l 1,79,-1
 71 267 l 1,76,-1
71 227 m 1,80,-1
 71 298 l 1,81,-1
 136 298 l 1,82,-1
 136 227 l 1,83,-1
 71 227 l 1,80,-1
71 187 m 1,84,-1
 71 258 l 1,85,-1
 136 258 l 1,86,-1
 136 187 l 1,87,-1
 71 187 l 1,84,-1
71 147 m 1,88,-1
 71 218 l 1,89,-1
 136 218 l 1,90,-1
 136 147 l 1,91,-1
 71 147 l 1,88,-1
71 107 m 1,92,-1
 71 178 l 1,93,-1
 136 178 l 1,94,-1
 136 107 l 1,95,-1
 71 107 l 1,92,-1
71 67 m 1,96,-1
 71 138 l 1,97,-1
 136 138 l 1,98,-1
 136 67 l 1,99,-1
 71 67 l 1,96,-1
71 27 m 1,100,-1
 71 98 l 1,101,-1
 136 98 l 1,102,-1
 136 27 l 1,103,-1
 71 27 l 1,100,-1
71 -13 m 1,104,-1
 71 58 l 1,105,-1
 136 58 l 1,106,-1
 136 -13 l 1,107,-1
 71 -13 l 1,104,-1
EndSplineSet
EndChar

StartChar: n
Encoding: 110 110 70
Width: 510
GlyphClass: 2
Flags: W
LayerCount: 2
Fore
SplineSet
371 267 m 1,0,-1
 371 338 l 1,1,-1
 436 338 l 1,2,-1
 436 267 l 1,3,-1
 371 267 l 1,0,-1
371 227 m 1,4,-1
 371 298 l 1,5,-1
 436 298 l 1,6,-1
 436 227 l 1,7,-1
 371 227 l 1,4,-1
371 187 m 1,8,-1
 371 258 l 1,9,-1
 436 258 l 1,10,-1
 436 187 l 1,11,-1
 371 187 l 1,8,-1
106 307 m 1,12,-1
 106 381 l 1,13,-1
 401 381 l 1,14,-1
 401 307 l 1,15,-1
 106 307 l 1,12,-1
371 147 m 1,16,-1
 371 218 l 1,17,-1
 436 218 l 1,18,-1
 436 147 l 1,19,-1
 371 147 l 1,16,-1
371 107 m 1,20,-1
 371 178 l 1,21,-1
 436 178 l 1,22,-1
 436 107 l 1,23,-1
 371 107 l 1,20,-1
371 67 m 1,24,-1
 371 138 l 1,25,-1
 436 138 l 1,26,-1
 436 67 l 1,27,-1
 371 67 l 1,24,-1
371 27 m 1,28,-1
 371 98 l 1,29,-1
 436 98 l 1,30,-1
 436 27 l 1,31,-1
 371 27 l 1,28,-1
371 -13 m 1,32,-1
 371 58 l 1,33,-1
 436 58 l 1,34,-1
 436 -13 l 1,35,-1
 371 -13 l 1,32,-1
71 267 m 1,36,-1
 71 338 l 1,37,-1
 136 338 l 1,38,-1
 136 267 l 1,39,-1
 71 267 l 1,36,-1
71 227 m 1,40,-1
 71 298 l 1,41,-1
 136 298 l 1,42,-1
 136 227 l 1,43,-1
 71 227 l 1,40,-1
71 187 m 1,44,-1
 71 258 l 1,45,-1
 136 258 l 1,46,-1
 136 187 l 1,47,-1
 71 187 l 1,44,-1
71 147 m 1,48,-1
 71 218 l 1,49,-1
 136 218 l 1,50,-1
 136 147 l 1,51,-1
 71 147 l 1,48,-1
71 107 m 1,52,-1
 71 178 l 1,53,-1
 136 178 l 1,54,-1
 136 107 l 1,55,-1
 71 107 l 1,52,-1
71 67 m 1,56,-1
 71 138 l 1,57,-1
 136 138 l 1,58,-1
 136 67 l 1,59,-1
 71 67 l 1,56,-1
71 27 m 1,60,-1
 71 98 l 1,61,-1
 136 98 l 1,62,-1
 136 27 l 1,63,-1
 71 27 l 1,60,-1
71 -13 m 1,64,-1
 71 58 l 1,65,-1
 136 58 l 1,66,-1
 136 -13 l 1,67,-1
 71 -13 l 1,64,-1
EndSplineSet
EndChar

StartChar: o
Encoding: 111 111 71
Width: 810
GlyphClass: 2
Flags: W
LayerCount: 2
Fore
SplineSet
671 267 m 1,0,-1
 671 338 l 1,1,-1
 736 338 l 1,2,-1
 736 267 l 1,3,-1
 671 267 l 1,0,-1
671 227 m 1,4,-1
 671 298 l 1,5,-1
 736 298 l 1,6,-1
 736 227 l 1,7,-1
 671 227 l 1,4,-1
671 187 m 1,8,-1
 671 258 l 1,9,-1
 736 258 l 1,10,-1
 736 187 l 1,11,-1
 671 187 l 1,8,-1
406 307 m 1,12,-1
 406 381 l 1,13,-1
 701 381 l 1,14,-1
 701 307 l 1,15,-1
 406 307 l 1,12,-1
671 147 m 1,16,-1
 671 218 l 1,17,-1
 736 218 l 1,18,-1
 736 147 l 1,19,-1
 671 147 l 1,16,-1
671 107 m 1,20,-1
 671 178 l 1,21,-1
 736 178 l 1,22,-1
 736 107 l 1,23,-1
 671 107 l 1,20,-1
671 67 m 1,24,-1
 671 138 l 1,25,-1
 736 138 l 1,26,-1
 736 67 l 1,27,-1
 671 67 l 1,24,-1
671 27 m 1,28,-1
 671 98 l 1,29,-1
 736 98 l 1,30,-1
 736 27 l 1,31,-1
 671 27 l 1,28,-1
371 307 m 1,32,-1
 371 378 l 1,33,-1
 436 378 l 1,34,-1
 436 307 l 1,35,-1
 371 307 l 1,32,-1
106 307 m 1,36,-1
 106 381 l 1,37,-1
 401 381 l 1,38,-1
 401 307 l 1,39,-1
 106 307 l 1,36,-1
406 -13 m 1,40,-1
 406 61 l 1,41,-1
 701 61 l 1,42,-1
 701 -13 l 1,43,-1
 406 -13 l 1,40,-1
371 -13 m 1,44,-1
 371 58 l 1,45,-1
 436 58 l 1,46,-1
 436 -13 l 1,47,-1
 371 -13 l 1,44,-1
71 267 m 1,48,-1
 71 338 l 1,49,-1
 136 338 l 1,50,-1
 136 267 l 1,51,-1
 71 267 l 1,48,-1
71 227 m 1,52,-1
 71 298 l 1,53,-1
 136 298 l 1,54,-1
 136 227 l 1,55,-1
 71 227 l 1,52,-1
71 187 m 1,56,-1
 71 258 l 1,57,-1
 136 258 l 1,58,-1
 136 187 l 1,59,-1
 71 187 l 1,56,-1
71 147 m 1,60,-1
 71 218 l 1,61,-1
 136 218 l 1,62,-1
 136 147 l 1,63,-1
 71 147 l 1,60,-1
106 -13 m 1,64,-1
 106 61 l 1,65,-1
 401 61 l 1,66,-1
 401 -13 l 1,67,-1
 106 -13 l 1,64,-1
71 107 m 1,68,-1
 71 178 l 1,69,-1
 136 178 l 1,70,-1
 136 107 l 1,71,-1
 71 107 l 1,68,-1
71 67 m 1,72,-1
 71 138 l 1,73,-1
 136 138 l 1,74,-1
 136 67 l 1,75,-1
 71 67 l 1,72,-1
71 27 m 1,76,-1
 71 98 l 1,77,-1
 136 98 l 1,78,-1
 136 27 l 1,79,-1
 71 27 l 1,76,-1
EndSplineSet
EndChar

StartChar: p
Encoding: 112 112 72
Width: 807
GlyphClass: 2
Flags: W
LayerCount: 2
Fore
SplineSet
673 267 m 1,0,-1
 673 338 l 1,1,-1
 738 338 l 1,2,-1
 738 267 l 1,3,-1
 673 267 l 1,0,-1
673 227 m 1,4,-1
 673 298 l 1,5,-1
 738 298 l 1,6,-1
 738 227 l 1,7,-1
 673 227 l 1,4,-1
673 187 m 1,8,-1
 673 258 l 1,9,-1
 738 258 l 1,10,-1
 738 187 l 1,11,-1
 673 187 l 1,8,-1
408 307 m 1,12,-1
 408 381 l 1,13,-1
 703 381 l 1,14,-1
 703 307 l 1,15,-1
 408 307 l 1,12,-1
373 307 m 1,16,-1
 373 378 l 1,17,-1
 438 378 l 1,18,-1
 438 307 l 1,19,-1
 373 307 l 1,16,-1
408 147 m 1,20,-1
 408 221 l 1,21,-1
 703 221 l 1,22,-1
 703 147 l 1,23,-1
 408 147 l 1,20,-1
108 307 m 1,24,-1
 108 381 l 1,25,-1
 403 381 l 1,26,-1
 403 307 l 1,27,-1
 108 307 l 1,24,-1
373 147 m 1,28,-1
 373 218 l 1,29,-1
 438 218 l 1,30,-1
 438 147 l 1,31,-1
 373 147 l 1,28,-1
73 307 m 1,32,-1
 73 378 l 1,33,-1
 138 378 l 1,34,-1
 138 307 l 1,35,-1
 73 307 l 1,32,-1
108 147 m 1,36,-1
 108 221 l 1,37,-1
 403 221 l 1,38,-1
 403 147 l 1,39,-1
 108 147 l 1,36,-1
73 267 m 1,40,-1
 73 338 l 1,41,-1
 138 338 l 1,42,-1
 138 267 l 1,43,-1
 73 267 l 1,40,-1
73 227 m 1,44,-1
 73 298 l 1,45,-1
 138 298 l 1,46,-1
 138 227 l 1,47,-1
 73 227 l 1,44,-1
73 187 m 1,48,-1
 73 258 l 1,49,-1
 138 258 l 1,50,-1
 138 187 l 1,51,-1
 73 187 l 1,48,-1
73 147 m 1,52,-1
 73 218 l 1,53,-1
 138 218 l 1,54,-1
 138 147 l 1,55,-1
 73 147 l 1,52,-1
73 107 m 1,56,-1
 73 178 l 1,57,-1
 138 178 l 1,58,-1
 138 107 l 1,59,-1
 73 107 l 1,56,-1
73 67 m 1,60,-1
 73 138 l 1,61,-1
 138 138 l 1,62,-1
 138 67 l 1,63,-1
 73 67 l 1,60,-1
73 27 m 1,64,-1
 73 98 l 1,65,-1
 138 98 l 1,66,-1
 138 27 l 1,67,-1
 73 27 l 1,64,-1
73 -13 m 1,68,-1
 73 58 l 1,69,-1
 138 58 l 1,70,-1
 138 -13 l 1,71,-1
 73 -13 l 1,68,-1
EndSplineSet
EndChar

StartChar: q
Encoding: 113 113 73
Width: 805
GlyphClass: 2
Flags: W
LayerCount: 2
Fore
SplineSet
665 307 m 1,0,-1
 665 378 l 1,1,-1
 730 378 l 1,2,-1
 730 307 l 1,3,-1
 665 307 l 1,0,-1
665 267 m 1,4,-1
 665 338 l 1,5,-1
 730 338 l 1,6,-1
 730 267 l 1,7,-1
 665 267 l 1,4,-1
665 227 m 1,8,-1
 665 298 l 1,9,-1
 730 298 l 1,10,-1
 730 227 l 1,11,-1
 665 227 l 1,8,-1
665 187 m 1,12,-1
 665 258 l 1,13,-1
 730 258 l 1,14,-1
 730 187 l 1,15,-1
 665 187 l 1,12,-1
400 307 m 1,16,-1
 400 381 l 1,17,-1
 695 381 l 1,18,-1
 695 307 l 1,19,-1
 400 307 l 1,16,-1
665 147 m 1,20,-1
 665 218 l 1,21,-1
 730 218 l 1,22,-1
 730 147 l 1,23,-1
 665 147 l 1,20,-1
665 107 m 1,24,-1
 665 178 l 1,25,-1
 730 178 l 1,26,-1
 730 107 l 1,27,-1
 665 107 l 1,24,-1
665 67 m 1,28,-1
 665 138 l 1,29,-1
 730 138 l 1,30,-1
 730 67 l 1,31,-1
 665 67 l 1,28,-1
665 27 m 1,32,-1
 665 98 l 1,33,-1
 730 98 l 1,34,-1
 730 27 l 1,35,-1
 665 27 l 1,32,-1
365 307 m 1,36,-1
 365 378 l 1,37,-1
 430 378 l 1,38,-1
 430 307 l 1,39,-1
 365 307 l 1,36,-1
400 147 m 1,40,-1
 400 221 l 1,41,-1
 695 221 l 1,42,-1
 695 147 l 1,43,-1
 400 147 l 1,40,-1
665 -13 m 1,44,-1
 665 58 l 1,45,-1
 730 58 l 1,46,-1
 730 -13 l 1,47,-1
 665 -13 l 1,44,-1
100 307 m 1,48,-1
 100 381 l 1,49,-1
 395 381 l 1,50,-1
 395 307 l 1,51,-1
 100 307 l 1,48,-1
365 147 m 1,52,-1
 365 218 l 1,53,-1
 430 218 l 1,54,-1
 430 147 l 1,55,-1
 365 147 l 1,52,-1
100 147 m 1,56,-1
 100 221 l 1,57,-1
 395 221 l 1,58,-1
 395 147 l 1,59,-1
 100 147 l 1,56,-1
65 267 m 1,60,-1
 65 338 l 1,61,-1
 130 338 l 1,62,-1
 130 267 l 1,63,-1
 65 267 l 1,60,-1
65 227 m 1,64,-1
 65 298 l 1,65,-1
 130 298 l 1,66,-1
 130 227 l 1,67,-1
 65 227 l 1,64,-1
65 187 m 1,68,-1
 65 258 l 1,69,-1
 130 258 l 1,70,-1
 130 187 l 1,71,-1
 65 187 l 1,68,-1
EndSplineSet
EndChar

StartChar: r
Encoding: 114 114 74
Width: 805
GlyphClass: 2
Flags: W
LayerCount: 2
Fore
SplineSet
671 307 m 1,0,-1
 671 378 l 1,1,-1
 736 378 l 1,2,-1
 736 307 l 1,3,-1
 671 307 l 1,0,-1
406 307 m 1,4,-1
 406 381 l 1,5,-1
 701 381 l 1,6,-1
 701 307 l 1,7,-1
 406 307 l 1,4,-1
371 307 m 1,8,-1
 371 378 l 1,9,-1
 436 378 l 1,10,-1
 436 307 l 1,11,-1
 371 307 l 1,8,-1
106 307 m 1,12,-1
 106 381 l 1,13,-1
 401 381 l 1,14,-1
 401 307 l 1,15,-1
 106 307 l 1,12,-1
71 267 m 1,16,-1
 71 338 l 1,17,-1
 136 338 l 1,18,-1
 136 267 l 1,19,-1
 71 267 l 1,16,-1
71 227 m 1,20,-1
 71 298 l 1,21,-1
 136 298 l 1,22,-1
 136 227 l 1,23,-1
 71 227 l 1,20,-1
71 187 m 1,24,-1
 71 258 l 1,25,-1
 136 258 l 1,26,-1
 136 187 l 1,27,-1
 71 187 l 1,24,-1
71 147 m 1,28,-1
 71 218 l 1,29,-1
 136 218 l 1,30,-1
 136 147 l 1,31,-1
 71 147 l 1,28,-1
71 107 m 1,32,-1
 71 178 l 1,33,-1
 136 178 l 1,34,-1
 136 107 l 1,35,-1
 71 107 l 1,32,-1
71 67 m 1,36,-1
 71 138 l 1,37,-1
 136 138 l 1,38,-1
 136 67 l 1,39,-1
 71 67 l 1,36,-1
71 27 m 1,40,-1
 71 98 l 1,41,-1
 136 98 l 1,42,-1
 136 27 l 1,43,-1
 71 27 l 1,40,-1
71 -13 m 1,44,-1
 71 58 l 1,45,-1
 136 58 l 1,46,-1
 136 -13 l 1,47,-1
 71 -13 l 1,44,-1
EndSplineSet
EndChar

StartChar: s
Encoding: 115 115 75
Width: 808
GlyphClass: 2
Flags: W
LayerCount: 2
Fore
SplineSet
671 307 m 1,0,-1
 671 378 l 1,1,-1
 736 378 l 1,2,-1
 736 307 l 1,3,-1
 671 307 l 1,0,-1
406 307 m 1,4,-1
 406 381 l 1,5,-1
 701 381 l 1,6,-1
 701 307 l 1,7,-1
 406 307 l 1,4,-1
671 107 m 1,8,-1
 671 178 l 1,9,-1
 736 178 l 1,10,-1
 736 107 l 1,11,-1
 671 107 l 1,8,-1
671 67 m 1,12,-1
 671 138 l 1,13,-1
 736 138 l 1,14,-1
 736 67 l 1,15,-1
 671 67 l 1,12,-1
671 27 m 1,16,-1
 671 98 l 1,17,-1
 736 98 l 1,18,-1
 736 27 l 1,19,-1
 671 27 l 1,16,-1
371 307 m 1,20,-1
 371 378 l 1,21,-1
 436 378 l 1,22,-1
 436 307 l 1,23,-1
 371 307 l 1,20,-1
406 147 m 1,24,-1
 406 221 l 1,25,-1
 701 221 l 1,26,-1
 701 147 l 1,27,-1
 406 147 l 1,24,-1
106 307 m 1,28,-1
 106 381 l 1,29,-1
 401 381 l 1,30,-1
 401 307 l 1,31,-1
 106 307 l 1,28,-1
371 147 m 1,32,-1
 371 218 l 1,33,-1
 436 218 l 1,34,-1
 436 147 l 1,35,-1
 371 147 l 1,32,-1
406 -13 m 1,36,-1
 406 61 l 1,37,-1
 701 61 l 1,38,-1
 701 -13 l 1,39,-1
 406 -13 l 1,36,-1
106 147 m 1,40,-1
 106 221 l 1,41,-1
 401 221 l 1,42,-1
 401 147 l 1,43,-1
 106 147 l 1,40,-1
371 -13 m 1,44,-1
 371 58 l 1,45,-1
 436 58 l 1,46,-1
 436 -13 l 1,47,-1
 371 -13 l 1,44,-1
71 267 m 1,48,-1
 71 338 l 1,49,-1
 136 338 l 1,50,-1
 136 267 l 1,51,-1
 71 267 l 1,48,-1
71 227 m 1,52,-1
 71 298 l 1,53,-1
 136 298 l 1,54,-1
 136 227 l 1,55,-1
 71 227 l 1,52,-1
71 187 m 1,56,-1
 71 258 l 1,57,-1
 136 258 l 1,58,-1
 136 187 l 1,59,-1
 71 187 l 1,56,-1
106 -13 m 1,60,-1
 106 61 l 1,61,-1
 401 61 l 1,62,-1
 401 -13 l 1,63,-1
 106 -13 l 1,60,-1
71 -13 m 1,64,-1
 71 58 l 1,65,-1
 136 58 l 1,66,-1
 136 -13 l 1,67,-1
 71 -13 l 1,64,-1
EndSplineSet
EndChar

StartChar: t
Encoding: 116 116 76
Width: 795
GlyphClass: 2
Flags: W
LayerCount: 2
Fore
SplineSet
659 227 m 1,0,-1
 659 298 l 1,1,-1
 724 298 l 1,2,-1
 724 227 l 1,3,-1
 659 227 l 1,0,-1
394 227 m 1,4,-1
 394 301 l 1,5,-1
 689 301 l 1,6,-1
 689 227 l 1,7,-1
 394 227 l 1,4,-1
359 307 m 1,8,-1
 359 378 l 1,9,-1
 424 378 l 1,10,-1
 424 307 l 1,11,-1
 359 307 l 1,8,-1
659 -13 m 1,12,-1
 659 58 l 1,13,-1
 724 58 l 1,14,-1
 724 -13 l 1,15,-1
 659 -13 l 1,12,-1
359 267 m 1,16,-1
 359 338 l 1,17,-1
 424 338 l 1,18,-1
 424 267 l 1,19,-1
 359 267 l 1,16,-1
359 227 m 1,20,-1
 359 298 l 1,21,-1
 424 298 l 1,22,-1
 424 227 l 1,23,-1
 359 227 l 1,20,-1
359 187 m 1,24,-1
 359 258 l 1,25,-1
 424 258 l 1,26,-1
 424 187 l 1,27,-1
 359 187 l 1,24,-1
359 147 m 1,28,-1
 359 218 l 1,29,-1
 424 218 l 1,30,-1
 424 147 l 1,31,-1
 359 147 l 1,28,-1
394 -13 m 1,32,-1
 394 61 l 1,33,-1
 689 61 l 1,34,-1
 689 -13 l 1,35,-1
 394 -13 l 1,32,-1
359 107 m 1,36,-1
 359 178 l 1,37,-1
 424 178 l 1,38,-1
 424 107 l 1,39,-1
 359 107 l 1,36,-1
94 227 m 1,40,-1
 94 301 l 1,41,-1
 389 301 l 1,42,-1
 389 227 l 1,43,-1
 94 227 l 1,40,-1
359 67 m 1,44,-1
 359 138 l 1,45,-1
 424 138 l 1,46,-1
 424 67 l 1,47,-1
 359 67 l 1,44,-1
359 27 m 1,48,-1
 359 98 l 1,49,-1
 424 98 l 1,50,-1
 424 27 l 1,51,-1
 359 27 l 1,48,-1
59 227 m 1,52,-1
 59 298 l 1,53,-1
 124 298 l 1,54,-1
 124 227 l 1,55,-1
 59 227 l 1,52,-1
EndSplineSet
EndChar

StartChar: u
Encoding: 117 117 77
Width: 512
GlyphClass: 2
Flags: W
LayerCount: 2
Fore
SplineSet
372 307 m 1,0,-1
 372 378 l 1,1,-1
 437 378 l 1,2,-1
 437 307 l 1,3,-1
 372 307 l 1,0,-1
372 267 m 1,4,-1
 372 338 l 1,5,-1
 437 338 l 1,6,-1
 437 267 l 1,7,-1
 372 267 l 1,4,-1
372 227 m 1,8,-1
 372 298 l 1,9,-1
 437 298 l 1,10,-1
 437 227 l 1,11,-1
 372 227 l 1,8,-1
372 187 m 1,12,-1
 372 258 l 1,13,-1
 437 258 l 1,14,-1
 437 187 l 1,15,-1
 372 187 l 1,12,-1
372 147 m 1,16,-1
 372 218 l 1,17,-1
 437 218 l 1,18,-1
 437 147 l 1,19,-1
 372 147 l 1,16,-1
372 107 m 1,20,-1
 372 178 l 1,21,-1
 437 178 l 1,22,-1
 437 107 l 1,23,-1
 372 107 l 1,20,-1
372 67 m 1,24,-1
 372 138 l 1,25,-1
 437 138 l 1,26,-1
 437 67 l 1,27,-1
 372 67 l 1,24,-1
372 27 m 1,28,-1
 372 98 l 1,29,-1
 437 98 l 1,30,-1
 437 27 l 1,31,-1
 372 27 l 1,28,-1
72 307 m 1,32,-1
 72 378 l 1,33,-1
 137 378 l 1,34,-1
 137 307 l 1,35,-1
 72 307 l 1,32,-1
372 -13 m 1,36,-1
 372 58 l 1,37,-1
 437 58 l 1,38,-1
 437 -13 l 1,39,-1
 372 -13 l 1,36,-1
72 267 m 1,40,-1
 72 338 l 1,41,-1
 137 338 l 1,42,-1
 137 267 l 1,43,-1
 72 267 l 1,40,-1
72 227 m 1,44,-1
 72 298 l 1,45,-1
 137 298 l 1,46,-1
 137 227 l 1,47,-1
 72 227 l 1,44,-1
72 187 m 1,48,-1
 72 258 l 1,49,-1
 137 258 l 1,50,-1
 137 187 l 1,51,-1
 72 187 l 1,48,-1
72 147 m 1,52,-1
 72 218 l 1,53,-1
 137 218 l 1,54,-1
 137 147 l 1,55,-1
 72 147 l 1,52,-1
107 -13 m 1,56,-1
 107 61 l 1,57,-1
 402 61 l 1,58,-1
 402 -13 l 1,59,-1
 107 -13 l 1,56,-1
72 107 m 1,60,-1
 72 178 l 1,61,-1
 137 178 l 1,62,-1
 137 107 l 1,63,-1
 72 107 l 1,60,-1
72 67 m 1,64,-1
 72 138 l 1,65,-1
 137 138 l 1,66,-1
 137 67 l 1,67,-1
 72 67 l 1,64,-1
72 27 m 1,68,-1
 72 98 l 1,69,-1
 137 98 l 1,70,-1
 137 27 l 1,71,-1
 72 27 l 1,68,-1
EndSplineSet
EndChar

StartChar: v
Encoding: 118 118 78
Width: 813
GlyphClass: 2
Flags: W
LayerCount: 2
Fore
SplineSet
673 307 m 1,0,-1
 673 378 l 1,1,-1
 738 378 l 1,2,-1
 738 307 l 1,3,-1
 673 307 l 1,0,-1
673 267 m 1,4,-1
 673 338 l 1,5,-1
 738 338 l 1,6,-1
 738 267 l 1,7,-1
 673 267 l 1,4,-1
673 227 m 1,8,-1
 673 298 l 1,9,-1
 738 298 l 1,10,-1
 738 227 l 1,11,-1
 673 227 l 1,8,-1
673 187 m 1,12,-1
 673 258 l 1,13,-1
 738 258 l 1,14,-1
 738 187 l 1,15,-1
 673 187 l 1,12,-1
673 147 m 1,16,-1
 673 218 l 1,17,-1
 738 218 l 1,18,-1
 738 147 l 1,19,-1
 673 147 l 1,16,-1
673 107 m 1,20,-1
 673 178 l 1,21,-1
 738 178 l 1,22,-1
 738 107 l 1,23,-1
 673 107 l 1,20,-1
673 67 m 1,24,-1
 673 138 l 1,25,-1
 738 138 l 1,26,-1
 738 67 l 1,27,-1
 673 67 l 1,24,-1
673 27 m 1,28,-1
 673 98 l 1,29,-1
 738 98 l 1,30,-1
 738 27 l 1,31,-1
 673 27 l 1,28,-1
408 27 m 1,32,-1
 408 101 l 1,33,-1
 703 101 l 1,34,-1
 703 27 l 1,35,-1
 408 27 l 1,32,-1
373 27 m 1,36,-1
 373 98 l 1,37,-1
 438 98 l 1,38,-1
 438 27 l 1,39,-1
 373 27 l 1,36,-1
73 307 m 1,40,-1
 73 378 l 1,41,-1
 138 378 l 1,42,-1
 138 307 l 1,43,-1
 73 307 l 1,40,-1
373 -13 m 1,44,-1
 373 58 l 1,45,-1
 438 58 l 1,46,-1
 438 -13 l 1,47,-1
 373 -13 l 1,44,-1
73 267 m 1,48,-1
 73 338 l 1,49,-1
 138 338 l 1,50,-1
 138 267 l 1,51,-1
 73 267 l 1,48,-1
73 227 m 1,52,-1
 73 298 l 1,53,-1
 138 298 l 1,54,-1
 138 227 l 1,55,-1
 73 227 l 1,52,-1
73 187 m 1,56,-1
 73 258 l 1,57,-1
 138 258 l 1,58,-1
 138 187 l 1,59,-1
 73 187 l 1,56,-1
108 27 m 1,60,-1
 108 101 l 1,61,-1
 403 101 l 1,62,-1
 403 27 l 1,63,-1
 108 27 l 1,60,-1
73 147 m 1,64,-1
 73 218 l 1,65,-1
 138 218 l 1,66,-1
 138 147 l 1,67,-1
 73 147 l 1,64,-1
73 107 m 1,68,-1
 73 178 l 1,69,-1
 138 178 l 1,70,-1
 138 107 l 1,71,-1
 73 107 l 1,68,-1
73 67 m 1,72,-1
 73 138 l 1,73,-1
 138 138 l 1,74,-1
 138 67 l 1,75,-1
 73 67 l 1,72,-1
73 27 m 1,76,-1
 73 98 l 1,77,-1
 138 98 l 1,78,-1
 138 27 l 1,79,-1
 73 27 l 1,76,-1
EndSplineSet
EndChar

StartChar: w
Encoding: 119 119 79
Width: 811
GlyphClass: 2
Flags: W
LayerCount: 2
Fore
SplineSet
672 307 m 1,0,-1
 672 378 l 1,1,-1
 737 378 l 1,2,-1
 737 307 l 1,3,-1
 672 307 l 1,0,-1
672 267 m 1,4,-1
 672 338 l 1,5,-1
 737 338 l 1,6,-1
 737 267 l 1,7,-1
 672 267 l 1,4,-1
672 227 m 1,8,-1
 672 298 l 1,9,-1
 737 298 l 1,10,-1
 737 227 l 1,11,-1
 672 227 l 1,8,-1
672 187 m 1,12,-1
 672 258 l 1,13,-1
 737 258 l 1,14,-1
 737 187 l 1,15,-1
 672 187 l 1,12,-1
672 147 m 1,16,-1
 672 218 l 1,17,-1
 737 218 l 1,18,-1
 737 147 l 1,19,-1
 672 147 l 1,16,-1
672 107 m 1,20,-1
 672 178 l 1,21,-1
 737 178 l 1,22,-1
 737 107 l 1,23,-1
 672 107 l 1,20,-1
672 67 m 1,24,-1
 672 138 l 1,25,-1
 737 138 l 1,26,-1
 737 67 l 1,27,-1
 672 67 l 1,24,-1
672 27 m 1,28,-1
 672 98 l 1,29,-1
 737 98 l 1,30,-1
 737 27 l 1,31,-1
 672 27 l 1,28,-1
372 307 m 1,32,-1
 372 378 l 1,33,-1
 437 378 l 1,34,-1
 437 307 l 1,35,-1
 372 307 l 1,32,-1
372 267 m 1,36,-1
 372 338 l 1,37,-1
 437 338 l 1,38,-1
 437 267 l 1,39,-1
 372 267 l 1,36,-1
372 227 m 1,40,-1
 372 298 l 1,41,-1
 437 298 l 1,42,-1
 437 227 l 1,43,-1
 372 227 l 1,40,-1
372 187 m 1,44,-1
 372 258 l 1,45,-1
 437 258 l 1,46,-1
 437 187 l 1,47,-1
 372 187 l 1,44,-1
372 147 m 1,48,-1
 372 218 l 1,49,-1
 437 218 l 1,50,-1
 437 147 l 1,51,-1
 372 147 l 1,48,-1
407 -13 m 1,52,-1
 407 61 l 1,53,-1
 702 61 l 1,54,-1
 702 -13 l 1,55,-1
 407 -13 l 1,52,-1
372 107 m 1,56,-1
 372 178 l 1,57,-1
 437 178 l 1,58,-1
 437 107 l 1,59,-1
 372 107 l 1,56,-1
372 67 m 1,60,-1
 372 138 l 1,61,-1
 437 138 l 1,62,-1
 437 67 l 1,63,-1
 372 67 l 1,60,-1
372 27 m 1,64,-1
 372 98 l 1,65,-1
 437 98 l 1,66,-1
 437 27 l 1,67,-1
 372 27 l 1,64,-1
72 307 m 1,68,-1
 72 378 l 1,69,-1
 137 378 l 1,70,-1
 137 307 l 1,71,-1
 72 307 l 1,68,-1
372 -13 m 1,72,-1
 372 58 l 1,73,-1
 437 58 l 1,74,-1
 437 -13 l 1,75,-1
 372 -13 l 1,72,-1
72 267 m 1,76,-1
 72 338 l 1,77,-1
 137 338 l 1,78,-1
 137 267 l 1,79,-1
 72 267 l 1,76,-1
72 227 m 1,80,-1
 72 298 l 1,81,-1
 137 298 l 1,82,-1
 137 227 l 1,83,-1
 72 227 l 1,80,-1
72 187 m 1,84,-1
 72 258 l 1,85,-1
 137 258 l 1,86,-1
 137 187 l 1,87,-1
 72 187 l 1,84,-1
72 147 m 1,88,-1
 72 218 l 1,89,-1
 137 218 l 1,90,-1
 137 147 l 1,91,-1
 72 147 l 1,88,-1
107 -13 m 1,92,-1
 107 61 l 1,93,-1
 402 61 l 1,94,-1
 402 -13 l 1,95,-1
 107 -13 l 1,92,-1
72 107 m 1,96,-1
 72 178 l 1,97,-1
 137 178 l 1,98,-1
 137 107 l 1,99,-1
 72 107 l 1,96,-1
72 67 m 1,100,-1
 72 138 l 1,101,-1
 137 138 l 1,102,-1
 137 67 l 1,103,-1
 72 67 l 1,100,-1
72 27 m 1,104,-1
 72 98 l 1,105,-1
 137 98 l 1,106,-1
 137 27 l 1,107,-1
 72 27 l 1,104,-1
EndSplineSet
EndChar

StartChar: x
Encoding: 120 120 80
Width: 813
GlyphClass: 2
Flags: W
LayerCount: 2
Fore
SplineSet
673 307 m 1,0,-1
 673 378 l 1,1,-1
 738 378 l 1,2,-1
 738 307 l 1,3,-1
 673 307 l 1,0,-1
673 267 m 1,4,-1
 673 338 l 1,5,-1
 738 338 l 1,6,-1
 738 267 l 1,7,-1
 673 267 l 1,4,-1
673 227 m 1,8,-1
 673 298 l 1,9,-1
 738 298 l 1,10,-1
 738 227 l 1,11,-1
 673 227 l 1,8,-1
408 227 m 1,12,-1
 408 301 l 1,13,-1
 703 301 l 1,14,-1
 703 227 l 1,15,-1
 408 227 l 1,12,-1
673 67 m 1,16,-1
 673 138 l 1,17,-1
 738 138 l 1,18,-1
 738 67 l 1,19,-1
 673 67 l 1,16,-1
673 27 m 1,20,-1
 673 98 l 1,21,-1
 738 98 l 1,22,-1
 738 27 l 1,23,-1
 673 27 l 1,20,-1
673 -13 m 1,24,-1
 673 58 l 1,25,-1
 738 58 l 1,26,-1
 738 -13 l 1,27,-1
 673 -13 l 1,24,-1
373 227 m 1,28,-1
 373 298 l 1,29,-1
 438 298 l 1,30,-1
 438 227 l 1,31,-1
 373 227 l 1,28,-1
408 67 m 1,32,-1
 408 141 l 1,33,-1
 703 141 l 1,34,-1
 703 67 l 1,35,-1
 408 67 l 1,32,-1
373 187 m 1,36,-1
 373 258 l 1,37,-1
 438 258 l 1,38,-1
 438 187 l 1,39,-1
 373 187 l 1,36,-1
373 147 m 1,40,-1
 373 218 l 1,41,-1
 438 218 l 1,42,-1
 438 147 l 1,43,-1
 373 147 l 1,40,-1
373 107 m 1,44,-1
 373 178 l 1,45,-1
 438 178 l 1,46,-1
 438 107 l 1,47,-1
 373 107 l 1,44,-1
108 227 m 1,48,-1
 108 301 l 1,49,-1
 403 301 l 1,50,-1
 403 227 l 1,51,-1
 108 227 l 1,48,-1
373 67 m 1,52,-1
 373 138 l 1,53,-1
 438 138 l 1,54,-1
 438 67 l 1,55,-1
 373 67 l 1,52,-1
73 307 m 1,56,-1
 73 378 l 1,57,-1
 138 378 l 1,58,-1
 138 307 l 1,59,-1
 73 307 l 1,56,-1
73 267 m 1,60,-1
 73 338 l 1,61,-1
 138 338 l 1,62,-1
 138 267 l 1,63,-1
 73 267 l 1,60,-1
73 227 m 1,64,-1
 73 298 l 1,65,-1
 138 298 l 1,66,-1
 138 227 l 1,67,-1
 73 227 l 1,64,-1
108 67 m 1,68,-1
 108 141 l 1,69,-1
 403 141 l 1,70,-1
 403 67 l 1,71,-1
 108 67 l 1,68,-1
73 67 m 1,72,-1
 73 138 l 1,73,-1
 138 138 l 1,74,-1
 138 67 l 1,75,-1
 73 67 l 1,72,-1
73 27 m 1,76,-1
 73 98 l 1,77,-1
 138 98 l 1,78,-1
 138 27 l 1,79,-1
 73 27 l 1,76,-1
73 -13 m 1,80,-1
 73 58 l 1,81,-1
 138 58 l 1,82,-1
 138 -13 l 1,83,-1
 73 -13 l 1,80,-1
EndSplineSet
EndChar

StartChar: y
Encoding: 121 121 81
Width: 811
GlyphClass: 2
Flags: W
LayerCount: 2
Fore
SplineSet
672 307 m 1,0,-1
 672 378 l 1,1,-1
 737 378 l 1,2,-1
 737 307 l 1,3,-1
 672 307 l 1,0,-1
672 267 m 1,4,-1
 672 338 l 1,5,-1
 737 338 l 1,6,-1
 737 267 l 1,7,-1
 672 267 l 1,4,-1
672 227 m 1,8,-1
 672 298 l 1,9,-1
 737 298 l 1,10,-1
 737 227 l 1,11,-1
 672 227 l 1,8,-1
672 187 m 1,12,-1
 672 258 l 1,13,-1
 737 258 l 1,14,-1
 737 187 l 1,15,-1
 672 187 l 1,12,-1
672 147 m 1,16,-1
 672 218 l 1,17,-1
 737 218 l 1,18,-1
 737 147 l 1,19,-1
 672 147 l 1,16,-1
672 107 m 1,20,-1
 672 178 l 1,21,-1
 737 178 l 1,22,-1
 737 107 l 1,23,-1
 672 107 l 1,20,-1
672 67 m 1,24,-1
 672 138 l 1,25,-1
 737 138 l 1,26,-1
 737 67 l 1,27,-1
 672 67 l 1,24,-1
672 27 m 1,28,-1
 672 98 l 1,29,-1
 737 98 l 1,30,-1
 737 27 l 1,31,-1
 672 27 l 1,28,-1
407 147 m 1,32,-1
 407 221 l 1,33,-1
 702 221 l 1,34,-1
 702 147 l 1,35,-1
 407 147 l 1,32,-1
372 147 m 1,36,-1
 372 218 l 1,37,-1
 437 218 l 1,38,-1
 437 147 l 1,39,-1
 372 147 l 1,36,-1
407 -13 m 1,40,-1
 407 61 l 1,41,-1
 702 61 l 1,42,-1
 702 -13 l 1,43,-1
 407 -13 l 1,40,-1
72 307 m 1,44,-1
 72 378 l 1,45,-1
 137 378 l 1,46,-1
 137 307 l 1,47,-1
 72 307 l 1,44,-1
107 147 m 1,48,-1
 107 221 l 1,49,-1
 402 221 l 1,50,-1
 402 147 l 1,51,-1
 107 147 l 1,48,-1
372 -13 m 1,52,-1
 372 58 l 1,53,-1
 437 58 l 1,54,-1
 437 -13 l 1,55,-1
 372 -13 l 1,52,-1
72 267 m 1,56,-1
 72 338 l 1,57,-1
 137 338 l 1,58,-1
 137 267 l 1,59,-1
 72 267 l 1,56,-1
72 227 m 1,60,-1
 72 298 l 1,61,-1
 137 298 l 1,62,-1
 137 227 l 1,63,-1
 72 227 l 1,60,-1
72 187 m 1,64,-1
 72 258 l 1,65,-1
 137 258 l 1,66,-1
 137 187 l 1,67,-1
 72 187 l 1,64,-1
107 -13 m 1,68,-1
 107 61 l 1,69,-1
 402 61 l 1,70,-1
 402 -13 l 1,71,-1
 107 -13 l 1,68,-1
72 -13 m 1,72,-1
 72 58 l 1,73,-1
 137 58 l 1,74,-1
 137 -13 l 1,75,-1
 72 -13 l 1,72,-1
EndSplineSet
EndChar

StartChar: z
Encoding: 122 122 82
Width: 813
GlyphClass: 2
Flags: W
LayerCount: 2
Fore
SplineSet
673 307 m 1,0,-1
 673 378 l 1,1,-1
 738 378 l 1,2,-1
 738 307 l 1,3,-1
 673 307 l 1,0,-1
673 267 m 1,4,-1
 673 338 l 1,5,-1
 738 338 l 1,6,-1
 738 267 l 1,7,-1
 673 267 l 1,4,-1
673 227 m 1,8,-1
 673 298 l 1,9,-1
 738 298 l 1,10,-1
 738 227 l 1,11,-1
 673 227 l 1,8,-1
673 187 m 1,12,-1
 673 258 l 1,13,-1
 738 258 l 1,14,-1
 738 187 l 1,15,-1
 673 187 l 1,12,-1
408 307 m 1,16,-1
 408 381 l 1,17,-1
 703 381 l 1,18,-1
 703 307 l 1,19,-1
 408 307 l 1,16,-1
673 147 m 1,20,-1
 673 218 l 1,21,-1
 738 218 l 1,22,-1
 738 147 l 1,23,-1
 673 147 l 1,20,-1
373 307 m 1,24,-1
 373 378 l 1,25,-1
 438 378 l 1,26,-1
 438 307 l 1,27,-1
 373 307 l 1,24,-1
408 147 m 1,28,-1
 408 221 l 1,29,-1
 703 221 l 1,30,-1
 703 147 l 1,31,-1
 408 147 l 1,28,-1
673 -13 m 1,32,-1
 673 58 l 1,33,-1
 738 58 l 1,34,-1
 738 -13 l 1,35,-1
 673 -13 l 1,32,-1
108 307 m 1,36,-1
 108 381 l 1,37,-1
 403 381 l 1,38,-1
 403 307 l 1,39,-1
 108 307 l 1,36,-1
373 147 m 1,40,-1
 373 218 l 1,41,-1
 438 218 l 1,42,-1
 438 147 l 1,43,-1
 373 147 l 1,40,-1
408 -13 m 1,44,-1
 408 61 l 1,45,-1
 703 61 l 1,46,-1
 703 -13 l 1,47,-1
 408 -13 l 1,44,-1
73 307 m 1,48,-1
 73 378 l 1,49,-1
 138 378 l 1,50,-1
 138 307 l 1,51,-1
 73 307 l 1,48,-1
108 147 m 1,52,-1
 108 221 l 1,53,-1
 403 221 l 1,54,-1
 403 147 l 1,55,-1
 108 147 l 1,52,-1
373 -13 m 1,56,-1
 373 58 l 1,57,-1
 438 58 l 1,58,-1
 438 -13 l 1,59,-1
 373 -13 l 1,56,-1
73 147 m 1,60,-1
 73 218 l 1,61,-1
 138 218 l 1,62,-1
 138 147 l 1,63,-1
 73 147 l 1,60,-1
108 -13 m 1,64,-1
 108 61 l 1,65,-1
 403 61 l 1,66,-1
 403 -13 l 1,67,-1
 108 -13 l 1,64,-1
73 107 m 1,68,-1
 73 178 l 1,69,-1
 138 178 l 1,70,-1
 138 107 l 1,71,-1
 73 107 l 1,68,-1
73 67 m 1,72,-1
 73 138 l 1,73,-1
 138 138 l 1,74,-1
 138 67 l 1,75,-1
 73 67 l 1,72,-1
73 27 m 1,76,-1
 73 98 l 1,77,-1
 138 98 l 1,78,-1
 138 27 l 1,79,-1
 73 27 l 1,76,-1
73 -13 m 1,80,-1
 73 58 l 1,81,-1
 138 58 l 1,82,-1
 138 -13 l 1,83,-1
 73 -13 l 1,80,-1
EndSplineSet
EndChar
